<?xml version="1.0" encoding="UTF-8"?>
<svg id="_圖層_2" data-name="圖層 2" xmlns="http://www.w3.org/2000/svg" viewBox="0 0 622.09 182.79">
  <g id="_圖層_1-2" data-name="圖層 1">
    <g>
      <path d="M324.56,127.58V44.58s14.97,6.39,14.97,6.39v38.29s11.52-.27,11.52-.27c7.36-.17,13.54-5.25,15.89-12.18,5.54-16.31-1.87-33.37-14.58-33.69l-12.8-.32.81,5.68-13.5-7.65c-17.6,11.09-52.01,28.34-70.31,28.45l-25.75.15-9.11-1.47,11.18.38c36.67,1.26,59.28-10.93,90.55-29.65l-42.31-23.32c-16.31-8.99-46.96-12.03-60.45,4.2-5.5,6.62-8.5,15.45-8.52,24.4l-.15,85.44c0,4.59,3.41,5.54,7.32,7.51l-28.45.19c3.73-2.24,7.07-3.3,7.07-7.43l.03-73c0-8.1,1.15-15.78,3.57-23.3C207.89,13.73,225.37.93,246.08.06c15.06-.63,29.15,3.61,42.38,11.03l38.49,25.53,33.46-20.36c20.84-12.67,51.39-20.74,73.07-8.49,8.43,4.76,14.34,12.27,15.96,20.25,2.03,9.95-.32,20-7.23,27.28-12,12.63-31.07,17.1-47.57,12.82l18.86-.87c17.29-.8,35.26-15.41,31.9-34.4-1.27-7.16-6.3-14.06-13.87-18.14-30.34-16.38-72.87,6.23-101.67,24.86l28.01,1.13c6.32.26,13.09,1.95,18.17,5.71,10.24,7.58,11.6,22.44,3.89,32.33-4.09,5.25-9.63,8.03-16.61,10.27l19.87,33.2c6.19,10.34,13.64,19.56,23.04,26.82,11.66,9.01,25.13,10.81,39.81,8.9-28.27,10.24-62.26-5.12-76.8-30.75l-19.67-34.68-10.02-.66.02,35.92c.3,1.63,1.11,5.35,2.5,5.99l7.02,3.22-33.57-.23c4.45-1.69,9.04-3.15,9.04-9.19Z"/>
      <path d="M47.18,136.6l-47.18.42c4.99-2.27,9.34-4.19,9.34-10.07V45.53c-.48-5.78-3.82-7.1-9.31-9.52l42.79-.13c10.7-.03,21.23,3.04,30.08,8.62,14.34,9.05,21.06,24.39,21.02,41.19-.06,26.71-18.99,48.75-46.74,50.92ZM72.42,110.57c6.03-15.37,6.37-32.74.36-47.72-5.83-14.52-18.43-24.4-33.96-24.3l-13.82.09v90.78c0,1.38.62,3.81,1.65,3.95l3.91.56c18.45,2.66,34.82-5.36,41.88-23.36Z"/>
      <path d="M526.53,126.15c0,4.88,3.17,6.38,7.54,7.06l-20.44,5.1-.2-9.85c-5.25,4.71-10.53,9.14-17.62,10.03-10.01,1.25-19.18-5.24-19.33-15.69l-.54-37.19c-.04-3.04-3.58-4.75-6.54-5.9l20.11-4.16.18,45.12c.02,4.16,2.58,8.32,6.23,9.87,5.78,2.46,13.49.3,17.12-4.83l.07-39.1c0-3.67-3.13-5.53-6.67-6.87l20.03-4.16.08,50.58Z"/>
      <path d="M277.59,84.59l-26.39,61.42c-7.11,16.55-17.65,37.89-35.43,36.73-3.33-.22-6.64-2.59-7.55-5.08-1.17-3.19.14-6.6,2.93-9.22,20.75,8.98,31.42-11.08,40.32-30.38l-24.58-55.48c-1.36-3.06-3.97-4.12-7.52-6.35l29.03-.15-4.73,3.22c-1.13.77-.77,4.28-.52,5.82l15.82,36.08,14.22-35.54c.03-1.55.02-5.6-1.23-6.29l-5.61-3.11,20.16-.09c-4.54,2.82-7.16,4.33-8.92,8.42Z"/>
      <path d="M593.56,136.92c4.08-1.88,7.09-3.13,7.09-7.37l.02-87.74c0-4.43-2.19-6.64-6.87-8.24l20.77-6.42.05,101.43c0,4.78,2.84,6.29,7.48,8.24l-28.53.1Z"/>
      <path d="M118.15,138.27c-8.43,1.6-15.93-2.53-17.87-9.54-1.99-7.19,1.03-14.98,8.32-18.36l24.15-7.68-.88-15.92c-.29-5.27-5.32-8.1-9.6-8.5-12.38-1.15-8.23,14.59-18.09,14.32-3.93-12.2,14.62-20.05,28.48-16.87,7.36,1.69,13.19,7.89,13.25,16l.27,35.44c.01,1.63,1.28,5.16,2.64,5.1l6.24-.28c-3.05,3.69-7.99,6.51-13,6.32s-8.42-3.54-9.31-9.18c-4.33,3.99-8.62,8-14.6,9.13ZM117.08,129.83c6.05,3.12,12.51.99,15.74-4.01l-.12-21.14-13.63,5.31c-3.68,1.43-5.74,6.13-6.01,9.45-.31,3.85,1,7.44,4.02,10.4Z"/>
      <path d="M540.82,115.9c1.96-2.74,6.06-5.97,9.16-6.92l20.34-6.29-.47-14.91c-.17-5.55-4.96-9.06-9.59-9.51-12.23-1.18-9.54,14.8-17.94,14.05-2.04-3.26-.03-8.87,3.73-11.4,6.81-4.57,14.74-6.78,22.95-5.49s14.44,7.81,14.47,16.4l.12,35.77c0,1.34,1.11,4.64,2.3,4.59l6.19-.25c-2.84,3.62-7.3,6.42-12.17,6.45-5.29.03-8.82-3.35-9.42-9.37-4.6,4.51-9.26,8.67-15.69,9.48-5.94.74-11.48-1.48-14.41-5.98s-3.57-11.05.42-16.63ZM553.14,127.72c4.85,6.26,14.17,3.78,17.4-1.92l-.17-21.15-11.34,4.39c-6.9,2.67-10.8,12.33-5.89,18.68Z"/>
      <path d="M457.99,132.23c3.72.32,7.39-1.78,11.02-3.56-3.75,7.17-11.17,10.46-19.24,9.82-6.63-.52-12.72-5.79-12.76-13.11l-.25-45.35-7.39-.79c9.45-4.14,14.98-10.24,20.53-19.27l.38,16.24,15.99.06-.47,3.38-15.62.24.15,43.76c.01,4.22,2.72,8.17,7.67,8.59Z"/>
      <path d="M158.18,136.92c3.46-1.78,6.86-3.16,6.86-7.17l.02-41.12c0-3.9-2.57-5.92-6.72-7.43l20.93-6.16.16,55.64c.01,3.79,4.1,4.66,7.53,6.04l-28.78.2Z"/>
      <path d="M399.14,137.17l5.42-3.47c1.17-.75,1.55-4.43,1.55-5.93v-39.17c.01-3.94-2.44-5.96-6.71-7.21l20.56-6.33.07,54.39c0,4.24,2.78,5.48,7.19,7.45l-28.07.28Z"/>
      <circle cx="412.69" cy="54.83" r="8.74"/>
      <circle cx="171.91" cy="51.43" r="8.79"/>
    </g>
  </g>
</svg>