<svg xmlns="http://www.w3.org/2000/svg" xmlns:v="https://svgstorm.com" viewBox="0 0 512 512" width="512" height="512">
<g fill="None" fill-opacity="0.0" stroke="#000000" stroke-opacity="0.00" stroke-width="0.3"><path d="&#xA;M 0.00 512.00 &#xA;L 254.00 512.00&#xA;C 249.28 510.06 246.87 505.40 248.00 500.00&#xA;C 237.08 496.02 226.21 490.48 215.92 485.08 C 205.64 479.67 195.61 473.28 185.92 467.08 C 176.23 460.88 167.12 454.07 158.25 446.75 C 149.38 439.43 141.13 432.34 132.75 424.25 C 124.37 416.16 117.58 407.86 110.25 398.75 C 102.92 389.65 97.34 380.15 91.23 369.77 C 85.12 359.39 80.34 348.68 76.22 336.78 C 72.11 324.87 68.44 311.24 67.00 298.00 C 65.57 284.76 64.28 266.85 66.33 253.33 C 68.38 239.81 53.51 236.79 50.08 223.92 C 46.64 211.06 48.33 194.77 52.98 182.98 C 57.62 171.18 63.10 162.49 71.25 153.25 C 79.40 144.01 87.43 137.82 97.23 131.23 C 107.03 124.64 116.79 118.81 127.69 113.69 C 138.60 108.58 150.52 104.15 162.07 100.07 C 173.63 95.99 187.34 92.49 199.07 89.07 C 210.81 85.66 229.39 87.30 230.93 72.93 C 232.46 58.55 234.95 44.34 236.93 30.93 C 238.91 17.52 241.78 6.23 254.00 0.00&#xA;L 0.00 0.00&#xA;L 0.00 512.00 Z"></path>
</g>
<g fill="None" fill-opacity="0.0" stroke="#000000" stroke-opacity="0.98" stroke-width="0.3"><path d="&#xA;M 254.00 512.00 &#xA;L 259.00 512.00&#xA;C 262.92 509.33 265.02 505.15 264.00 500.00&#xA;C 275.22 496.38 286.30 490.21 296.70 484.69 C 307.09 479.18 316.85 472.90 326.70 466.70 C 336.55 460.49 345.07 453.41 354.25 446.25 C 363.43 439.08 370.83 431.59 379.75 423.75 C 388.67 415.91 393.94 406.72 401.77 397.77 C 409.60 388.82 414.67 379.49 420.92 368.92 C 427.18 358.36 431.89 347.11 435.98 334.98 C 440.06 322.84 443.57 309.45 445.00 296.00 C 446.43 282.55 446.76 265.28 445.07 251.93 C 443.39 238.58 461.00 235.05 462.78 221.78 C 464.55 208.50 463.13 192.75 458.07 180.93 C 453.01 169.10 447.72 161.03 439.25 151.75 C 430.78 142.47 422.88 136.78 412.92 130.08 C 402.96 123.38 392.35 117.51 381.32 112.68 C 370.30 107.85 358.43 102.62 346.93 99.07 C 335.42 95.53 321.10 90.75 309.78 88.22 C 298.45 85.69 276.14 84.81 281.00 71.00 C 285.86 57.19 288.39 49.32 296.75 38.75 C 305.12 28.19 311.31 16.05 295.93 12.07 C 280.54 8.10 272.83 5.16 259.00 0.00&#xA;L 254.00 0.00&#xA;C 241.78 6.23 238.91 17.52 236.93 30.93 C 234.95 44.34 232.46 58.55 230.93 72.93 C 229.39 87.30 210.81 85.66 199.07 89.07 C 187.34 92.49 173.63 95.99 162.07 100.07 C 150.52 104.15 138.60 108.58 127.69 113.69 C 116.79 118.81 107.03 124.64 97.23 131.23 C 87.43 137.82 79.40 144.01 71.25 153.25 C 63.10 162.49 57.62 171.18 52.98 182.98 C 48.33 194.77 46.64 211.06 50.08 223.92 C 53.51 236.79 68.38 239.81 66.33 253.33 C 64.28 266.85 65.57 284.76 67.00 298.00 C 68.44 311.24 72.11 324.87 76.22 336.78 C 80.34 348.68 85.12 359.39 91.23 369.77 C 97.34 380.15 102.92 389.65 110.25 398.75 C 117.58 407.86 124.37 416.16 132.75 424.25 C 141.13 432.34 149.38 439.43 158.25 446.75 C 167.12 454.07 176.23 460.88 185.92 467.08 C 195.61 473.28 205.64 479.67 215.92 485.08 C 226.21 490.48 237.08 496.02 248.00 500.00&#xA;C 246.87 505.40 249.28 510.06 254.00 512.00&#xA;M 283.00 26.00 &#xA;C 274.50 43.76 261.71 60.88 263.00 82.00&#xA;C 257.33 82.00 251.67 82.00 246.00 82.00&#xA;C 250.27 73.11 248.83 61.30 251.00 52.00 C 253.17 42.70 252.50 30.11 256.93 21.93 C 261.35 13.74 275.57 27.71 283.00 26.00&#xA;M 257.00 101.00 &#xA;C 259.83 109.49 269.42 116.84 269.78 126.22 C 270.14 135.61 281.82 147.29 288.75 136.75 C 295.68 126.22 281.32 117.99 282.00 108.00&#xA;C 289.43 110.57 294.87 115.98 301.25 120.75 C 307.62 125.52 312.60 130.96 317.75 137.25 C 322.91 143.54 326.94 149.71 330.77 157.23 C 334.61 164.75 336.82 173.60 338.99 182.01 C 341.16 190.42 342.44 203.06 342.00 212.00 C 341.56 220.94 341.86 233.75 331.00 234.00 C 320.14 234.25 309.81 233.82 299.00 234.00&#xA;C 299.08 222.90 299.90 200.44 299.00 190.00 C 298.10 179.56 301.32 155.54 287.00 157.00 C 272.67 158.47 281.91 181.51 281.00 192.00 C 280.09 202.49 283.92 222.97 280.00 234.00&#xA;C 264.00 234.00 248.00 234.00 232.00 234.00&#xA;C 229.18 189.20 229.27 136.64 257.00 101.00&#xA;M 230.00 108.00 &#xA;C 213.80 146.81 210.62 190.82 214.00 234.00&#xA;C 203.06 231.16 187.48 237.78 177.00 234.00 C 166.52 230.22 171.71 211.90 170.00 204.00 C 168.29 196.10 178.11 177.93 164.97 176.03 C 151.84 174.12 152.99 190.29 152.00 200.00 C 151.01 209.71 152.29 224.61 155.00 234.00&#xA;C 139.36 235.65 113.13 236.67 109.68 218.32 C 106.22 199.98 112.44 183.37 120.31 169.31 C 128.17 155.24 138.26 147.83 149.75 137.75 C 161.25 127.67 175.79 122.83 189.00 116.00&#xA;C 178.52 125.10 178.98 130.92 169.70 141.70 C 160.41 152.47 177.09 164.62 183.77 152.77 C 190.45 140.92 194.41 136.17 203.25 127.25 C 212.09 118.32 219.51 113.34 230.00 108.00&#xA;M 357.00 234.00 &#xA;C 366.67 191.77 353.15 146.66 323.00 116.00&#xA;C 336.19 122.81 350.77 127.59 362.23 137.77 C 373.69 147.95 383.86 155.12 391.75 169.25 C 399.65 183.37 405.62 199.86 402.22 218.22 C 398.83 236.58 372.76 235.74 357.00 234.00&#xA;M 125.00 135.00 &#xA;C 99.62 160.02 80.79 199.57 97.00 234.00&#xA;C 62.59 239.97 60.34 199.89 73.77 179.77 C 87.21 159.65 103.51 144.81 125.00 135.00&#xA;M 415.00 234.00 &#xA;C 431.23 199.58 412.35 159.98 387.00 135.00&#xA;C 401.80 141.71 411.34 149.47 423.75 161.25 C 436.16 173.03 442.66 185.94 445.99 203.01 C 449.33 220.08 434.96 238.70 415.00 234.00&#xA;M 429.00 251.00 &#xA;C 430.39 266.63 430.22 286.75 427.67 301.67 C 425.12 316.59 420.30 330.75 415.03 344.02 C 409.75 357.30 402.69 366.94 395.25 378.25 C 387.80 389.55 379.97 398.63 370.25 408.25 C 360.52 417.87 352.70 425.78 342.30 434.30 C 331.91 442.82 321.44 449.36 310.25 457.25 C 299.07 465.15 287.56 468.55 275.77 476.77 C 263.98 484.99 248.75 485.36 236.92 477.08 C 225.10 468.79 213.52 465.59 202.30 457.70 C 191.09 449.80 180.73 443.17 170.25 434.75 C 159.76 426.33 151.96 418.41 142.25 408.75 C 132.54 399.10 124.59 390.23 117.08 378.92 C 109.57 367.61 102.76 357.98 97.23 344.77 C 91.70 331.56 87.26 317.35 84.67 302.33 C 82.09 287.31 81.27 266.89 83.00 251.00&#xA;C 198.33 251.00 313.67 251.00 429.00 251.00 Z"></path>
</g>
<g fill="None" fill-opacity="0.0" stroke="#000000" stroke-opacity="0.00" stroke-width="0.3"><path d="&#xA;M 259.00 512.00 &#xA;L 512.00 512.00&#xA;L 512.00 0.00&#xA;L 259.00 0.00&#xA;C 272.83 5.16 280.54 8.10 295.93 12.07 C 311.31 16.05 305.12 28.19 296.75 38.75 C 288.39 49.32 285.86 57.19 281.00 71.00 C 276.14 84.81 298.45 85.69 309.78 88.22 C 321.10 90.75 335.42 95.53 346.93 99.07 C 358.43 102.62 370.30 107.85 381.32 112.68 C 392.35 117.51 402.96 123.38 412.92 130.08 C 422.88 136.78 430.78 142.47 439.25 151.75 C 447.72 161.03 453.01 169.10 458.07 180.93 C 463.13 192.75 464.55 208.50 462.78 221.78 C 461.00 235.05 443.39 238.58 445.07 251.93 C 446.76 265.28 446.43 282.55 445.00 296.00 C 443.57 309.45 440.06 322.84 435.98 334.98 C 431.89 347.11 427.18 358.36 420.92 368.92 C 414.67 379.49 409.60 388.82 401.77 397.77 C 393.94 406.72 388.67 415.91 379.75 423.75 C 370.83 431.59 363.43 439.08 354.25 446.25 C 345.07 453.41 336.55 460.49 326.70 466.70 C 316.85 472.90 307.09 479.18 296.70 484.69 C 286.30 490.21 275.22 496.38 264.00 500.00&#xA;C 265.02 505.15 262.92 509.33 259.00 512.00 Z"></path>
</g>
<g fill="None" fill-opacity="0.0" stroke="#000000" stroke-opacity="0.00" stroke-width="0.3"><path d="&#xA;M 283.00 26.00 &#xA;C 275.57 27.71 261.35 13.74 256.93 21.93 C 252.50 30.11 253.17 42.70 251.00 52.00 C 248.83 61.30 250.27 73.11 246.00 82.00&#xA;C 251.67 82.00 257.33 82.00 263.00 82.00&#xA;C 261.71 60.88 274.50 43.76 283.00 26.00 Z"></path>
</g>
<g fill="None" fill-opacity="0.0" stroke="#000000" stroke-opacity="0.00" stroke-width="0.3"><path d="&#xA;M 257.00 101.00 &#xA;C 229.27 136.64 229.18 189.20 232.00 234.00&#xA;C 248.00 234.00 264.00 234.00 280.00 234.00&#xA;C 283.92 222.97 280.09 202.49 281.00 192.00 C 281.91 181.51 272.67 158.47 287.00 157.00 C 301.32 155.54 298.10 179.56 299.00 190.00 C 299.90 200.44 299.08 222.90 298.00 234.00&#xA;C 309.81 233.82 320.14 234.25 331.00 234.00 C 341.86 233.75 341.56 220.94 342.00 212.00 C 342.44 203.06 341.16 190.42 338.99 182.01 C 336.82 173.60 334.61 164.75 330.77 157.23 C 326.94 149.71 322.91 143.54 317.75 137.25 C 312.60 130.96 307.62 125.52 301.25 120.75 C 294.87 115.98 289.43 110.57 282.00 108.00&#xA;C 281.32 117.99 295.68 126.22 288.75 136.75 C 281.82 147.29 270.14 135.61 269.78 126.22 C 269.42 116.84 259.83 109.49 257.00 101.00 Z"></path>
</g>
<g fill="None" fill-opacity="0.0" stroke="#000000" stroke-opacity="0.00" stroke-width="0.3"><path d="&#xA;M 230.00 108.00 &#xA;C 219.51 113.34 212.09 118.32 203.25 127.25 C 194.41 136.17 190.45 140.92 183.77 152.77 C 177.09 164.62 160.41 152.47 169.70 141.70 C 178.98 130.92 178.52 125.10 189.00 116.00&#xA;C 175.79 122.83 161.25 127.67 149.75 137.75 C 138.26 147.83 128.17 155.24 120.31 169.31 C 112.44 183.37 106.22 199.98 109.68 218.32 C 113.13 236.67 139.36 235.65 155.00 234.00&#xA;C 152.29 224.61 151.01 209.71 152.00 200.00 C 152.99 190.29 151.84 174.12 164.97 176.03 C 178.11 177.93 168.29 196.10 170.00 204.00 C 171.71 211.90 166.52 230.22 177.00 234.00 C 187.48 237.78 203.06 231.16 214.00 234.00&#xA;C 210.62 190.82 213.80 146.81 230.00 108.00 Z"></path>
</g>
<g fill="None" fill-opacity="0.0" stroke="#000000" stroke-opacity="0.00" stroke-width="0.3"><path d="&#xA;M 357.00 234.00 &#xA;C 372.76 235.74 398.83 236.58 402.22 218.22 C 405.62 199.86 399.65 183.37 391.75 169.25 C 383.86 155.12 373.69 147.95 362.23 137.77 C 350.77 127.59 336.19 122.81 323.00 116.00&#xA;C 353.15 146.66 366.67 191.77 357.00 234.00 Z"></path>
</g>
<g fill="None" fill-opacity="0.0" stroke="#000000" stroke-opacity="0.00" stroke-width="0.3"><path d="&#xA;M 125.00 135.00 &#xA;C 103.51 144.81 87.21 159.65 73.77 179.77 C 60.34 199.89 62.59 239.97 97.00 234.00&#xA;C 80.79 199.57 99.62 160.02 125.00 135.00 Z"></path>
</g>
<g fill="None" fill-opacity="0.0" stroke="#000000" stroke-opacity="0.00" stroke-width="0.3"><path d="&#xA;M 415.00 234.00 &#xA;C 434.96 238.70 449.33 220.08 445.99 203.01 C 442.66 185.94 436.16 173.03 423.75 161.25 C 411.34 149.47 401.80 141.71 387.00 135.00&#xA;C 412.35 159.98 431.23 199.58 415.00 234.00 Z"></path>
</g>
<g fill="None" fill-opacity="0.0" stroke="#000000" stroke-opacity="0.01" stroke-width="0.3"><path d="&#xA;M 429.00 251.00 &#xA;C 313.67 251.00 198.33 251.00 83.00 251.00&#xA;C 81.27 266.89 82.09 287.31 84.67 302.33 C 87.26 317.35 91.70 331.56 97.23 344.77 C 102.76 357.98 109.57 367.61 117.08 378.92 C 124.59 390.23 132.54 399.10 142.25 408.75 C 151.96 418.41 159.76 426.33 170.25 434.75 C 180.73 443.17 191.09 449.80 202.30 457.70 C 213.52 465.59 225.10 468.79 236.92 477.08 C 248.75 485.36 263.98 484.99 275.77 476.77 C 287.56 468.55 299.07 465.15 310.25 457.25 C 321.44 449.36 331.91 442.82 342.30 434.30 C 352.70 425.78 360.52 417.87 370.25 408.25 C 379.97 398.63 387.80 389.55 395.25 378.25 C 402.69 366.94 409.75 357.30 415.03 344.02 C 420.30 330.75 425.12 316.59 427.67 301.67 C 430.22 286.75 430.39 266.63 429.00 251.00 Z"></path>
</g>
<g fill="#000000" fill-opacity="0.00" stroke="None"><path d="&#xA;M 0.00 512.00 &#xA;L 254.00 512.00&#xA;C 249.28 510.06 246.87 505.40 248.00 500.00&#xA;C 237.08 496.02 226.21 490.48 215.92 485.08 C 205.64 479.67 195.61 473.28 185.92 467.08 C 176.23 460.88 167.12 454.07 158.25 446.75 C 149.38 439.43 141.13 432.34 132.75 424.25 C 124.37 416.16 117.58 407.86 110.25 398.75 C 102.92 389.65 97.34 380.15 91.23 369.77 C 85.12 359.39 80.34 348.68 76.22 336.78 C 72.11 324.87 68.44 311.24 67.00 298.00 C 65.57 284.76 64.28 266.85 66.33 253.33 C 68.38 239.81 53.51 236.79 50.08 223.92 C 46.64 211.06 48.33 194.77 52.98 182.98 C 57.62 171.18 63.10 162.49 71.25 153.25 C 79.40 144.01 87.43 137.82 97.23 131.23 C 107.03 124.64 116.79 118.81 127.69 113.69 C 138.60 108.58 150.52 104.15 162.07 100.07 C 173.63 95.99 187.34 92.49 199.07 89.07 C 210.81 85.66 229.39 87.30 230.93 72.93 C 232.46 58.55 234.95 44.34 236.93 30.93 C 238.91 17.52 241.78 6.23 254.00 0.00&#xA;L 0.00 0.00&#xA;L 0.00 512.00 Z"></path>
</g>
<g fill="#000000" fill-opacity="0.98" stroke="None"><path d="&#xA;M 254.00 512.00 &#xA;L 259.00 512.00&#xA;C 262.92 509.33 265.02 505.15 264.00 500.00&#xA;C 275.22 496.38 286.30 490.21 296.70 484.69 C 307.09 479.18 316.85 472.90 326.70 466.70 C 336.55 460.49 345.07 453.41 354.25 446.25 C 363.43 439.08 370.83 431.59 379.75 423.75 C 388.67 415.91 393.94 406.72 401.77 397.77 C 409.60 388.82 414.67 379.49 420.92 368.92 C 427.18 358.36 431.89 347.11 435.98 334.98 C 440.06 322.84 443.57 309.45 445.00 296.00 C 446.43 282.55 446.76 265.28 445.07 251.93 C 443.39 238.58 461.00 235.05 462.78 221.78 C 464.55 208.50 463.13 192.75 458.07 180.93 C 453.01 169.10 447.72 161.03 439.25 151.75 C 430.78 142.47 422.88 136.78 412.92 130.08 C 402.96 123.38 392.35 117.51 381.32 112.68 C 370.30 107.85 358.43 102.62 346.93 99.07 C 335.42 95.53 321.10 90.75 309.78 88.22 C 298.45 85.69 276.14 84.81 281.00 71.00 C 285.86 57.19 288.39 49.32 296.75 38.75 C 305.12 28.19 311.31 16.05 295.93 12.07 C 280.54 8.10 272.83 5.16 259.00 0.00&#xA;L 254.00 0.00&#xA;C 241.78 6.23 238.91 17.52 236.93 30.93 C 234.95 44.34 232.46 58.55 230.93 72.93 C 229.39 87.30 210.81 85.66 199.07 89.07 C 187.34 92.49 173.63 95.99 162.07 100.07 C 150.52 104.15 138.60 108.58 127.69 113.69 C 116.79 118.81 107.03 124.64 97.23 131.23 C 87.43 137.82 79.40 144.01 71.25 153.25 C 63.10 162.49 57.62 171.18 52.98 182.98 C 48.33 194.77 46.64 211.06 50.08 223.92 C 53.51 236.79 68.38 239.81 66.33 253.33 C 64.28 266.85 65.57 284.76 67.00 298.00 C 68.44 311.24 72.11 324.87 76.22 336.78 C 80.34 348.68 85.12 359.39 91.23 369.77 C 97.34 380.15 102.92 389.65 110.25 398.75 C 117.58 407.86 124.37 416.16 132.75 424.25 C 141.13 432.34 149.38 439.43 158.25 446.75 C 167.12 454.07 176.23 460.88 185.92 467.08 C 195.61 473.28 205.64 479.67 215.92 485.08 C 226.21 490.48 237.08 496.02 248.00 500.00&#xA;C 246.87 505.40 249.28 510.06 254.00 512.00&#xA;M 283.00 26.00 &#xA;C 274.50 43.76 261.71 60.88 263.00 82.00&#xA;C 257.33 82.00 251.67 82.00 246.00 82.00&#xA;C 250.27 73.11 248.83 61.30 251.00 52.00 C 253.17 42.70 252.50 30.11 256.93 21.93 C 261.35 13.74 275.57 27.71 283.00 26.00&#xA;M 257.00 101.00 &#xA;C 259.83 109.49 269.42 116.84 269.78 126.22 C 270.14 135.61 281.82 147.29 288.75 136.75 C 295.68 126.22 281.32 117.99 282.00 108.00&#xA;C 289.43 110.57 294.87 115.98 301.25 120.75 C 307.62 125.52 312.60 130.96 317.75 137.25 C 322.91 143.54 326.94 149.71 330.77 157.23 C 334.61 164.75 336.82 173.60 338.99 182.01 C 341.16 190.42 342.44 203.06 342.00 212.00 C 341.56 220.94 341.86 233.75 331.00 234.00 C 320.14 234.25 309.81 233.82 299.00 234.00&#xA;C 299.08 222.90 299.90 200.44 299.00 190.00 C 298.10 179.56 301.32 155.54 287.00 157.00 C 272.67 158.47 281.91 181.51 281.00 192.00 C 280.09 202.49 283.92 222.97 280.00 234.00&#xA;C 264.00 234.00 248.00 234.00 232.00 234.00&#xA;C 229.18 189.20 229.27 136.64 257.00 101.00&#xA;M 230.00 108.00 &#xA;C 213.80 146.81 210.62 190.82 214.00 234.00&#xA;C 203.06 231.16 187.48 237.78 177.00 234.00 C 166.52 230.22 171.71 211.90 170.00 204.00 C 168.29 196.10 178.11 177.93 164.97 176.03 C 151.84 174.12 152.99 190.29 152.00 200.00 C 151.01 209.71 152.29 224.61 155.00 234.00&#xA;C 139.36 235.65 113.13 236.67 109.68 218.32 C 106.22 199.98 112.44 183.37 120.31 169.31 C 128.17 155.24 138.26 147.83 149.75 137.75 C 161.25 127.67 175.79 122.83 189.00 116.00&#xA;C 178.52 125.10 178.98 130.92 169.70 141.70 C 160.41 152.47 177.09 164.62 183.77 152.77 C 190.45 140.92 194.41 136.17 203.25 127.25 C 212.09 118.32 219.51 113.34 230.00 108.00&#xA;M 357.00 234.00 &#xA;C 366.67 191.77 353.15 146.66 323.00 116.00&#xA;C 336.19 122.81 350.77 127.59 362.23 137.77 C 373.69 147.95 383.86 155.12 391.75 169.25 C 399.65 183.37 405.62 199.86 402.22 218.22 C 398.83 236.58 372.76 235.74 357.00 234.00&#xA;M 125.00 135.00 &#xA;C 99.62 160.02 80.79 199.57 97.00 234.00&#xA;C 62.59 239.97 60.34 199.89 73.77 179.77 C 87.21 159.65 103.51 144.81 125.00 135.00&#xA;M 415.00 234.00 &#xA;C 431.23 199.58 412.35 159.98 387.00 135.00&#xA;C 401.80 141.71 411.34 149.47 423.75 161.25 C 436.16 173.03 442.66 185.94 445.99 203.01 C 449.33 220.08 434.96 238.70 415.00 234.00&#xA;M 429.00 251.00 &#xA;C 430.39 266.63 430.22 286.75 427.67 301.67 C 425.12 316.59 420.30 330.75 415.03 344.02 C 409.75 357.30 402.69 366.94 395.25 378.25 C 387.80 389.55 379.97 398.63 370.25 408.25 C 360.52 417.87 352.70 425.78 342.30 434.30 C 331.91 442.82 321.44 449.36 310.25 457.25 C 299.07 465.15 287.56 468.55 275.77 476.77 C 263.98 484.99 248.75 485.36 236.92 477.08 C 225.10 468.79 213.52 465.59 202.30 457.70 C 191.09 449.80 180.73 443.17 170.25 434.75 C 159.76 426.33 151.96 418.41 142.25 408.75 C 132.54 399.10 124.59 390.23 117.08 378.92 C 109.57 367.61 102.76 357.98 97.23 344.77 C 91.70 331.56 87.26 317.35 84.67 302.33 C 82.09 287.31 81.27 266.89 83.00 251.00&#xA;C 198.33 251.00 313.67 251.00 429.00 251.00 Z"></path>
</g>
<g fill="#000000" fill-opacity="0.00" stroke="None"><path d="&#xA;M 259.00 512.00 &#xA;L 512.00 512.00&#xA;L 512.00 0.00&#xA;L 259.00 0.00&#xA;C 272.83 5.16 280.54 8.10 295.93 12.07 C 311.31 16.05 305.12 28.19 296.75 38.75 C 288.39 49.32 285.86 57.19 281.00 71.00 C 276.14 84.81 298.45 85.69 309.78 88.22 C 321.10 90.75 335.42 95.53 346.93 99.07 C 358.43 102.62 370.30 107.85 381.32 112.68 C 392.35 117.51 402.96 123.38 412.92 130.08 C 422.88 136.78 430.78 142.47 439.25 151.75 C 447.72 161.03 453.01 169.10 458.07 180.93 C 463.13 192.75 464.55 208.50 462.78 221.78 C 461.00 235.05 443.39 238.58 445.07 251.93 C 446.76 265.28 446.43 282.55 445.00 296.00 C 443.57 309.45 440.06 322.84 435.98 334.98 C 431.89 347.11 427.18 358.36 420.92 368.92 C 414.67 379.49 409.60 388.82 401.77 397.77 C 393.94 406.72 388.67 415.91 379.75 423.75 C 370.83 431.59 363.43 439.08 354.25 446.25 C 345.07 453.41 336.55 460.49 326.70 466.70 C 316.85 472.90 307.09 479.18 296.70 484.69 C 286.30 490.21 275.22 496.38 264.00 500.00&#xA;C 265.02 505.15 262.92 509.33 259.00 512.00 Z"></path>
</g>
<g fill="#000000" fill-opacity="0.00" stroke="None"><path d="&#xA;M 283.00 26.00 &#xA;C 275.57 27.71 261.35 13.74 256.93 21.93 C 252.50 30.11 253.17 42.70 251.00 52.00 C 248.83 61.30 250.27 73.11 246.00 82.00&#xA;C 251.67 82.00 257.33 82.00 263.00 82.00&#xA;C 261.71 60.88 274.50 43.76 283.00 26.00 Z"></path>
</g>
<g fill="#000000" fill-opacity="0.00" stroke="None"><path d="&#xA;M 257.00 101.00 &#xA;C 229.27 136.64 229.18 189.20 232.00 234.00&#xA;C 248.00 234.00 264.00 234.00 280.00 234.00&#xA;C 283.92 222.97 280.09 202.49 281.00 192.00 C 281.91 181.51 272.67 158.47 287.00 157.00 C 301.32 155.54 298.10 179.56 299.00 190.00 C 299.90 200.44 299.08 222.90 298.00 234.00&#xA;C 309.81 233.82 320.14 234.25 331.00 234.00 C 341.86 233.75 341.56 220.94 342.00 212.00 C 342.44 203.06 341.16 190.42 338.99 182.01 C 336.82 173.60 334.61 164.75 330.77 157.23 C 326.94 149.71 322.91 143.54 317.75 137.25 C 312.60 130.96 307.62 125.52 301.25 120.75 C 294.87 115.98 289.43 110.57 282.00 108.00&#xA;C 281.32 117.99 295.68 126.22 288.75 136.75 C 281.82 147.29 270.14 135.61 269.78 126.22 C 269.42 116.84 259.83 109.49 257.00 101.00 Z"></path>
</g>
<g fill="#000000" fill-opacity="0.00" stroke="None"><path d="&#xA;M 230.00 108.00 &#xA;C 219.51 113.34 212.09 118.32 203.25 127.25 C 194.41 136.17 190.45 140.92 183.77 152.77 C 177.09 164.62 160.41 152.47 169.70 141.70 C 178.98 130.92 178.52 125.10 189.00 116.00&#xA;C 175.79 122.83 161.25 127.67 149.75 137.75 C 138.26 147.83 128.17 155.24 120.31 169.31 C 112.44 183.37 106.22 199.98 109.68 218.32 C 113.13 236.67 139.36 235.65 155.00 234.00&#xA;C 152.29 224.61 151.01 209.71 152.00 200.00 C 152.99 190.29 151.84 174.12 164.97 176.03 C 178.11 177.93 168.29 196.10 170.00 204.00 C 171.71 211.90 166.52 230.22 177.00 234.00 C 187.48 237.78 203.06 231.16 214.00 234.00&#xA;C 210.62 190.82 213.80 146.81 230.00 108.00 Z"></path>
</g>
<g fill="#000000" fill-opacity="0.00" stroke="None"><path d="&#xA;M 357.00 234.00 &#xA;C 372.76 235.74 398.83 236.58 402.22 218.22 C 405.62 199.86 399.65 183.37 391.75 169.25 C 383.86 155.12 373.69 147.95 362.23 137.77 C 350.77 127.59 336.19 122.81 323.00 116.00&#xA;C 353.15 146.66 366.67 191.77 357.00 234.00 Z"></path>
</g>
<g fill="#000000" fill-opacity="0.00" stroke="None"><path d="&#xA;M 125.00 135.00 &#xA;C 103.51 144.81 87.21 159.65 73.77 179.77 C 60.34 199.89 62.59 239.97 97.00 234.00&#xA;C 80.79 199.57 99.62 160.02 125.00 135.00 Z"></path>
</g>
<g fill="#000000" fill-opacity="0.00" stroke="None"><path d="&#xA;M 415.00 234.00 &#xA;C 434.96 238.70 449.33 220.08 445.99 203.01 C 442.66 185.94 436.16 173.03 423.75 161.25 C 411.34 149.47 401.80 141.71 387.00 135.00&#xA;C 412.35 159.98 431.23 199.58 415.00 234.00 Z"></path>
</g>
<g fill="#000000" fill-opacity="0.01" stroke="None"><path d="&#xA;M 429.00 251.00 &#xA;C 313.67 251.00 198.33 251.00 83.00 251.00&#xA;C 81.27 266.89 82.09 287.31 84.67 302.33 C 87.26 317.35 91.70 331.56 97.23 344.77 C 102.76 357.98 109.57 367.61 117.08 378.92 C 124.59 390.23 132.54 399.10 142.25 408.75 C 151.96 418.41 159.76 426.33 170.25 434.75 C 180.73 443.17 191.09 449.80 202.30 457.70 C 213.52 465.59 225.10 468.79 236.92 477.08 C 248.75 485.36 263.98 484.99 275.77 476.77 C 287.56 468.55 299.07 465.15 310.25 457.25 C 321.44 449.36 331.91 442.82 342.30 434.30 C 352.70 425.78 360.52 417.87 370.25 408.25 C 379.97 398.63 387.80 389.55 395.25 378.25 C 402.69 366.94 409.75 357.30 415.03 344.02 C 420.30 330.75 425.12 316.59 427.67 301.67 C 430.22 286.75 430.39 266.63 429.00 251.00 Z"></path>
</g>
</svg>