<?xml version="1.0" encoding="UTF-8"?>
<svg version="1.1" xmlns="http://www.w3.org/2000/svg" width="512" height="512">
<path d="M0 0 C0.65242676 0.17160645 1.30485352 0.34321289 1.97705078 0.52001953 C22.77598462 6.12686293 41.82589037 15.71483748 58 30 C58.97582031 30.83144531 59.95164062 31.66289062 60.95703125 32.51953125 C86.06346042 54.28920893 103.3578025 87.77649723 106 121 C106.77131227 136.80854803 106.94648421 152.59444719 103 168 C102.82839355 168.68771484 102.65678711 169.37542969 102.47998047 170.08398438 C93.71496831 204.58006439 71.8751181 235.68245616 41.44287109 254.57666016 C13.25557461 271 13.25557461 271 0 271 C0.00368717 271.621381 0.00737434 272.24276199 0.01117325 272.88297272 C0.09962853 288.02393663 0.16576012 303.16482091 0.20724869 318.30597687 C0.22784714 325.6282328 0.25591537 332.95031594 0.30175781 340.27246094 C0.34170926 346.65673235 0.36745256 353.04087856 0.37635398 359.42527151 C0.38155479 362.80375771 0.39372085 366.18188586 0.42292023 369.56025696 C0.451994 373.33791253 0.45595414 377.11482851 0.45410156 380.89257812 C0.46848267 382.00460602 0.48286377 383.11663391 0.49768066 384.26235962 C0.46010439 391.35250705 -0.3994954 397.22243976 -5.44744492 402.51862335 C-10.99084082 407.36156441 -15.1833917 408.32167338 -22.421875 408.37109375 C-23.24069153 408.38012222 -24.05950806 408.3891507 -24.90313721 408.39845276 C-26.63460647 408.41294174 -28.36613032 408.42183864 -30.09765625 408.42553711 C-32.72751987 408.43739861 -35.35500874 408.48656361 -37.984375 408.53710938 C-39.67186363 408.54657873 -41.35936658 408.55381131 -43.046875 408.55859375 C-43.82424011 408.57812607 -44.60160522 408.59765839 -45.40252686 408.61778259 C-51.39514165 408.56904343 -55.31836145 406.70181951 -60 403 C-65.96543048 396.72059949 -66.51121209 390.68808875 -66.37890625 382.2734375 C-66 379 -66 379 -63.875 375.625 C-60.44553149 373.68660475 -58.86752888 373.19426482 -55 374 C-52.1875 375.8125 -52.1875 375.8125 -50 379 C-49.58393635 381.8874817 -49.43754071 384.65741183 -49.43359375 387.57421875 C-49.29050781 388.37472656 -49.14742188 389.17523438 -49 390 C-45.87525389 392.10688102 -43.20624243 392.25690736 -39.5 392.265625 C-38.448125 392.26820313 -37.39625 392.27078125 -36.3125 392.2734375 C-34.6728125 392.26183594 -34.6728125 392.26183594 -33 392.25 C-31.906875 392.25773437 -30.81375 392.26546875 -29.6875 392.2734375 C-28.635625 392.27085937 -27.58375 392.26828125 -26.5 392.265625 C-25.5409375 392.26336914 -24.581875 392.26111328 -23.59375 392.25878906 C-20.64689969 392.1202868 -20.64689969 392.1202868 -17 390 C-16.505 333.075 -16.505 333.075 -16 275 C-27.22 275 -38.44 275 -50 275 C-49.94199219 280.35605469 -49.88398438 285.71210938 -49.82421875 291.23046875 C-49.7986679 294.62568137 -49.77459829 298.02077528 -49.75585938 301.41601562 C-49.72598093 306.80404305 -49.69065328 312.19164523 -49.62280273 317.5793457 C-49.56843594 321.92359892 -49.53856973 326.26739609 -49.52561378 330.61196327 C-49.51638219 332.26860038 -49.49835454 333.92521279 -49.47134972 335.5816555 C-49.43499502 337.90418601 -49.43005699 340.2248377 -49.43237305 342.54760742 C-49.41439667 343.23093643 -49.39642029 343.91426544 -49.37789917 344.61830139 C-49.41876073 348.41079267 -49.9431324 349.92911553 -52.34797668 352.92671204 C-55 355 -55 355 -58 355.625 C-62.08973514 354.77297185 -63.41245803 353.25061674 -66 350 C-66.47034074 347.18360133 -66.6375656 344.98448941 -66.56762695 342.18041992 C-66.56835709 341.40915771 -66.56908722 340.63789551 -66.56983948 339.84326172 C-66.56636796 337.30493778 -66.52753062 334.76847033 -66.48828125 332.23046875 C-66.4789515 330.4664256 -66.47183615 328.70236947 -66.46684265 326.93830872 C-66.44778548 322.30359904 -66.39869609 317.66967742 -66.34332275 313.03527832 C-66.29210241 308.30292419 -66.26932268 303.57044227 -66.24414062 298.83789062 C-66.19057581 289.55824821 -66.10527877 280.27918973 -66 271 C-67.0191172 270.80417076 -67.0191172 270.80417076 -68.05882263 270.60438538 C-69.40146935 270.34207375 -69.40146935 270.34207375 -70.77124023 270.07446289 C-71.6569017 269.90266006 -72.54256317 269.73085724 -73.45506287 269.55384827 C-92.10338221 265.49546144 -109.4196439 253.78376761 -124 242 C-124.8353125 241.32710937 -125.670625 240.65421875 -126.53125 239.9609375 C-131.17842512 236.04658615 -135.13238087 231.675144 -139 227 C-139.63808594 226.24976563 -140.27617187 225.49953125 -140.93359375 224.7265625 C-146.32649188 218.22985481 -150.8481781 211.34506731 -155 204 C-155.34063477 203.39945801 -155.68126953 202.79891602 -156.03222656 202.18017578 C-162.10195171 191.2826495 -165.94473556 180.0699052 -169 168 C-169.17934082 167.31953613 -169.35868164 166.63907227 -169.54345703 165.93798828 C-178.03531991 132.53553656 -170.78640987 95.13700981 -154.17578125 65.4609375 C-148.84528918 56.63915044 -148.84528918 56.63915044 -144.90234375 55.2734375 C-141.61462866 55.44337904 -139.30482861 55.80948212 -136.5 57.5625 C-134.42768216 60.93001649 -134.66561785 63.0812043 -135 67 C-136.5390625 70.21875 -136.5390625 70.21875 -138.625 73.5 C-154.22383545 99.26553272 -159.66080463 132.59876934 -153.03125 162.03515625 C-147.16665591 185.31317306 -136.52280222 204.51385419 -120 222 C-119.35289062 222.69996094 -118.70578125 223.39992188 -118.0390625 224.12109375 C-112.89230925 229.50942929 -107.11904105 233.77066281 -101 238 C-101.47050781 237.05640625 -101.94101563 236.1128125 -102.42578125 235.140625 C-112.59606745 214.33157664 -115.39413246 192.08871045 -107.93359375 169.81640625 C-99.63579949 148.75698781 -85.27987294 132.64545367 -64.58056641 123.25415039 C-44.95667922 114.82338971 -23.16377306 114.98353446 -3.31640625 122.58984375 C5.84852015 126.48682659 13.50223869 131.45720312 21 138 C21.61488281 138.51949219 22.22976563 139.03898438 22.86328125 139.57421875 C36.93421125 152.41596406 45.16447126 172.96048259 46.203125 191.65625 C46.40695477 208.37029133 42.62147541 223.08938096 35 238 C62.7726894 217.86366382 82.35323897 190.33258209 88.22436523 156.02075195 C92.77937816 123.64382286 85.87225976 90.17708569 66.26171875 63.69750977 C64.23787466 61.07489291 62.1319966 58.53598958 60 56 C59.29359375 55.12988281 58.5871875 54.25976562 57.859375 53.36328125 C38.87031016 30.96321773 9.79402709 17.51802345 -19 14 C-23.75393841 13.71327925 -28.48827206 13.66579573 -33.25 13.6875 C-35.16643311 13.69487183 -35.16643311 13.69487183 -37.12158203 13.70239258 C-46.45249612 13.81809449 -54.99814339 14.49161748 -64 17 C-65.84464844 17.51046875 -65.84464844 17.51046875 -67.7265625 18.03125 C-82.11223395 22.43928183 -94.69002986 29.46031168 -107 38 C-110.46315053 40.37157588 -112.90786498 42.0210026 -117.25 41.9375 C-121.56855576 40.46526508 -121.56855576 40.46526508 -123 38 C-123.87629839 31.20868744 -123.87629839 31.20868744 -121.1875 27.5 C-120.14898121 26.636965 -119.08167674 25.80828592 -118 25 C-117.27941406 24.41734375 -116.55882812 23.8346875 -115.81640625 23.234375 C-100.87452551 11.68113997 -84.03531905 5.13737218 -66 0 C-65.26910156 -0.20915039 -64.53820312 -0.41830078 -63.78515625 -0.63378906 C-44.46471042 -5.82735445 -19.22794426 -5.10966715 0 0 Z M-82.8984375 157.078125 C-92.9233178 171.01606266 -98.37562036 187.75925076 -95.69091797 204.98291016 C-92.19827488 223.58803698 -82.99362637 237.51552023 -68 249 C-67.34 249 -66.68 249 -66 249 C-65.9906543 247.81035645 -65.98130859 246.62071289 -65.97167969 245.39501953 C-65.93151558 240.94038779 -65.86568574 236.48642764 -65.79248047 232.03222656 C-65.76442306 230.11206757 -65.74313351 228.19179636 -65.72900391 226.27148438 C-65.54575358 202.76657552 -65.54575358 202.76657552 -57 193 C-57 192.34 -57 191.68 -57 191 C-56.443125 190.72285156 -55.88625 190.44570313 -55.3125 190.16015625 C-53.72499827 189.36372379 -52.1418596 188.55855278 -50.5625 187.74609375 C-49.716875 187.31425781 -48.87125 186.88242187 -48 186.4375 C-47.154375 186.00308594 -46.30875 185.56867188 -45.4375 185.12109375 C-37.75137426 181.58596861 -28.94524602 182.02628695 -21.0625 184.75 C-17.15747645 186.32551383 -14.145623 188.15879213 -11 191 C-10.34 191 -9.68 191 -9 191 C-8.72285156 191.55558594 -8.44570313 192.11117187 -8.16015625 192.68359375 C-7.35959483 194.2820211 -6.55463202 195.87824901 -5.74609375 197.47265625 C-5.09833984 198.75462891 -5.09833984 198.75462891 -4.4375 200.0625 C-3.78587891 201.34833984 -3.78587891 201.34833984 -3.12109375 202.66015625 C-1.56358498 205.91084528 -0.87148683 208.53811169 -0.79467773 212.10424805 C-0.7647599 213.3351844 -0.7647599 213.3351844 -0.73423767 214.59098816 C-0.71752518 215.47232925 -0.70081268 216.35367035 -0.68359375 217.26171875 C-0.66281265 218.16751175 -0.64203156 219.07330475 -0.62062073 220.00654602 C-0.55523442 222.90012016 -0.49629096 225.79378507 -0.4375 228.6875 C-0.3943044 230.64909793 -0.35068977 232.61068668 -0.30664062 234.57226562 C-0.19956418 239.38141739 -0.09826586 244.19066046 0 249 C4.56170744 247.33338839 7.5078361 244.99980191 10.875 241.5625 C11.4016626 241.02536377 11.9283252 240.48822754 12.47094727 239.93481445 C24.89525735 226.93351811 30.47705007 210.83614279 30.26953125 192.9140625 C29.09494164 175.85697862 21.68405659 160.57004854 9 149 C-19.6893245 125.72023603 -58.5651835 128.58609668 -82.8984375 157.078125 Z M-47.80078125 206.28125 C-49.92208562 209.32155594 -50.12335273 211.97625245 -50.11352539 215.56323242 C-50.11344986 216.48396042 -50.11337433 217.40468842 -50.11329651 218.35331726 C-50.10813522 219.34402725 -50.10297394 220.33473724 -50.09765625 221.35546875 C-50.0962413 222.37224197 -50.09482635 223.3890152 -50.09336853 224.43659973 C-50.08776707 227.68692964 -50.07521432 230.93719088 -50.0625 234.1875 C-50.05748519 236.38997296 -50.05292225 238.59244701 -50.04882812 240.79492188 C-50.03779717 246.19663804 -50.02105762 251.59831412 -50 257 C-43.8639544 258.67672525 -43.8639544 258.67672525 -37.5625 259.265625 C-36.81226563 259.26820313 -36.06203125 259.27078125 -35.2890625 259.2734375 C-34.53367188 259.26570313 -33.77828125 259.25796875 -33 259.25 C-31.86691406 259.26160156 -31.86691406 259.26160156 -30.7109375 259.2734375 C-29.96070313 259.27085937 -29.21046875 259.26828125 -28.4375 259.265625 C-27.77621094 259.26336914 -27.11492187 259.26111328 -26.43359375 259.25878906 C-22.85015981 258.87772566 -19.48323444 257.92015139 -16 257 C-15.92377898 250.55883383 -15.87132842 244.1177845 -15.83520508 237.67626953 C-15.82014194 235.48612115 -15.79968741 233.29600281 -15.77368164 231.10595703 C-15.73719011 227.95337497 -15.72024861 224.80119263 -15.70703125 221.6484375 C-15.69154739 220.67321136 -15.67606354 219.69798523 -15.66011047 218.69320679 C-15.65857321 212.44830869 -16.31208262 207.9139468 -20.71875 203.13671875 C-21.3065625 202.65847656 -21.894375 202.18023437 -22.5 201.6875 C-23.0878125 201.19636719 -23.675625 200.70523438 -24.28125 200.19921875 C-33.04884923 194.08182565 -41.92925871 199.25391594 -47.80078125 206.28125 Z " fill="#000000" transform="translate(289,104)"></path>
<path d="M0 0 C3.21142855 2.37366458 4.71584605 3.93442268 5.75 7.8125 C4.5956189 12.71861969 1.48472275 15.4882639 -2 19 C-2.64453125 19.6703125 -3.2890625 20.340625 -3.953125 21.03125 C-9.65349157 26.87532329 -9.65349157 26.87532329 -14.375 27.3125 C-18 27 -18 27 -20.4375 25.5 C-22.60844627 22.02648597 -22.87909955 18.92910016 -22 15 C-20.08457325 12.10123118 -17.69173304 9.88561943 -15.125 7.5625 C-14.47402344 6.93923828 -13.82304688 6.31597656 -13.15234375 5.67382812 C-8.77177351 1.52357652 -6.35647626 -0.74782074 0 0 Z " fill="#000000" transform="translate(106,385)"></path>
<path d="M0 0 C3.75 0.75 3.75 0.75 6.25 2.3125 C8.43071663 5.85616452 8.50331723 7.64099694 7.75 11.75 C5.74156552 14.7508374 3.30967598 17.21512708 0.75 19.75 C0.10546875 20.41902344 -0.5390625 21.08804688 -1.203125 21.77734375 C-6.8331016 27.56108021 -6.8331016 27.56108021 -11.0625 28.125 C-14.25 27.75 -14.25 27.75 -17.125 25.625 C-19.25 22.75 -19.25 22.75 -20 19.9375 C-18.83935507 15.00475904 -15.72733194 12.29991382 -12.25 8.75 C-11.60160156 7.99460937 -10.95320313 7.23921875 -10.28515625 6.4609375 C-4.7402465 0.24624657 -4.7402465 0.24624657 0 0 Z " fill="#000000" transform="translate(420.25,67.25)"></path>
<path d="M0 0 C2.89876882 1.91542675 5.11438057 4.30826696 7.4375 6.875 C8.06076172 7.52597656 8.68402344 8.17695312 9.32617188 8.84765625 C14.81943594 14.64576958 14.81943594 14.64576958 15.375 18.8125 C15 22 15 22 12.875 24.875 C10 27 10 27 7.1875 27.75 C2.28138031 26.5956189 -0.4882639 23.48472275 -4 20 C-4.6703125 19.35546875 -5.340625 18.7109375 -6.03125 18.046875 C-11.87532329 12.34650843 -11.87532329 12.34650843 -12.3125 7.625 C-12 4 -12 4 -10.5 1.5625 C-7.02648597 -0.60844627 -3.92910016 -0.87909955 0 0 Z " fill="#000000" transform="translate(96,68)"></path>
<path d="M0 0 C4.93274096 1.16064493 7.63758618 4.27266806 11.1875 7.75 C11.94289063 8.39839844 12.69828125 9.04679687 13.4765625 9.71484375 C18.80477889 14.46881773 18.80477889 14.46881773 19.828125 17.89453125 C20.00071448 21.21687874 19.37675978 23.44718436 17.625 26.25 C14.08133548 28.43071663 12.29650306 28.50331723 8.1875 27.75 C5.1866626 25.74156552 2.72237292 23.30967598 0.1875 20.75 C-0.48152344 20.10546875 -1.15054687 19.4609375 -1.83984375 18.796875 C-7.62358021 13.1668984 -7.62358021 13.1668984 -8.1875 8.9375 C-7.8125 5.75 -7.8125 5.75 -5.6875 2.875 C-2.8125 0.75 -2.8125 0.75 0 0 Z " fill="#000000" transform="translate(408.8125,384.25)"></path>
<path d="M0 0 C1.04542969 -0.01998047 2.09085937 -0.03996094 3.16796875 -0.06054688 C4.17472656 -0.05990234 5.18148438 -0.05925781 6.21875 -0.05859375 C7.13591797 -0.06044678 8.05308594 -0.0622998 8.99804688 -0.06420898 C12.24445246 0.58678277 13.43793978 1.90546128 15.5 4.4375 C16.06640625 6.4375 16.06640625 6.4375 16.0625 8.4375 C16.08441406 9.0975 16.10632813 9.7575 16.12890625 10.4375 C15.07366885 13.79328603 13.54396337 14.71005079 10.5 16.4375 C6.96538852 16.96689018 3.50382728 16.90525868 -0.0625 16.8125 C-1.00802734 16.81121094 -1.95355469 16.80992187 -2.92773438 16.80859375 C-10.76879048 16.70884887 -10.76879048 16.70884887 -14.5 14.4375 C-16.5815902 11.76116974 -16.49587591 10.31996332 -16.375 6.875 C-15.5 3.4375 -15.5 3.4375 -13.77539062 1.74975586 C-9.53503093 -0.69573055 -4.77793769 -0.03240278 0 0 Z " fill="#000000" transform="translate(480.5,231.5625)"></path>
<path d="M0 0 C1.00675781 -0.00064453 2.01351563 -0.00128906 3.05078125 -0.00195312 C4.09621094 0.01802734 5.14164063 0.03800781 6.21875 0.05859375 C7.26417969 0.05150391 8.30960938 0.04441406 9.38671875 0.03710938 C18.25967098 0.11095597 18.25967098 0.11095597 21.71875 3.49609375 C22.59156149 6.92499601 23.04797829 9.38868952 22.03125 12.80859375 C19.97210231 15.45606935 17.71933177 16.36984072 14.41625977 16.78662109 C11.70408899 16.83576515 8.99389905 16.86739552 6.28125 16.87109375 C5.33958984 16.89558594 4.39792969 16.92007813 3.42773438 16.9453125 C-0.90949754 16.96367763 -3.57790631 16.89524129 -7.40625 14.72265625 C-9.37857718 12.38051772 -9.94365694 11.50505581 -9.84375 8.49609375 C-9.84503906 7.83609375 -9.84632812 7.17609375 -9.84765625 6.49609375 C-8.4168187 1.44375704 -4.89227751 -0.00988426 0 0 Z " fill="#000000" transform="translate(25.28125,231.50390625)"></path>
<path d="M0 0 C0.66 -0.0103125 1.32 -0.020625 2 -0.03125 C4.91065063 0.74189157 6.09214945 2.20354939 8 4.5 C8.51757812 7.00195312 8.51757812 7.00195312 8.53125 9.78125 C8.53640625 10.78800781 8.5415625 11.79476563 8.546875 12.83203125 C8.53140625 13.87746094 8.5159375 14.92289063 8.5 16 C8.51546875 17.04542969 8.5309375 18.09085938 8.546875 19.16796875 C8.54171875 20.17472656 8.5365625 21.18148438 8.53125 22.21875 C8.52673828 23.13591797 8.52222656 24.05308594 8.51757812 24.99804688 C7.8459381 28.24472941 6.53848924 29.43411429 4 31.5 C0.95492506 32.59310383 -0.5634877 32.62181739 -3.6875 31.75 C-6 30.5 -6 30.5 -8 27.5 C-8.46189533 23.70275459 -8.37032435 19.88484551 -8.375 16.0625 C-8.39949219 15.01255859 -8.42398438 13.96261719 -8.44921875 12.88085938 C-8.45308594 11.86958984 -8.45695313 10.85832031 -8.4609375 9.81640625 C-8.47326416 8.43110718 -8.47326416 8.43110718 -8.48583984 7.01782227 C-7.60748467 2.46582384 -4.61207175 -0.07206362 0 0 Z " fill="#000000" transform="translate(256,-0.5)"></path>
<path d="M0 0 C2.43582126 1.67957351 3.79678766 2.97212967 4.38232422 5.93383789 C4.53990065 8.28121008 4.54534034 10.58546965 4.5 12.9375 C4.51546875 13.73607422 4.5309375 14.53464844 4.546875 15.35742188 C4.52052322 19.33324625 4.27210103 21.53754759 2.21875 25.02734375 C-0.10584029 27.09410096 -0.94668298 27.6846351 -4 27.625 C-4.66 27.63789062 -5.32 27.65078125 -6 27.6640625 C-9.27123205 26.57791123 -10.26771025 24.9441328 -12 22 C-12.56613989 18.96210504 -12.5597069 16.01986893 -12.5 12.9375 C-12.51546875 12.13505859 -12.5309375 11.33261719 -12.546875 10.50585938 C-12.52117913 6.63541873 -12.49456243 4.64759302 -10.09375 1.50390625 C-6.31362014 -1.21129897 -4.53908847 -1.180163 0 0 Z " fill="#000000" transform="translate(260,54)"></path>
<path d="M0 0 C2.4375 1.5625 2.4375 1.5625 4 4 C4.6875 7.25 4.6875 7.25 4 11 C1.99488052 14.02204253 -0.40002272 16.48423251 -3 19 C-3.51304687 19.53367187 -4.02609375 20.06734375 -4.5546875 20.6171875 C-7.22006244 23.16730298 -8.96086511 23.99392734 -12.625 24.5625 C-16 24 -16 24 -18.4375 22.5 C-20.13464538 19.78456739 -20.97935119 17.60492803 -20.86328125 14.3671875 C-17.79485721 5.95331885 -8.70319649 -0.75027556 0 0 Z " fill="#000000" transform="translate(142,350)"></path>
<path d="M0 0 C3.9375 0.5625 3.9375 0.5625 6.4375 2.125 C8.61821663 5.66866452 8.69081723 7.45349694 7.9375 11.5625 C5.93257624 14.58424756 3.53991885 17.04945715 0.9375 19.5625 C0.41285156 20.09617187 -0.11179687 20.62984375 -0.65234375 21.1796875 C-3.07007814 23.44992086 -4.86490121 24.52217372 -8.125 25.1875 C-12.1549485 24.33006415 -13.63179333 22.85110314 -16.0625 19.5625 C-16.8125 16.75 -16.8125 16.75 -16.0625 13.5625 C-13.98834459 10.62748343 -11.56982281 8.12776515 -9.0625 5.5625 C-8.258125 4.5725 -7.45375 3.5825 -6.625 2.5625 C-3.97852352 0.49695738 -3.204964 0.18330975 0 0 Z " fill="#000000" transform="translate(382.0625,105.4375)"></path>
<path d="M0 0 C5.46073045 1.9914545 11.77067982 8.67026588 14.3671875 13.86328125 C14.90753896 17.91591723 14.70918145 19.40058356 12.2421875 22.73828125 C9.3671875 24.86328125 9.3671875 24.86328125 6.5546875 25.61328125 C1.64485924 24.45802754 -1.15728226 21.38876778 -4.6328125 17.86328125 C-5.16777344 17.35023437 -5.70273438 16.8371875 -6.25390625 16.30859375 C-8.79919149 13.64073104 -9.626898 11.90139692 -10.1953125 8.23828125 C-9.6328125 4.86328125 -9.6328125 4.86328125 -8.1328125 2.42578125 C-5.41737989 0.72863587 -3.23774053 -0.11606994 0 0 Z " fill="#000000" transform="translate(131.6328125,105.13671875)"></path>
<path d="M0 0 C3.02204253 2.00511948 5.48423251 4.40002272 8 7 C8.53367187 7.51304687 9.06734375 8.02609375 9.6171875 8.5546875 C12.16730298 11.22006244 12.99392734 12.96086511 13.5625 16.625 C13 20 13 20 11.4375 22.4375 C7.90550465 24.70159958 6.13858566 24.7587407 2 24 C-1.02204253 21.99488052 -3.48423251 19.59997728 -6 17 C-6.53367187 16.48695313 -7.06734375 15.97390625 -7.6171875 15.4453125 C-10.16730298 12.77993756 -10.99392734 11.03913489 -11.5625 7.375 C-11 4 -11 4 -9.4375 1.5625 C-5.90550465 -0.70159958 -4.13858566 -0.7587407 0 0 Z " fill="#000000" transform="translate(377,350)"></path>
<path d="M0 0 C0.85464844 -0.01546875 1.70929688 -0.0309375 2.58984375 -0.046875 C8.81346207 -0.00803807 8.81346207 -0.00803807 12.0390625 2.37890625 C13.76586078 4.88599574 14.35150569 6.45586665 14.5 9.5 C13.79108355 12.27121883 13.29676765 13.92544644 10.9453125 15.62109375 C7.35787108 16.9105096 3.82716443 16.86857017 0.0625 16.875 C-0.68837891 16.89949219 -1.43925781 16.92398438 -2.21289062 16.94921875 C-6.08551725 16.96965477 -8.09213096 16.74111009 -11.5 14.7265625 C-13.60489088 12.38322695 -14.16491154 11.58439477 -14.0625 8.5 C-14.06378906 7.84 -14.06507813 7.18 -14.06640625 6.5 C-12.052115 -0.61253186 -6.18570996 -0.11195855 0 0 Z " fill="#000000" transform="translate(428.5,231.5)"></path>
<path d="M0 0 C1.29550781 -0.04350586 1.29550781 -0.04350586 2.6171875 -0.08789062 C8.95213966 -0.15143567 8.95213966 -0.15143567 12.19140625 2.08203125 C13.68149531 4.40039869 14.19282864 5.58423481 14.1875 8.3125 C14.20941406 8.9725 14.23132813 9.6325 14.25390625 10.3125 C13.22379696 13.5883755 11.54447603 14.58666391 8.625 16.3125 C5.75027024 16.82629689 2.97407078 16.78246969 0.0625 16.6875 C-0.69224609 16.68621094 -1.44699219 16.68492187 -2.22460938 16.68359375 C-9.38488244 16.57003876 -9.38488244 16.57003876 -12.375 14.3125 C-14.20566825 10.17359787 -14.71431409 8.22864805 -13.125 3.9375 C-9.84634549 -0.98048177 -5.44094197 0.06036548 0 0 Z " fill="#000000" transform="translate(83.375,231.6875)"></path>
</svg>