<?xml version="1.0" encoding="UTF-8"?>
<svg version="1.1" xmlns="http://www.w3.org/2000/svg" width="512" height="512">
<path d="M0 0 C0.72510773 0.00054382 1.45021545 0.00108765 2.19729614 0.00164795 C14.17731791 0.04283849 25.45848713 1.02275687 37 4.375 C37.75732422 4.58930664 38.51464844 4.80361328 39.29492188 5.02441406 C61.37624152 11.42520166 81.7157053 22.17674087 99 37.375 C99.78117188 38.04660156 100.56234375 38.71820313 101.3671875 39.41015625 C106.67520552 44.0655491 111.72913992 48.97673326 116.75 53.9375 C117.37616211 54.55061035 118.00232422 55.1637207 118.64746094 55.79541016 C122.43956136 59.58045457 125.69258968 63.48081199 128.74707031 67.88647461 C129.16053711 68.37768799 129.57400391 68.86890137 130 69.375 C130.66 69.375 131.32 69.375 132 69.375 C133.2252906 67.97364896 134.37948516 66.50989917 135.5 65.0234375 C147.09428366 50.185888 161.26257765 36.74318413 177 26.375 C177.61504395 25.96894531 178.23008789 25.56289062 178.86376953 25.14453125 C194.13339752 15.22950094 210.42346373 8.07605623 228 3.375 C229.26070313 3.03339844 230.52140625 2.69179687 231.8203125 2.33984375 C241.65452861 0.16904656 251.53297422 0.06478623 261.5625 0 C262.25506897 -0.0080365 262.94763794 -0.016073 263.66119385 -0.02435303 C297.04529159 -0.31784612 326.97869395 13.5080386 350.6875 36.625 C364.5641912 50.66674067 374.52420207 67.28416281 380.875 85.9375 C381.14924805 86.73881348 381.42349609 87.54012695 381.70605469 88.36572266 C385.76268898 101.01183913 387.51274815 113.56899659 387.39111328 126.80224609 C387.37499733 128.87534288 387.39110168 130.94649168 387.41015625 133.01953125 C387.43115189 145.79994602 385.5233833 158.2668688 381.3125 170.375 C381.05903809 171.11572754 380.80557617 171.85645508 380.54443359 172.61962891 C376.09354799 185.16594651 369.7957891 196.60471695 362 207.375 C361.49855469 208.13167969 360.99710937 208.88835937 360.48046875 209.66796875 C358.45999793 212.45655245 357.14422288 214.09288988 353.734375 214.93359375 C350.14344752 215.12472376 347.84076229 215.01194113 344.9375 212.8125 C343.64878798 209.46184875 343.70654413 206.9529042 344 203.375 C345.65234375 200.4453125 345.65234375 200.4453125 347.9375 197.5 C356.73852021 185.5788739 363.07201804 172.66977356 367 158.375 C367.31839844 157.3025 367.63679688 156.23 367.96484375 155.125 C372.32452631 137.76663257 372.10854922 116.53395765 367 99.375 C366.6596875 98.16714844 366.319375 96.95929688 365.96875 95.71484375 C357.38774021 67.68161246 338.83046312 43.61148287 313 29.375 C284.55638627 14.75716072 253.50639056 13.14344579 223.14160156 22.67626953 C199.69814086 30.32505938 180.6731275 43.4454581 163 60.375 C162.49049805 60.85727051 161.98099609 61.33954102 161.45605469 61.83642578 C154.10974252 68.8165738 147.82851495 76.07378173 142 84.375 C142.4125 85.07882813 142.825 85.78265625 143.25 86.5078125 C147.88572673 94.4340774 152.45576326 102.39602847 157 110.375 C160.56815609 106.9513291 163.56994668 103.41615118 166.5 99.4375 C175.04815917 88.1140069 184.59106609 77.86388509 196 69.375 C196.99386719 68.62734375 197.98773438 67.8796875 199.01171875 67.109375 C220.77578976 51.36857088 247.13253445 42.27505704 274.18579102 46.14770508 C282.88590979 47.54775765 296.47677043 49.85360546 302 57.375 C302.75471698 64.16745283 302.75471698 64.16745283 300.4375 67.875 C297.09990799 69.92890278 294.74498716 70.15275475 291 69.375 C287.74336159 68.20914926 284.54990473 66.91899813 281.34375 65.62109375 C263.51553835 58.97716908 243.87195494 63.09442539 226.91552734 70.49072266 C217.39065313 74.88775228 208.91666013 80.47900018 201 87.375 C200.16855469 88.08527344 199.33710938 88.79554688 198.48046875 89.52734375 C189.6764724 97.22238817 182.38242449 105.60956786 175.625 115.125 C175.11275879 115.84623047 174.60051758 116.56746094 174.07275391 117.31054688 C171.36039605 121.20309098 168.99792472 125.05295876 167 129.375 C173.7685151 139.57359432 180.73645029 149.32976315 189 158.375 C189.47018555 158.89046387 189.94037109 159.40592773 190.42480469 159.93701172 C207.07564987 177.9350309 231.32508584 193.55061549 256.46875 194.61328125 C275.86534794 195.04273333 291.24005899 190.49878041 305.68359375 176.8203125 C317.0856075 164.78378534 323.6684435 149.88630065 325 133.375 C325.07927734 132.41980469 325.07927734 132.41980469 325.16015625 131.4453125 C325.84295115 115.711343 320.38925092 100.65015239 311.453125 87.9453125 C309.79428842 85.01113381 309.25212287 82.72594219 309 79.375 C311.13043478 74.80978261 311.13043478 74.80978261 314 73.375 C317.3125 73 317.3125 73 321 73.375 C334.82040737 85.43526115 340.64491725 105.69335578 342 123.375 C343.40235962 145.35546267 336.24503552 167.30050568 322.01171875 184.109375 C321.34785156 184.85703125 320.68398438 185.6046875 320 186.375 C319.40832031 187.06078125 318.81664062 187.7465625 318.20703125 188.453125 C306.58140107 201.04549202 288.44340376 210.46751971 271.31884766 211.54345703 C237.18104816 212.89137279 210.10447652 201.52167299 185.11572266 178.65039062 C176.50724309 170.59061341 168.91958463 161.91559926 162 152.375 C161.58830566 151.81296875 161.17661133 151.2509375 160.75244141 150.671875 C154.4240139 141.92987297 149.44215735 132.65898497 144.52709961 123.06567383 C133.3279225 101.29773095 119.69457551 81.38860446 102.5 63.91015625 C101.21706487 62.59715232 99.96459728 61.25449569 98.71875 59.90625 C73.64288721 33.28725719 38.08379021 18.05935134 1.87207031 16.43408203 C-18.36384291 16.01780432 -36.48597685 21.57121781 -54 31.375 C-54.99773437 31.93058594 -55.99546875 32.48617187 -57.0234375 33.05859375 C-64.54897742 37.55451087 -70.7887065 43.25768755 -77 49.375 C-77.78246094 50.13296875 -78.56492188 50.8909375 -79.37109375 51.671875 C-101.52032362 74.57125704 -108.58870174 105.10574463 -108.27734375 135.9609375 C-107.66337054 160.02502201 -97.90596071 184.30972148 -82 202.375 C-81.00419922 203.58542969 -81.00419922 203.58542969 -79.98828125 204.8203125 C-65.51941104 221.88341637 -45.5704752 233.01165709 -24 238.375 C-23.07058594 238.61863281 -22.14117187 238.86226562 -21.18359375 239.11328125 C10.68813111 245.9329953 45.0245308 236.16785673 71.97216797 219.12792969 C90.07787651 207.20892992 109.16033811 191.27666042 120 172.375 C118.27153297 169.54123931 116.54209508 166.7080723 114.8125 163.875 C114.32974609 163.08351563 113.84699219 162.29203125 113.34960938 161.4765625 C110.26375569 156.42321822 107.14933221 151.38903426 104 146.375 C103.55011719 147.01824219 103.10023438 147.66148437 102.63671875 148.32421875 C81.00248023 178.71620513 52.798409 204.50477083 14.8762207 210.9934082 C-7.12578693 213.91244206 -27.56734441 209.92235137 -45.94921875 197.359375 C-48.39950219 195.45318207 -50.71022014 193.47016927 -53 191.375 C-53.68191406 190.78460938 -54.36382812 190.19421875 -55.06640625 189.5859375 C-69.80292367 176.03180211 -79.15646194 154.23329176 -80 134.375 C-80.0515625 133.51261719 -80.103125 132.65023437 -80.15625 131.76171875 C-80.71654534 114.50929128 -76.01648775 97.07260808 -67 82.375 C-64.29013702 80.13235478 -63.01659243 80.37412671 -59.4375 80.5625 C-56 81.375 -56 81.375 -54.0625 82.4375 C-52.22436434 85.78939443 -52.28218467 88.73465084 -53 92.375 C-54.35586578 95.67938987 -55.895362 98.85635088 -57.46875 102.0625 C-60.74845366 109.15736915 -62.3740078 116.61269673 -63 124.375 C-63.05285156 125.01179688 -63.10570312 125.64859375 -63.16015625 126.3046875 C-63.91989662 143.81174816 -57.13735263 161.55900493 -45.9375 174.81640625 C-35.51922482 185.81140738 -21.04872035 193.94704756 -5.69921875 194.61328125 C22.87785822 195.25182716 46.50851142 183.86368584 67.23046875 164.3671875 C78.13634333 153.87146481 86.81116724 142.06997815 95 129.375 C89.90601127 119.88244762 83.90437402 111.60777464 77 103.375 C76.55640137 102.84342285 76.11280273 102.3118457 75.65576172 101.76416016 C56.42092201 79.00352793 30.96189094 65.31629719 1.421875 62.09375 C-10.35445951 61.57035735 -23.47348254 65.54992891 -33.1875 72.125 C-36.89059608 74.5413637 -39.5299752 75.14865814 -44 74.375 C-46.4375 72.8125 -46.4375 72.8125 -48 70.375 C-48.5625 66.9375 -48.5625 66.9375 -48 63.375 C-40.21491117 52.7353786 -24.19717395 48.00226821 -11.8125 46.0625 C16.47837843 42.7582261 43.19248194 51.8509853 65.43212891 69.11816406 C71.30406228 73.82521997 76.74961366 78.98998837 82 84.375 C82.61875 84.94863281 83.2375 85.52226562 83.875 86.11328125 C98.92054932 100.37968605 109.66499618 118.71096628 119.0625 137 C133.39663855 164.8945594 153.07354849 191.10331063 178 210.375 C178.52190918 210.7786377 179.04381836 211.18227539 179.58154297 211.59814453 C207.99057216 233.33168884 242.74924171 244.22793225 278.5625 239.9140625 C294.74512466 237.18485001 310.75311888 230.56908625 324.19921875 221.12890625 C327 219.375 327 219.375 330.6875 219.4375 C335.3804262 220.76568666 335.3804262 220.76568666 337 223.375 C338.01134272 226.69798321 338.36117594 228.54225094 336.96484375 231.76171875 C334.35714299 235.23001261 331.37371434 237.09486581 327.6875 239.3125 C326.97327881 239.74780029 326.25905762 240.18310059 325.52319336 240.6315918 C295.08225151 258.78549938 259.21728772 261.56434234 225.1953125 253.2265625 C207.3558657 248.51986457 189.7713342 240.48045564 175 229.375 C173.96230469 228.61832031 172.92460937 227.86164063 171.85546875 227.08203125 C163.72009813 221.0622932 156.29545621 214.37717154 149 207.375 C147.74509766 206.18197266 147.74509766 206.18197266 146.46484375 204.96484375 C141.15314142 199.79891712 136.5042862 194.25389126 132 188.375 C128.32286233 189.60071256 127.63470306 190.87620678 125.3125 193.9375 C115.11982796 206.6617935 103.23853491 217.87578993 90 227.375 C89.40364746 227.80506348 88.80729492 228.23512695 88.19287109 228.67822266 C57.03797598 250.89150557 18.28239864 262.14115904 -19.97485352 256.60571289 C-51.75319082 251.02391211 -81.49887788 233.37024224 -100.4296875 207.04296875 C-108.42317227 195.60559629 -114.78057239 183.58261835 -119.3125 170.375 C-119.54291992 169.71266357 -119.77333984 169.05032715 -120.01074219 168.36791992 C-124.17338683 155.50253622 -125.56181593 142.56963963 -125.4375 129.125 C-125.43412628 128.40955017 -125.43075256 127.69410034 -125.42727661 126.95697021 C-125.18863915 91.84456662 -111.76010817 60.03980576 -87.125 35 C-63.48588237 11.80757527 -32.94217544 -0.0932739 0 0 Z " fill="#000000" transform="translate(125,127.625)"></path>
</svg>