<?xml version="1.0" encoding="UTF-8"?>
<svg version="1.1" xmlns="http://www.w3.org/2000/svg" width="512" height="512">
<path d="M0 0 C3.0479828 -0.00492547 6.09594598 -0.01283507 9.1439209 -0.02125549 C43.79258807 -0.10327723 78.34638885 0.83409523 112.86608887 3.99497986 C115.72339515 4.25563746 118.58179308 4.50080863 121.44055176 4.74497986 C123.31758123 4.91078444 125.19453804 5.07741433 127.07141113 5.24497986 C127.89737289 5.3158783 128.72333466 5.38677673 129.57432556 5.45982361 C144.86304267 6.88565661 144.86304267 6.88565661 148.42845154 9.56919861 C150.22733773 11.99907226 150.14894182 14.36071846 149.99719238 17.30357361 C149.66906738 19.24497986 149.66906738 19.24497986 148.35656738 21.74497986 C140.90981694 25.90130569 129.10749248 22.77447752 120.98156738 21.86997986 C110.11668304 20.72502719 99.26115908 19.79084985 88.35656738 19.11997986 C86.55796265 19.00710632 86.55796265 19.00710632 84.72302246 18.89195251 C81.4576871 18.69848014 78.19205226 18.52175708 74.92504883 18.35899353 C73.38165284 18.28099278 71.83844154 18.19927301 70.29541016 18.11436462 C47.23336051 16.86668539 24.13229335 17.00076746 1.04406738 16.99497986 C-0.03209209 16.99439072 -1.10825157 16.99380157 -2.21702194 16.99319458 C-36.34819341 16.98001929 -70.29789769 17.412136 -104.33093262 20.24497986 C-105.71091431 20.35743042 -105.71091431 20.35743042 -107.11877441 20.47215271 C-175.61225145 25.35363541 -175.61225145 25.35363541 -239.33093262 48.24497986 C-237.6070248 52.98314565 -234.27769649 54.32720647 -229.93249512 56.45762634 C-213.72709222 63.93295843 -195.53215137 67.05093154 -178.08093262 70.292099 C-176.8679248 70.5201825 -175.65491699 70.74826599 -174.40515137 70.98326111 C-173.32838135 71.17960144 -172.25161133 71.37594177 -171.14221191 71.57823181 C-168.56001236 72.19064926 -166.57800073 72.84810087 -164.33093262 74.24497986 C-162.71528011 77.47628488 -162.7658858 80.75133674 -163.33093262 84.24497986 C-165.08093262 86.80747986 -165.08093262 86.80747986 -168.33093262 88.24497986 C-177.16322047 88.31116245 -185.92373526 86.32225729 -194.51843262 84.49497986 C-196.42991089 84.09182556 -196.42991089 84.09182556 -198.38000488 83.68052673 C-213.0795369 80.51921651 -226.62741125 76.44762637 -240.33093262 70.24497986 C-240.00093262 75.19497986 -239.67093262 80.14497986 -239.33093262 85.24497986 C-237.68093262 85.90497986 -236.03093262 86.56497986 -234.33093262 87.24497986 C-233.53300293 87.66134705 -232.73507324 88.07771423 -231.91296387 88.50669861 C-168.98471992 120.90276214 -73.47004391 116.1729422 14.66906738 116.24497986 C15.41595825 116.23637939 16.16284912 116.22777893 16.93237305 116.21891785 C128.41761971 117.48707523 128.41761971 117.48707523 233.82141113 87.22544861 C235.66906738 86.24497986 235.66906738 86.24497986 238.66906738 85.24497986 C238.99906738 80.29497986 239.32906738 75.34497986 239.66906738 70.24497986 C236.97750488 71.51341736 236.97750488 71.51341736 234.23156738 72.80747986 C197.32992543 88.97720639 153.4422914 91.89010401 113.79406738 95.36997986 C112.89694031 95.45056641 111.99981323 95.53115295 111.07550049 95.61418152 C76.2620101 98.70501325 41.43026412 99.58327737 6.49523926 99.50572205 C1.3345212 99.49434386 -3.82599002 99.50111164 -8.98670101 99.51260376 C-29.89267371 99.55198238 -50.75482456 99.31639794 -71.63952637 98.32310486 C-72.50213955 98.28213936 -73.36475273 98.24117386 -74.25350571 98.19896698 C-94.90471257 97.19302348 -115.56105443 95.66685432 -136.10046387 93.27622986 C-137.39186279 93.12734314 -138.68326172 92.97845642 -140.01379395 92.82505798 C-143.76888189 92.16839434 -146.32291878 91.58899831 -148.64343262 88.49497986 C-149.60262514 85.35580434 -149.2462718 83.38328562 -148.33093262 80.24497986 C-146.83093262 77.86997986 -146.83093262 77.86997986 -144.33093262 76.24497986 C-137.10011043 75.88306175 -129.99621862 76.67766624 -122.80630493 77.41300964 C-110.84902982 78.6274134 -98.88890461 79.62435314 -86.89343262 80.36997986 C-85.7022583 80.44522888 -84.51108398 80.52047791 -83.28381348 80.5980072 C-80.05490715 80.7909395 -76.82573229 80.96823762 -73.59515381 81.13069153 C-72.02368809 81.21001249 -70.45236469 81.29218398 -68.88116455 81.37660217 C-47.54198551 82.49886876 -26.19284559 82.44588778 -4.83093262 82.43247986 C-3.87940308 82.43221298 -2.92787354 82.43194611 -1.94750977 82.43167114 C123.14484472 87.76174735 123.14484472 87.76174735 237.66906738 51.24497986 C237.99906738 50.25497986 238.32906738 49.26497986 238.66906738 48.24497986 C223.37970685 39.47239595 207.01992892 35.02888571 189.79016113 31.65122986 C189.13272415 31.52124603 188.47528717 31.39126221 187.79792786 31.25733948 C184.58692228 30.62667651 181.37430963 30.02475754 178.15075684 29.46128845 C168.42560203 27.63777987 168.42560203 27.63777987 165.34875488 24.78794861 C163.66906738 22.24497986 163.66906738 22.24497986 163.54406738 18.68247986 C164.66906738 15.24497986 164.66906738 15.24497986 166.60656738 12.74497986 C180.8320725 5.77738551 212.21673618 18.67283489 226.59094238 23.38560486 C238.42563993 27.53797432 249.23202086 32.99995923 255.66906738 44.24497986 C256.17077637 47.71055603 256.17077637 47.71055603 256.16516113 51.53794861 C256.16938332 52.58045021 256.16938332 52.58045021 256.1736908 53.64401245 C256.17445972 55.9076254 256.14293305 58.16917847 256.10656738 60.43247986 C256.09584198 61.60021942 256.09584198 61.60021942 256.0848999 62.79154968 C255.63149581 110.28228527 242.97393368 155.89100799 217.66906738 196.24497986 C216.97039551 197.36001892 216.27172363 198.47505798 215.55187988 199.62388611 C205.04234095 215.81026434 192.48935867 230.56368717 178.91906738 244.24497986 C178.22224854 244.95106384 177.52542969 245.65714783 176.80749512 246.3846283 C165.48638196 257.63732377 165.48638196 257.63732377 159.48156738 258.93247986 C155.57121364 257.97661561 154.04615337 256.46103738 151.66906738 253.24497986 C150.91906738 250.43247986 150.91906738 250.43247986 151.66906738 247.24497986 C155.5074013 241.47525499 161.03177825 237.01937693 166.18469238 232.46763611 C175.53292819 224.10419873 183.52797508 214.69873369 191.04406738 204.68247986 C191.69383545 203.81784119 192.34360352 202.95320251 193.01306152 202.06236267 C198.43687787 194.74792811 203.22819146 187.18800997 207.66906738 179.24497986 C206.52437988 179.54790955 205.37969238 179.85083923 204.20031738 180.16294861 C149.3951914 194.18352167 90.72883127 196.65122921 34.41906738 197.80747986 C33.42729492 197.82832642 32.43552246 197.84917297 31.41369629 197.87065125 C16.82916621 198.17454446 2.25665815 198.45236728 -12.33093262 198.24497986 C-13.84216193 198.22681737 -15.3533925 198.20875896 -16.86462402 198.19078064 C-79.14104534 197.40603466 -142.39286665 194.50396265 -203.31091309 180.62461853 C-205.47976563 180.15262762 -205.47976563 180.15262762 -208.33093262 180.24497986 C-205.86183991 184.02249621 -203.37878819 187.79064747 -200.89343262 191.55747986 C-200.20571777 192.60999939 -199.51800293 193.66251892 -198.80944824 194.74693298 C-184.33125762 216.63256997 -165.60714719 236.81161788 -144.33093262 252.24497986 C-143.79403809 252.63733826 -143.25714355 253.02969666 -142.70397949 253.4339447 C-111.18567826 276.30673378 -74.8461852 291.39575039 -36.33093262 297.24497986 C-35.14475342 297.42826843 -33.95857422 297.61155701 -32.7364502 297.80039978 C-22.06323565 299.30210167 -11.53727953 299.60520359 -0.76843262 299.55747986 C0.10991241 299.55532471 0.98825745 299.55316956 1.89321899 299.5509491 C46.51181669 299.37569015 90.86631356 287.08056607 128.41906738 262.55747986 C131.60716738 260.60240808 132.63422139 260.24666596 136.54406738 260.05747986 C140.346751 261.50249963 141.75458574 262.65532677 143.66906738 266.24497986 C143.74957792 270.10948579 143.12457874 271.71826804 140.59484863 274.64341736 C137.20818675 277.65478827 133.7672368 279.72963472 129.79406738 281.86997986 C129.00870605 282.29601501 128.22334473 282.72205017 127.41418457 283.16099548 C124.84149897 284.54018784 122.25757786 285.89574148 119.66906738 287.24497986 C118.37984375 287.92318787 118.37984375 287.92318787 117.0645752 288.61509705 C93.98665699 300.61971573 69.27387421 308.73636823 43.66906738 313.24497986 C42.83149902 313.40579041 41.99393066 313.56660095 41.13098145 313.73228455 C-21.51529057 325.522522 -90.48120318 309.40162458 -143.02624512 274.13560486 C-166.45714727 258.03687365 -188.48537267 238.22751091 -205.33093262 215.24497986 C-205.96805176 214.39105652 -205.96805176 214.39105652 -206.61804199 213.5198822 C-213.13489573 204.77734052 -218.95531117 195.72922592 -224.33093262 186.24497986 C-224.92623779 185.20809021 -224.92623779 185.20809021 -225.53356934 184.1502533 C-246.01994543 148.15079034 -256.709683 106.41254196 -256.70153809 65.05674744 C-256.70599757 62.5205418 -256.74274785 59.98596796 -256.78015137 57.45005798 C-256.78600703 55.81529818 -256.78998477 54.18053031 -256.79187012 52.54576111 C-256.80624115 51.79885513 -256.82061218 51.05194916 -256.8354187 50.28240967 C-256.78208639 44.16791695 -254.59911521 40.87563231 -250.71765137 36.37388611 C-215.57223358 3.97546649 -137.57992101 5.40699484 -92.33093262 2.24497986 C-91.45648499 2.18332642 -90.58203735 2.12167297 -89.68109131 2.05815125 C-59.82875539 -0.00310687 -29.90857146 0.04172221 0 0 Z M-236.33093262 105.24497986 C-234.47996481 120.65907382 -229.90554152 136.19393516 -223.33093262 150.24497986 C-219.36123551 146.37820082 -215.6958026 142.31853429 -212.08093262 138.11997986 C-211.23256836 137.13735168 -211.23256836 137.13735168 -210.36706543 136.13487244 C-202.05275871 127.21877646 -202.05275871 127.21877646 -195.33093262 117.24497986 C-196.9145459 116.82539001 -196.9145459 116.82539001 -198.53015137 116.39732361 C-208.34163336 113.75499465 -217.98898033 110.78392955 -227.59924316 107.48106384 C-228.44913818 107.19046082 -229.2990332 106.89985779 -230.17468262 106.60044861 C-230.92942871 106.33901062 -231.6841748 106.07757263 -232.46179199 105.80821228 C-234.32473126 105.1488072 -234.32473126 105.1488072 -236.33093262 105.24497986 Z M228.68078613 106.88951111 C227.6695166 107.23562439 226.65824707 107.58173767 225.61633301 107.93833923 C224.00274902 108.49231384 224.00274902 108.49231384 222.35656738 109.05747986 C213.86179657 111.93954411 205.4987065 114.58942252 196.66906738 116.24497986 C196.6510493 120.56466501 196.6510493 120.56466501 199.19641113 123.53013611 C199.73725342 124.13817078 200.2780957 124.74620544 200.83532715 125.37266541 C201.41983643 126.01115417 202.0043457 126.64964294 202.60656738 127.30747986 C203.80317122 128.64747365 204.99847609 129.98862851 206.19250488 131.33091736 C206.7838623 131.99188416 207.37521973 132.65285095 207.98449707 133.33384705 C211.02846401 136.78720548 213.8906057 140.38168129 216.76672363 143.97544861 C218.62808846 146.19609125 220.5889767 148.22974724 222.66906738 150.24497986 C226.21086983 141.36535458 229.33460666 132.43441304 231.98156738 123.24497986 C232.36272705 121.93847473 232.36272705 121.93847473 232.75158691 120.60557556 C234.19648875 115.47966107 235.14754212 110.54613081 235.66906738 105.24497986 C233.07412413 105.24497986 231.13695158 106.03854078 228.68078613 106.88951111 Z M-165.33093262 122.24497986 C-163.83369481 126.32313883 -161.87104582 129.91761159 -159.66296387 133.65513611 C-159.30506271 134.26328659 -158.94716156 134.87143707 -158.57841492 135.49801636 C-157.43668526 137.43645149 -156.2902005 139.37202193 -155.14343262 141.30747986 C-154.39245483 142.58007356 -153.64180104 143.85285851 -152.89147949 145.12583923 C-151.78202974 147.00775167 -150.67223132 148.88945116 -149.5609436 150.77027893 C-146.12744471 156.58153224 -142.72474136 162.41045077 -139.33093262 168.24497986 C-135.00190345 164.14251671 -131.39622691 159.65851837 -127.76843262 154.93247986 C-127.1643457 154.15009949 -126.56025879 153.36771912 -125.93786621 152.56163025 C-121.7490574 147.12340276 -117.5895191 141.66278919 -113.45593262 136.18247986 C-112.93829346 135.49822937 -112.4206543 134.81397888 -111.8873291 134.10899353 C-109.44809351 131.43282901 -109.44809351 131.43282901 -108.33093262 128.24497986 C-109.4180957 128.13428162 -110.50525879 128.02358337 -111.62536621 127.90953064 C-115.75191531 127.48913015 -119.87835251 127.06763942 -124.00476074 126.64585876 C-125.77328621 126.46523388 -127.54183986 126.28488469 -129.3104248 126.10484314 C-141.32468052 124.88154862 -153.330826 123.60021306 -165.33093262 122.24497986 Z M154.79797363 123.04966736 C153.41378666 123.22194011 152.02959032 123.39413769 150.64538574 123.56626892 C149.92382294 123.65686584 149.20226013 123.74746277 148.45883179 123.84080505 C134.88099727 125.54270865 121.30367955 127.06610554 107.66906738 128.24497986 C110.38616606 132.40747578 113.24348748 136.37749826 116.29406738 140.30747986 C117.17691742 141.44807581 118.05972877 142.5887017 118.94250488 143.72935486 C119.39206543 144.30878845 119.84162598 144.88822205 120.30480957 145.48521423 C122.51611451 148.33759182 124.71804838 151.19716172 126.91906738 154.05747986 C127.33414551 154.59663025 127.74922363 155.13578064 128.17687988 155.69126892 C131.37525869 159.85069905 134.53414546 164.03758465 137.66906738 168.24497986 C140.70094257 164.62550259 143.16048153 160.91460049 145.53234863 156.83482361 C145.88741989 156.22667313 146.24249115 155.61852264 146.60832214 154.99194336 C147.73652284 153.05763102 148.85914651 151.12015057 149.98156738 149.18247986 C150.72273328 147.90947758 151.46426698 146.63668937 152.20617676 145.36412048 C153.66033649 142.8684696 155.11230461 140.37156693 156.56213379 137.87339783 C159.58879518 132.65868733 162.62932554 127.45207399 165.66906738 122.24497986 C161.9394262 122.24497986 158.49411637 122.58355711 154.79797363 123.04966736 Z M-183.33093262 127.24497986 C-184.7058456 128.75285146 -186.00457724 130.33037747 -187.26843262 131.93247986 C-188.47112793 133.4368158 -188.47112793 133.4368158 -189.69812012 134.97154236 C-190.1257666 135.50682556 -190.55341309 136.04210876 -190.99401855 136.59361267 C-193.24448153 139.37340295 -195.57156495 142.08732383 -197.89343262 144.80747986 C-202.48236944 150.20084542 -206.94833574 155.68197007 -211.33093262 161.24497986 C-208.12014259 163.0371714 -205.07085301 163.87565406 -201.48327637 164.64732361 C-200.32900146 164.89659607 -199.17472656 165.14586853 -197.98547363 165.4026947 C-196.7588501 165.6600238 -195.53222656 165.91735291 -194.26843262 166.18247986 C-193.01667236 166.44754333 -191.76491211 166.71260681 -190.47521973 166.98570251 C-183.13804334 168.51626037 -175.79650822 169.94660318 -168.39343262 171.11997986 C-167.63860596 171.2397821 -166.8837793 171.35958435 -166.1060791 171.48301697 C-162.4758088 172.02653083 -158.99624895 172.28989505 -155.33093262 172.24497986 C-159.28132917 163.8295524 -164.02792795 155.96067399 -168.89343262 148.05747986 C-170.03237362 146.20012618 -171.17014086 144.34206276 -172.30699158 142.48342896 C-173.3344471 140.80476417 -174.36494016 139.12795964 -175.39562988 137.45127869 C-177.4313442 134.0786237 -179.3892576 130.67243487 -181.33093262 127.24497986 C-181.99093262 127.24497986 -182.65093262 127.24497986 -183.33093262 127.24497986 Z M180.66906738 127.24497986 C180.21660645 128.07513611 179.76414551 128.90529236 179.29797363 129.76060486 C173.26435757 140.70215098 166.79190636 151.36163294 160.25915527 162.0096283 C159.89069489 162.61184708 159.5222345 163.21406586 159.14260864 163.83453369 C158.12586599 165.49584675 157.10640534 167.15549547 156.08679199 168.81504822 C154.58507719 170.92005718 154.58507719 170.92005718 154.66906738 172.24497986 C162.19275984 171.65538897 169.6021382 170.74437289 177.04406738 169.49497986 C178.06758301 169.32450134 179.09109863 169.15402283 180.14562988 168.9783783 C190.4370539 167.20716339 200.55202524 164.81639474 210.66906738 162.24497986 C208.1783397 157.66413104 204.98308816 153.99445141 201.54406738 150.11997986 C188.43225435 135.17618064 188.43225435 135.17618064 184.05187988 128.94419861 C183.59555176 128.38345642 183.13922363 127.82271423 182.66906738 127.24497986 C182.00906738 127.24497986 181.34906738 127.24497986 180.66906738 127.24497986 Z M-78.33093262 131.24497986 C-74.87493028 137.68299091 -71.10105038 143.83332036 -67.08093262 149.93247986 C-65.93610848 151.68098604 -64.79157909 153.42968525 -63.64733887 155.17857361 C-63.08804688 156.03177185 -62.52875488 156.88497009 -61.95251465 157.76402283 C-59.62239912 161.32900837 -57.31758843 164.90997541 -55.01843262 168.49497986 C-54.63977051 169.08496765 -54.2611084 169.67495544 -53.87097168 170.28282166 C-53.02381521 171.60323528 -52.17728823 172.92405276 -51.33093262 174.24497986 C-47.34098228 172.91499641 -45.7754618 170.29486427 -43.33093262 167.05747986 C-42.3440999 165.77611706 -41.35711648 164.49487031 -40.36999512 163.21372986 C-39.86629395 162.55501892 -39.36259277 161.89630798 -38.84362793 161.21763611 C-36.48797657 158.14570857 -34.09831906 155.10083275 -31.70593262 152.05747986 C-31.25564697 151.48344421 -30.80536133 150.90940857 -30.34143066 150.31797791 C-26.08014273 144.89795248 -21.72339758 139.55932019 -17.33093262 134.24497986 C-17.82593262 133.25497986 -17.82593262 133.25497986 -18.33093262 132.24497986 C-48.32541305 131.35136832 -48.32541305 131.35136832 -78.33093262 131.24497986 Z M17.66906738 132.24497986 C18.26335695 135.36649219 19.18994107 137.21582703 21.22375488 139.64341736 C22.01447388 140.59957947 22.01447388 140.59957947 22.82116699 141.57505798 C23.38972412 142.2498822 23.95828125 142.92470642 24.54406738 143.61997986 C25.73121648 145.05408884 26.91739712 146.489 28.10266113 147.92466736 C28.700625 148.64622009 29.29858887 149.36777283 29.91467285 150.1111908 C32.52515651 153.28620154 35.07246669 156.50886178 37.60656738 159.74497986 C38.05669189 160.3192572 38.50681641 160.89353455 38.97058105 161.48521423 C42.26118702 165.69660018 45.49000566 169.94895051 48.66906738 174.24497986 C52.10676358 173.09908113 52.38655346 172.55747173 54.20031738 169.58872986 C54.67606201 168.82133484 55.15180664 168.05393982 55.64196777 167.26329041 C56.14591064 166.43224792 56.64985352 165.60120544 57.16906738 164.74497986 C58.23965099 163.01126988 59.31128908 161.27821067 60.38391113 159.54576111 C61.199646 158.22245789 61.199646 158.22245789 62.03186035 156.87242126 C64.97559516 152.14822293 68.03736569 147.50032972 71.10266113 142.85435486 C73.56357869 139.08840526 75.74111358 135.32212807 77.66906738 131.24497986 C57.65766334 131.04261735 37.66943229 131.66011929 17.66906738 132.24497986 Z M-94.33093262 137.24497986 C-100.67259003 144.26467612 -106.35099009 151.83563184 -111.98156738 159.42686462 C-115.54340773 164.22417299 -119.20988874 168.90452196 -123.00280762 173.52232361 C-124.43269566 175.0144405 -124.43269566 175.0144405 -124.33093262 176.24497986 C-104.98567824 178.32194233 -85.79497074 179.81202043 -66.33093262 180.24497986 C-72.56422389 169.10727584 -79.61582221 158.52472068 -86.62878418 147.86802673 C-88.19981257 145.44703863 -89.7218963 143.00272741 -91.22937012 140.54185486 C-91.92288574 139.45388611 -92.61640137 138.36591736 -93.33093262 137.24497986 C-93.66093262 137.24497986 -93.99093262 137.24497986 -94.33093262 137.24497986 Z M92.66906738 137.24497986 C91.01815586 139.73533792 89.48761934 142.23046362 87.98156738 144.80747986 C82.72068075 153.64280501 77.14535891 162.24380061 71.44567871 170.80186462 C70.51404907 172.21230042 70.51404907 172.21230042 69.56359863 173.65122986 C69.00519287 174.48976501 68.44678711 175.32830017 67.87145996 176.19224548 C66.50059167 178.13610908 66.50059167 178.13610908 66.66906738 180.24497986 C79.93994495 179.84446018 93.18294211 179.30924055 106.41906738 178.24497986 C107.97838989 178.12050476 107.97838989 178.12050476 109.56921387 177.99351501 C114.31296121 177.59510442 118.98676525 177.13684693 123.66906738 176.24497986 C119.71537319 169.84623794 115.16634934 164.03362735 110.42834473 158.21128845 C106.12401629 152.89323532 102.0771102 147.41650154 98.14685059 141.8167572 C97.03414731 140.25851222 95.85738958 138.74635468 94.66906738 137.24497986 C94.00906738 137.24497986 93.34906738 137.24497986 92.66906738 137.24497986 Z M-1.33093262 138.24497986 C-3.05880094 140.25016039 -4.67121455 142.26395271 -6.26843262 144.36997986 C-7.26696728 145.66437665 -8.26566978 146.95864398 -9.26452637 148.25279236 C-9.77483398 148.91827087 -10.2851416 149.58374939 -10.81091309 150.26939392 C-13.12724157 153.27995128 -15.47963394 156.26171661 -17.83093262 159.24497986 C-18.7333967 160.39462499 -19.63573956 161.54436529 -20.53796387 162.69419861 C-22.50790391 165.20209732 -24.48582056 167.7034996 -26.46765137 170.20201111 C-26.97812012 170.84718689 -27.48858887 171.49236267 -28.01452637 172.15708923 C-29.00084463 173.40343686 -29.98906255 174.64828402 -30.97937012 175.89146423 C-33.29654007 178.30390863 -33.29654007 178.30390863 -34.33093262 181.24497986 C-11.56923528 182.3624101 10.90950753 182.4199894 33.66906738 181.24497986 C31.1312976 176.64693008 27.94355838 172.77036433 24.60656738 168.74497986 C20.42696149 163.65455407 16.29451183 158.54015852 12.29406738 153.30747986 C11.50258301 152.27365173 10.71109863 151.23982361 9.89562988 150.17466736 C8.4465748 148.26801593 7.00353226 146.35677499 5.56750488 144.44029236 C4.94102051 143.61271423 4.31453613 142.78513611 3.66906738 141.93247986 C3.13281738 141.21447205 2.59656738 140.49646423 2.04406738 139.75669861 C1.36344238 139.00839783 1.36344238 139.00839783 0.66906738 138.24497986 C0.00906738 138.24497986 -0.65093262 138.24497986 -1.33093262 138.24497986 Z " fill="#000000" transform="translate(256.3309326171875,97.75502014160156)"></path>
</svg>