<?xml version="1.0" encoding="UTF-8"?>
<svg version="1.1" xmlns="http://www.w3.org/2000/svg" width="512" height="512">
<path d="M0 0 C2.26671302 1.68611635 4.37456516 3.45655531 6.4765625 5.34375 C7.28609375 6.06046875 8.095625 6.7771875 8.9296875 7.515625 C22.34810848 20.11082996 30.25219609 36.2872981 33.4765625 54.34375 C34.1571875 53.90804687 34.8378125 53.47234375 35.5390625 53.0234375 C54.65290872 41.2806224 76.8364615 35.5906206 99.12573242 40.57519531 C105.50556154 42.19823484 111.66873669 44.21477012 117.4765625 47.34375 C118.27191406 47.76269531 119.06726563 48.18164062 119.88671875 48.61328125 C126.56061803 52.35767914 132.03088218 56.99391366 137.4765625 62.34375 C138.63865234 63.46910156 138.63865234 63.46910156 139.82421875 64.6171875 C154.85565623 80.1385003 159.96623365 100.12880406 159.6875 121.23046875 C159.21427369 137.08355012 153.18002095 152.22683567 144.4765625 165.34375 C145.89195312 165.68986328 145.89195312 165.68986328 147.3359375 166.04296875 C169.45813341 171.59235376 188.34219685 182.26425257 200.9140625 201.78125 C211.81033369 220.69681433 215.14754304 243.25552461 209.9140625 264.59375 C206.3734164 275.53983197 201.19319317 285.74880364 193.4765625 294.34375 C192.75984375 295.15328125 192.043125 295.9628125 191.3046875 296.796875 C178.70948254 310.21529598 162.5330144 318.11938359 144.4765625 321.34375 C144.91226562 322.024375 145.34796875 322.705 145.796875 323.40625 C152.96395457 335.07214575 160.11041399 349.29262721 158.4765625 363.34375 C156.9140625 365.96875 156.9140625 365.96875 154.4765625 367.34375 C150.99408315 367.77905992 148.59172534 367.88348042 145.40234375 366.33984375 C142.54152684 363.37457511 142.0516907 359.86909272 141.1640625 355.96875 C138.1020693 343.87690253 132.76204998 333.76065909 124.4765625 324.34375 C123.82171875 323.59480469 123.166875 322.84585937 122.4921875 322.07421875 C114.53798502 313.55393252 104.8670949 308.24802539 94.33203125 303.5859375 C93.55579407 303.24214554 92.77955688 302.89835358 91.97979736 302.54414368 C82.70458723 298.494938 73.22743047 295.0083405 63.7265625 291.53125 C61.84353011 290.8383483 59.96063792 290.14506548 58.07788086 289.45141602 C55.24593251 288.40851738 52.41370891 287.36640956 49.58042908 286.32713318 C44.49657883 284.46161643 39.42059866 282.57756009 34.3555603 280.6615448 C31.56220186 279.6048896 28.76598229 278.55594727 25.96936035 277.50796509 C24.08080099 276.79696363 22.19610852 276.07571778 20.31152344 275.35424805 C19.19165039 274.93699463 18.07177734 274.51974121 16.91796875 274.08984375 C15.95576416 273.72560303 14.99355957 273.3613623 14.00219727 272.98608398 C11.30445653 272.29997902 10.02136855 272.26450611 7.4765625 273.34375 C5.48734177 275.57572129 5.48734177 275.57572129 4.4765625 278.34375 C5.7262166 281.87910814 8.00368033 284.1079909 10.63500977 286.71337891 C11.49252335 287.56751373 12.35003693 288.42164856 13.23353577 289.30166626 C14.62420509 290.67214615 14.62420509 290.67214615 16.04296875 292.0703125 C17.00229355 293.02336357 17.96110281 293.97693384 18.91941833 294.93099976 C21.43831324 297.43661557 23.96272054 299.93659657 26.48876953 302.43499756 C30.53666001 306.43969991 34.57778834 310.45119837 38.61573601 314.46592331 C40.0276301 315.86758501 41.44306505 317.26567706 42.85853577 318.66372681 C43.71289719 319.51155731 44.56725861 320.35938782 45.44750977 321.23291016 C46.20314713 321.98029449 46.95878448 322.72767883 47.73731995 323.49771118 C50.17494423 326.08501509 50.45357631 327.09549913 50.7890625 330.71875 C50.4765625 334.34375 50.4765625 334.34375 48.9140625 336.78125 C45.38206715 339.04534958 43.61514816 339.1024907 39.4765625 338.34375 C33.10036905 333.80108201 27.66524509 327.66506497 22.1640625 322.12890625 C20.88257324 320.84529457 20.88257324 320.84529457 19.57519531 319.53575134 C16.87327388 316.82827619 14.17486891 314.11732746 11.4765625 311.40625 C9.63434673 309.55901325 7.79190107 307.71200573 5.94921875 305.86523438 C1.45567189 301.36071997 -3.0350007 296.85335595 -7.5234375 292.34375 C-10.495376 293.46826727 -12.85784437 294.56668791 -15.5234375 296.34375 C-14.91210311 299.70981539 -14.08684601 302.83807558 -12.93212891 306.05688477 C-12.60694275 306.96812607 -12.28175659 307.87936737 -11.94671631 308.81822205 C-11.59304993 309.79731033 -11.23938354 310.77639862 -10.875 311.78515625 C-10.5065094 312.81286636 -10.1380188 313.84057648 -9.75836182 314.89942932 C-8.55962756 318.23670386 -7.35475806 321.57171069 -6.1484375 324.90625 C-5.73982483 326.03778503 -5.33121216 327.16932007 -4.91021729 328.33514404 C13.26553805 385.79559484 13.26553805 385.79559484 55.9140625 425.09375 C72.01031213 431.96299456 89.08046111 432.81748745 105.4765625 426.34375 C120.72351325 419.7172681 131.24499823 408.11380727 137.95507812 393.22070312 C139.94289754 389.15519904 140.76869746 387.65861456 145.05078125 385.75390625 C149.21351264 385.25551766 151.02498033 386.04269522 154.4765625 388.34375 C156.04077897 391.47218293 155.75216828 393.86902397 155.4765625 397.34375 C154.44601299 400.25707552 153.04031201 402.89756592 151.5390625 405.59375 C150.92454224 406.71354248 150.92454224 406.71354248 150.29760742 407.85595703 C139.63681458 426.77534068 123.38845711 438.9186646 102.79638672 445.24438477 C81.78375158 451.04488498 59.37387145 447.21520341 40.515625 436.69140625 C38.14291284 435.27907758 35.79809324 433.83836382 33.4765625 432.34375 C33.24582031 433.28734375 33.01507813 434.2309375 32.77734375 435.203125 C27.22795874 457.32532091 16.55605993 476.20938435 -2.9609375 488.78125 C-21.87650183 499.67752119 -44.43521211 503.01473054 -65.7734375 497.78125 C-76.71951947 494.2406039 -86.92849114 489.06038067 -95.5234375 481.34375 C-96.33296875 480.62703125 -97.1425 479.9103125 -97.9765625 479.171875 C-111.39498348 466.57667004 -119.29907109 450.4002019 -122.5234375 432.34375 C-123.37164062 432.86324219 -124.21984375 433.38273437 -125.09375 433.91796875 C-144.69598449 445.67310174 -167.10528624 451.31273856 -189.7734375 445.84375 C-201.71877506 442.63152042 -213.38088387 436.69578208 -222.5234375 428.34375 C-223.35359375 427.59351563 -224.18375 426.84328125 -225.0390625 426.0703125 C-239.86691087 411.99717498 -248.31383962 393.37213262 -248.875 372.94433594 C-249.04492227 354.09004412 -243.95759453 337.06898666 -233.5234375 321.34375 C-234.46703125 321.11300781 -235.410625 320.88226563 -236.3828125 320.64453125 C-258.50500841 315.09514624 -277.38907185 304.42324743 -289.9609375 284.90625 C-300.85720869 265.99068567 -304.19441804 243.43197539 -298.9609375 222.09375 C-295.4202914 211.14766803 -290.24006817 200.93869636 -282.5234375 192.34375 C-281.80671875 191.53421875 -281.09 190.7246875 -280.3515625 189.890625 C-267.75635754 176.47220402 -251.5798894 168.56811641 -233.5234375 165.34375 C-233.95914063 164.663125 -234.39484375 163.9825 -234.84375 163.28125 C-246.5614003 144.20836467 -252.05184477 122.32594597 -247.49536133 100.04980469 C-244.43811526 87.37797048 -238.33080101 74.98473228 -229.5234375 65.34375 C-228.77320313 64.51359375 -228.02296875 63.6834375 -227.25 62.828125 C-213.17686248 48.00027663 -194.55182012 39.55334788 -174.12402344 38.9921875 C-155.26973162 38.82226523 -138.24867416 43.90959297 -122.5234375 54.34375 C-122.29269531 53.40015625 -122.06195313 52.4565625 -121.82421875 51.484375 C-116.21414016 29.12022882 -105.2647328 9.71104245 -85.2109375 -2.59375 C-58.86212648 -18.01844216 -25.34950622 -16.638066 0 0 Z M-89.5234375 22.34375 C-90.07902344 22.86324219 -90.63460937 23.38273437 -91.20703125 23.91796875 C-99.16356545 32.13325203 -104.54180472 45.25299878 -106.5234375 56.34375 C-106.74515625 57.40335938 -106.966875 58.46296875 -107.1953125 59.5546875 C-108.18465122 65.86233804 -108.18465122 65.86233804 -106.1484375 71.72265625 C-104.81713601 73.26599972 -103.44725606 74.77663414 -102.04711914 76.2578125 C-99.03410248 79.9421049 -96.89282371 83.75301658 -94.70703125 87.96484375 C-94.27206329 88.79927505 -93.83709534 89.63370636 -93.38894653 90.49342346 C-88.87365801 99.34058147 -85.32974852 108.47222207 -81.8984375 117.78125 C-81.22743323 119.57308022 -80.55553694 121.36457661 -79.8828125 123.15576172 C-77.74080985 128.87696951 -75.62831635 134.60879431 -73.5234375 140.34375 C-73.14932739 141.36273376 -72.77521729 142.38171753 -72.38977051 143.43157959 C-67.39258035 157.05389346 -62.44083302 170.69244338 -57.5234375 184.34375 C-55.8734375 184.34375 -54.2234375 184.34375 -52.5234375 184.34375 C-52.51313004 183.49850266 -52.50282257 182.65325531 -52.49220276 181.78239441 C-52.39427827 173.82182582 -52.29177097 165.86133234 -52.18409824 157.9008894 C-52.12890307 153.80822117 -52.0754885 149.71554576 -52.02612305 145.62280273 C-51.97842927 141.67405782 -51.92608462 137.72539959 -51.87049675 133.77675819 C-51.85009592 132.26928169 -51.83137909 130.76178144 -51.81436348 129.25426292 C-51.79026912 127.14492577 -51.76022159 125.035752 -51.72875977 122.92651367 C-51.71321548 121.72516281 -51.6976712 120.52381195 -51.68165588 119.28605652 C-51.5234375 116.34375 -51.5234375 116.34375 -50.5234375 113.34375 C-46.2069453 112.58201608 -42.77910297 112.18311396 -38.5234375 113.34375 C-37.39603039 116.72597132 -37.36426059 119.36013703 -37.31811523 122.92651367 C-37.30821564 123.59019455 -37.29831604 124.25387543 -37.28811646 124.93766785 C-37.2565566 127.12898199 -37.23176595 129.32031781 -37.20703125 131.51171875 C-37.18645695 133.03201355 -37.16546035 134.55230269 -37.14405823 136.07258606 C-37.08888666 140.07233087 -37.03945575 144.07212689 -36.99121094 148.07196045 C-36.94096 152.15413974 -36.88529269 156.23624474 -36.83007812 160.31835938 C-36.72255668 168.3267601 -36.62109839 176.33522299 -36.5234375 184.34375 C-34.8734375 184.34375 -33.2234375 184.34375 -31.5234375 184.34375 C-31.183125 183.38227051 -30.8428125 182.42079102 -30.4921875 181.43017578 C-23.55167237 161.84828575 -16.46532879 142.3273864 -9.0859375 122.90625 C-8.75795166 122.03913391 -8.42996582 121.17201782 -8.09204102 120.27862549 C-4.8177586 111.63217819 -1.47373433 103.02455529 2.19140625 94.53515625 C2.46158066 93.90267471 2.73175507 93.27019318 3.01011658 92.61854553 C6.27930816 85.18282668 10.59221558 77.99068519 16.5390625 72.40625 C20.32124412 66.42796292 18.1205719 59.52038062 16.78125 52.9140625 C12.34558205 35.29127363 3.13215058 20.87531048 -12.5234375 11.34375 C-38.62751883 -3.83208243 -68.42506586 1.67965016 -89.5234375 22.34375 Z M-215.5234375 74.34375 C-216.47476563 75.26414062 -216.47476563 75.26414062 -217.4453125 76.203125 C-228.41692085 87.56310887 -233.08071552 103.3668048 -232.94116211 118.8503418 C-232.24744822 138.38088863 -223.15411883 154.05534574 -209.5234375 167.34375 C-208.86730469 168.00890625 -208.21117187 168.6740625 -207.53515625 169.359375 C-198.70925837 177.75059269 -187.29336432 182.76652709 -176.03344727 186.99804688 C-170.72737679 189.03784107 -170.72737679 189.03784107 -168.5234375 192.34375 C-167.99061162 198.31139986 -167.99061162 198.31139986 -169.5234375 201.28125 C-173.30598235 203.29072695 -177.68310568 202.90324578 -181.68603516 201.6862793 C-183.94346057 200.7689303 -186.13829175 199.77119706 -188.3359375 198.71875 C-189.12419922 198.35265625 -189.91246094 197.9865625 -190.72460938 197.609375 C-193.00130393 196.5410655 -195.2642672 195.44855783 -197.5234375 194.34375 C-198.59980469 193.82039062 -199.67617187 193.29703125 -200.78515625 192.7578125 C-205.6225435 190.25976088 -209.39316394 187.59801174 -213.3984375 183.90625 C-217.31127558 180.67846717 -219.69491684 179.81707515 -224.7734375 180.09375 C-243.63018283 182.95217555 -261.15670421 190.21355867 -272.8984375 205.78125 C-276.28376484 210.75885809 -279.21429003 215.78080382 -281.5234375 221.34375 C-281.843125 222.10171875 -282.1628125 222.8596875 -282.4921875 223.640625 C-287.62256058 238.5567097 -285.53108152 256.14123938 -279.23828125 270.21875 C-275.73003543 277.25478618 -271.04444018 282.79327577 -265.5234375 288.34375 C-265.00523437 288.89675781 -264.48703125 289.44976562 -263.953125 290.01953125 C-255.75094541 297.98552242 -242.60907496 303.36303091 -231.5234375 305.34375 C-230.46382812 305.56546875 -229.40421875 305.7871875 -228.3125 306.015625 C-222.00484946 307.00496372 -222.00484946 307.00496372 -216.14453125 304.96875 C-214.60118778 303.63744851 -213.09055336 302.26756856 -211.609375 300.86743164 C-207.9250826 297.85441498 -204.11417092 295.71313621 -199.90234375 293.52734375 C-199.06791245 293.09237579 -198.23348114 292.65740784 -197.37376404 292.20925903 C-188.52660603 287.69397051 -179.39496543 284.15006102 -170.0859375 280.71875 C-168.29410728 280.04774573 -166.50261089 279.37584944 -164.71142578 278.703125 C-158.99021799 276.56112235 -153.25839319 274.44862885 -147.5234375 272.34375 C-146.50445374 271.96963989 -145.48546997 271.59552979 -144.43560791 271.21008301 C-130.81329404 266.21289285 -117.17474412 261.26114552 -103.5234375 256.34375 C-103.5234375 254.69375 -103.5234375 253.04375 -103.5234375 251.34375 C-104.36868484 251.33344254 -105.21393219 251.32313507 -106.08479309 251.31251526 C-114.04536168 251.21459077 -122.00585516 251.11208347 -129.9662981 251.00441074 C-134.05896633 250.94921557 -138.15164174 250.895801 -142.24438477 250.84643555 C-146.19312968 250.79874177 -150.14178791 250.74639712 -154.09042931 250.69080925 C-155.59790581 250.67040842 -157.10540606 250.65169159 -158.61292458 250.63467598 C-160.72226173 250.61058162 -162.8314355 250.58053409 -164.94067383 250.54907227 C-166.14202469 250.53352798 -167.34337555 250.5179837 -168.58113098 250.50196838 C-171.5234375 250.34375 -171.5234375 250.34375 -174.5234375 249.34375 C-175.28517142 245.0272578 -175.68407354 241.59941547 -174.5234375 237.34375 C-171.14121618 236.21634289 -168.50705047 236.18457309 -164.94067383 236.13842773 C-164.27699295 236.12852814 -163.61331207 236.11862854 -162.92951965 236.10842896 C-160.73820551 236.0768691 -158.54686969 236.05207845 -156.35546875 236.02734375 C-154.83517395 236.00676945 -153.31488481 235.98577285 -151.79460144 235.96437073 C-147.79485663 235.90919916 -143.79506061 235.85976825 -139.79522705 235.81152344 C-135.71304776 235.7612725 -131.63094276 235.70560519 -127.54882812 235.65039062 C-119.5404274 235.54286918 -111.53196451 235.44141089 -103.5234375 235.34375 C-103.5234375 233.69375 -103.5234375 232.04375 -103.5234375 230.34375 C-104.07023163 230.14996262 -104.61702576 229.95617523 -105.1803894 229.7565155 C-110.8620997 227.7406544 -116.53865527 225.71077095 -122.21240234 223.67260742 C-124.33155013 222.91344911 -126.45199311 222.15789633 -128.57373047 221.40600586 C-131.62032863 220.32566705 -134.6620591 219.23251831 -137.703125 218.13671875 C-139.13131058 217.63497383 -139.13131058 217.63497383 -140.58834839 217.12309265 C-141.90949142 216.64293449 -141.90949142 216.64293449 -143.25732422 216.15307617 C-144.03453827 215.87549973 -144.81175232 215.59792328 -145.61251831 215.31193542 C-147.5234375 214.34375 -147.5234375 214.34375 -149.5234375 211.34375 C-150.05626338 205.37610014 -150.05626338 205.37610014 -148.5234375 202.40625 C-144.78017336 200.41764092 -140.37820353 200.86650472 -136.36853027 201.89822388 C-134.0741665 202.684625 -131.82378169 203.5445874 -129.5703125 204.44140625 C-128.74766907 204.75452255 -127.92502563 205.06763885 -127.07745361 205.39024353 C-124.47112299 206.38311738 -121.87182663 207.39279143 -119.2734375 208.40625 C-116.66048681 209.42242421 -114.04632446 210.43444368 -111.42657471 211.43296814 C-109.80203917 212.05229409 -108.1813333 212.68178364 -106.56512451 213.32252502 C-101.57196868 215.3061232 -101.57196868 215.3061232 -96.5234375 214.34375 C-94.26018504 211.36611957 -94.26018504 211.36611957 -92.5234375 208.34375 C-94.01562653 204.86196534 -96.00011051 202.62945661 -98.68188477 199.97412109 C-99.96815514 198.69291885 -99.96815514 198.69291885 -101.28041077 197.38583374 C-102.67108009 196.01535385 -102.67108009 196.01535385 -104.08984375 194.6171875 C-105.04916855 193.66413643 -106.00797781 192.71056616 -106.96629333 191.75650024 C-109.48518824 189.25088443 -112.00959554 186.75090343 -114.53564453 184.25250244 C-118.58353501 180.24780009 -122.62466334 176.23630163 -126.66261101 172.22157669 C-128.0745051 170.81991499 -129.48994005 169.42182294 -130.90541077 168.02377319 C-132.1869529 166.75202744 -132.1869529 166.75202744 -133.49438477 165.45458984 C-134.25002213 164.70720551 -135.00565948 163.95982117 -135.78419495 163.18978882 C-138.2598805 160.56208653 -138.50465762 159.60197339 -138.7734375 155.90625 C-138.5234375 152.34375 -138.5234375 152.34375 -137.4609375 150.40625 C-134.18159626 148.60790158 -132.21538227 148.73851315 -128.5234375 149.34375 C-126.72851562 150.61207581 -126.72851562 150.61207581 -124.8671875 152.30688477 C-124.16762939 152.94385284 -123.46807129 153.58082092 -122.74731445 154.23709106 C-118.83380484 157.94432405 -115.01045655 161.73491763 -111.2109375 165.55859375 C-110.35661133 166.41433487 -109.50228516 167.27007599 -108.62207031 168.15174866 C-105.92014888 170.85922381 -103.22174391 173.57017254 -100.5234375 176.28125 C-98.68122173 178.12848675 -96.83877607 179.97549427 -94.99609375 181.82226562 C-90.50254689 186.32678003 -86.0118743 190.83414405 -81.5234375 195.34375 C-78.08249564 194.03128462 -75.38802868 192.67786133 -72.5234375 190.34375 C-73.10537469 186.30987039 -73.98385225 182.68120385 -75.39013672 178.85864258 C-75.77499237 177.80506058 -76.15984802 176.75147858 -76.55636597 175.66596985 C-77.18588669 173.96926399 -77.18588669 173.96926399 -77.828125 172.23828125 C-78.26673859 171.04563156 -78.70535217 169.85298187 -79.15725708 168.62419128 C-80.09118868 166.08887607 -81.02719695 163.55444818 -81.96679688 161.02124023 C-83.36681122 157.24587257 -84.75372988 153.46575439 -86.140625 149.68554688 C-90.70978562 137.27980716 -95.40190524 124.9298659 -100.34375 112.66796875 C-100.99064285 111.04747368 -100.99064285 111.04747368 -101.65060425 109.39424133 C-110.86376936 86.80526194 -124.92737175 69.14586787 -147.8046875 59.41015625 C-148.701875 59.05824219 -149.5990625 58.70632812 -150.5234375 58.34375 C-151.338125 58.02277344 -152.1528125 57.70179687 -152.9921875 57.37109375 C-175.37084062 49.94607767 -199.53477091 57.8949779 -215.5234375 74.34375 Z M26.4765625 83.34375 C13.970865 100.36985559 7.58262929 121.67315105 0.4140625 141.28125 C-0.45322146 143.64017793 -1.32105746 145.99890297 -2.18945312 148.35742188 C-3.86503396 152.90884143 -5.53263216 157.46307539 -7.19580078 162.01904297 C-8.67740758 166.06762237 -10.18904695 170.10212967 -11.73779297 174.12548828 C-12.24009682 175.4433004 -12.24009682 175.4433004 -12.75254822 176.78773499 C-13.36878975 178.40014154 -13.99349699 180.00934979 -14.62843323 181.61448669 C-16.50059426 186.45666904 -16.50059426 186.45666904 -15.5234375 191.34375 C-12.54580707 193.60700246 -12.54580707 193.60700246 -9.5234375 195.34375 C-5.9951749 193.84557566 -3.80508411 191.82654584 -1.15722656 189.07763672 C-0.30243713 188.19687469 0.55235229 187.31611267 1.43304443 186.40866089 C1.88532158 185.93841366 2.33759872 185.46816643 2.80358124 184.98366928 C4.22738241 183.50637474 5.65997452 182.03818089 7.09576416 180.57254028 C11.17640325 176.40661117 15.25165598 172.23590896 19.29394531 168.03271484 C21.77101015 165.4583765 24.26737798 162.90418715 26.77729034 160.36188126 C28.18751157 158.92235031 29.57614029 157.46176818 30.96429443 156.00094604 C38.13753219 148.76932631 38.13753219 148.76932631 42.99316406 148.68017578 C46.4765625 149.34375 46.4765625 149.34375 48.4765625 150.40625 C50.1791107 153.70493714 50.07860033 155.67131921 49.4765625 159.34375 C48.20823669 161.13867187 48.20823669 161.13867187 46.51342773 163 C45.87645966 163.69955811 45.23949158 164.39911621 44.58322144 165.11987305 C40.87598845 169.03338266 37.08539487 172.85673095 33.26171875 176.65625 C32.40597763 177.51057617 31.55023651 178.36490234 30.66856384 179.24511719 C27.96108869 181.94703862 25.25013996 184.64544359 22.5390625 187.34375 C20.69182575 189.18596577 18.84481823 191.02841143 16.99804688 192.87109375 C12.49353247 197.36464061 7.98616845 201.8553132 3.4765625 206.34375 C4.78902788 209.78469186 6.14245117 212.47915882 8.4765625 215.34375 C11.84262789 214.73241561 14.97088808 213.90715851 18.18969727 212.75244141 C19.10093857 212.42725525 20.01217987 212.10206909 20.95103455 211.76702881 C21.93012283 211.41336243 22.90921112 211.05969604 23.91796875 210.6953125 C24.94567886 210.3268219 25.97338898 209.9583313 27.03224182 209.57867432 C30.36951636 208.37994006 33.70452319 207.17507056 37.0390625 205.96875 C38.73636505 205.35583099 38.73636505 205.35583099 40.46795654 204.73052979 C98.54017827 186.22282287 98.54017827 186.22282287 138.2265625 142.90625 C144.52447682 128.1695462 146.11961675 111.58602108 140.4765625 96.34375 C136.61300192 86.97278328 131.76781849 79.44313083 124.4765625 72.34375 C123.88617188 71.72113281 123.29578125 71.09851563 122.6875 70.45703125 C118.47283237 66.3259143 113.69596531 63.68022434 108.4765625 61.03125 C107.81197021 60.69335449 107.14737793 60.35545898 106.46264648 60.00732422 C77.76421685 46.07262268 45.97649673 60.90460364 26.4765625 83.34375 Z M122.56176758 185.81982422 C118.87794135 188.83346634 115.06730564 190.97435874 110.85546875 193.16015625 C110.02103745 193.59512421 109.18660614 194.03009216 108.32688904 194.47824097 C99.47973103 198.99352949 90.34809043 202.53743898 81.0390625 205.96875 C79.24723228 206.63975427 77.45573589 207.31165056 75.66455078 207.984375 C69.94334299 210.12637765 64.21151819 212.23887115 58.4765625 214.34375 C57.45757874 214.71786011 56.43859497 215.09197021 55.38873291 215.47741699 C41.76641904 220.47460715 28.12786912 225.42635448 14.4765625 230.34375 C14.4765625 231.99375 14.4765625 233.64375 14.4765625 235.34375 C15.32180984 235.35405746 16.16705719 235.36436493 17.03791809 235.37498474 C24.99848668 235.47290923 32.95898016 235.57541653 40.9194231 235.68308926 C45.01209133 235.73828443 49.10476674 235.791699 53.19750977 235.84106445 C57.14625468 235.88875823 61.09491291 235.94110288 65.04355431 235.99669075 C66.55103081 236.01709158 68.05853106 236.03580841 69.56604958 236.05282402 C71.67538673 236.07691838 73.7845605 236.10696591 75.89379883 236.13842773 C77.69582512 236.16174416 77.69582512 236.16174416 79.53425598 236.18553162 C82.4765625 236.34375 82.4765625 236.34375 85.4765625 237.34375 C86.23829642 241.6602422 86.63719854 245.08808453 85.4765625 249.34375 C82.09434118 250.47115711 79.46017547 250.50292691 75.89379883 250.54907227 C74.89827751 250.56392166 74.89827751 250.56392166 73.88264465 250.57907104 C71.69133051 250.6106309 69.49999469 250.63542155 67.30859375 250.66015625 C65.78829895 250.68073055 64.26800981 250.70172715 62.74772644 250.72312927 C58.74798163 250.77830084 54.74818561 250.82773175 50.74835205 250.87597656 C46.66617276 250.9262275 42.58406776 250.98189481 38.50195312 251.03710938 C30.4935524 251.14463082 22.48508951 251.24608911 14.4765625 251.34375 C14.4765625 252.99375 14.4765625 254.64375 14.4765625 256.34375 C15.69609619 256.78017822 16.91562988 257.21660645 18.17211914 257.66625977 C38.98937033 265.12356879 59.80481296 272.59337491 80.46652222 280.47360229 C82.07037093 281.08475702 83.67525774 281.69319595 85.28128052 282.2986145 C93.40038966 285.36440854 101.35744413 288.61998417 109.140625 292.46875 C109.77814194 292.78211807 110.41565887 293.09548615 111.07249451 293.41835022 C117.69012767 296.78140611 124.21469298 301.08188048 129.4765625 306.34375 C147.45032174 306.48708141 164.33374047 300.05025607 177.26953125 287.57421875 C177.99785156 286.83816406 178.72617187 286.10210937 179.4765625 285.34375 C180.11207031 284.74175781 180.74757813 284.13976562 181.40234375 283.51953125 C192.5745214 272.09963348 195.92970725 256.32304915 195.91040039 240.92260742 C195.64065578 227.43425738 191.66797237 216.17127233 183.4765625 205.34375 C182.93128906 204.61671875 182.38601563 203.8896875 181.82421875 203.140625 C170.5631432 189.25638126 152.93763468 182.68858774 135.7265625 180.09375 C129.4946293 179.78738398 126.97753378 181.64746895 122.56176758 185.81982422 Z M-78.5234375 215.34375 C-85.66264929 224.2744494 -89.21778914 234.36279206 -88.8125 245.83984375 C-87.21748221 259.65614646 -80.98003006 270.40090206 -70.25390625 279.20703125 C-65.31943126 282.68968172 -60.34540077 284.80500626 -54.5234375 286.34375 C-53.7190625 286.570625 -52.9146875 286.7975 -52.0859375 287.03125 C-39.85663191 288.52262873 -27.90269039 285.96165235 -18.01953125 278.4375 C-8.53200658 270.40633158 -1.83371578 259.92242153 -0.5234375 247.34375 C0.31506624 235.18544573 -3.72804698 223.5085155 -11.375 214.0546875 C-19.87383283 205.0140964 -31.74605935 199.54226368 -44.1484375 199.09375 C-58.05820206 199.25934244 -69.16453726 205.40563444 -78.5234375 215.34375 Z M-105.11376953 272.8815918 C-106.04924118 273.22048935 -106.98471283 273.5593869 -107.9485321 273.90855408 C-108.96582901 274.28291092 -109.98312592 274.65726776 -111.03125 275.04296875 C-112.09273758 275.42969254 -113.15422516 275.81641632 -114.24787903 276.21485901 C-117.71688576 277.48119065 -121.18288464 278.7554988 -124.6484375 280.03125 C-125.82326691 280.46248169 -126.99809631 280.89371338 -128.20852661 281.3380127 C-142.66733961 286.64779445 -157.10992054 291.99833323 -171.4609375 297.59375 C-172.1028302 297.84111908 -172.7447229 298.08848816 -173.40606689 298.34335327 C-197.02874764 307.4739805 -216.06371258 320.45966507 -227.2734375 343.84375 C-228.04908028 345.66638254 -228.80013313 347.49972128 -229.5234375 349.34375 C-229.84441406 350.1584375 -230.16539062 350.973125 -230.49609375 351.8125 C-235.66741264 367.39861461 -233.06281149 384.68026315 -225.8359375 399.09375 C-222.4649429 404.86774579 -218.22785138 409.62314192 -213.5234375 414.34375 C-212.90855469 414.98183594 -212.29367188 415.61992187 -211.66015625 416.27734375 C-200.33969155 427.16147362 -184.81690146 431.89110968 -169.42553711 431.76147461 C-149.76621543 431.10814368 -133.94374601 422.10973312 -120.5234375 408.34375 C-119.85828125 407.68761719 -119.193125 407.03148437 -118.5078125 406.35546875 C-109.8641102 397.2640071 -105.08996638 385.68680435 -100.453125 374.23046875 C-99.97714874 373.05749237 -99.50117249 371.88451599 -99.01077271 370.67599487 C-93.72500189 357.52962333 -88.88039317 344.22845231 -84.09161377 330.89465332 C-83.14892948 328.27552326 -82.19934833 325.65891438 -81.24981499 323.04226112 C-80.10550453 319.8862939 -78.96695881 316.72826025 -77.828125 313.5703125 C-77.40844452 312.4121402 -76.98876404 311.2539679 -76.55636597 310.06069946 C-75.97908249 308.45018204 -75.97908249 308.45018204 -75.39013672 306.80712891 C-75.05247284 305.86930573 -74.71480896 304.93148254 -74.36691284 303.96524048 C-73.55306897 301.43584353 -72.98765216 298.95774306 -72.5234375 296.34375 C-74.8334375 294.69375 -77.1434375 293.04375 -79.5234375 291.34375 C-83.00522216 292.83593903 -85.23773089 294.82042301 -87.89306641 297.50219727 C-89.17426865 298.78846764 -89.17426865 298.78846764 -90.48135376 300.10072327 C-91.39500702 301.02783615 -92.30866028 301.95494904 -93.25 302.91015625 C-94.20305107 303.86948105 -95.15662134 304.82829031 -96.11068726 305.78660583 C-98.61630307 308.30550074 -101.11628407 310.82990804 -103.61468506 313.35595703 C-107.61938741 317.40384751 -111.63088587 321.44497584 -115.64561081 325.48292351 C-117.04727251 326.8948176 -118.44536456 328.31025255 -119.84341431 329.72572327 C-120.69124481 330.58008469 -121.53907532 331.43444611 -122.41259766 332.31469727 C-123.15998199 333.07033463 -123.90736633 333.82597198 -124.67739868 334.60450745 C-127.30510097 337.080193 -128.26521411 337.32497012 -131.9609375 337.59375 C-135.5234375 337.34375 -135.5234375 337.34375 -137.4609375 336.34375 C-139.28589385 332.90853804 -139.53585104 330.02473923 -138.5234375 326.34375 C-135.61725801 322.29587129 -132.0475607 318.93653348 -128.4609375 315.5 C-127.4278671 314.48186405 -126.39655893 313.46193721 -125.36694336 312.44030762 C-122.66180374 309.76560716 -119.93351153 307.11580734 -117.19958496 304.47058105 C-114.41025768 301.76332268 -111.64364477 299.03306543 -108.875 296.3046875 C-103.44638105 290.9616791 -97.99308273 285.6447867 -92.5234375 280.34375 C-93.84244079 276.93019213 -95.01114778 274.0570229 -97.5234375 271.34375 C-100.57287936 271.34375 -102.27903172 271.84723706 -105.11376953 272.8815918 Z M-57.5234375 302.34375 C-57.95986572 303.56328369 -58.39629395 304.78281738 -58.84594727 306.03930664 C-92.40096084 399.70741364 -92.40096084 399.70741364 -104.2109375 412.71875 C-107.38795151 416.42847545 -108.01369834 418.70649286 -107.7734375 423.59375 C-107.42828529 425.8558245 -107.00847082 428.10749112 -106.5234375 430.34375 C-106.15605469 432.06851563 -106.15605469 432.06851563 -105.78125 433.828125 C-102.44091361 447.13034956 -96.2380365 457.73123085 -86.5234375 467.34375 C-85.92144531 467.97925781 -85.31945312 468.61476563 -84.69921875 469.26953125 C-74.07139474 479.66681678 -58.0354823 484.17016095 -43.5234375 484.34375 C-29.27501213 483.45732722 -16.70806934 479.24156121 -5.5234375 470.34375 C-4.4921875 469.60125 -3.4609375 468.85875 -2.3984375 468.09375 C8.06965411 458.0807928 14.69307498 444.47680985 17.4765625 430.34375 C17.70085937 429.28027344 17.92515625 428.21679688 18.15625 427.12109375 C18.86571833 422.45497509 19.37031178 418.92844528 16.99609375 414.71875 C15.65501765 413.10012043 14.25978312 411.52482037 12.81396484 409.99902344 C5.54300134 401.7392575 1.54817107 391.30933332 -2.3359375 381.15625 C-2.87654063 379.76468252 -3.41748696 378.37324833 -3.95874023 376.98193359 C-13.52917927 352.24886642 -22.46256866 327.26661233 -31.5234375 302.34375 C-33.1734375 302.34375 -34.8234375 302.34375 -36.5234375 302.34375 C-36.53374496 303.18899734 -36.54405243 304.03424469 -36.55467224 304.90510559 C-36.65259673 312.86567418 -36.75510403 320.82616766 -36.86277676 328.7866106 C-36.91797193 332.87927883 -36.9713865 336.97195424 -37.02075195 341.06469727 C-37.06844573 345.01344218 -37.12079038 348.96210041 -37.17637825 352.91074181 C-37.19677908 354.41821831 -37.21549591 355.92571856 -37.23251152 357.43323708 C-37.25660588 359.54257423 -37.28665341 361.651748 -37.31811523 363.76098633 C-37.33365952 364.96233719 -37.3492038 366.16368805 -37.36521912 367.40144348 C-37.5234375 370.34375 -37.5234375 370.34375 -38.5234375 373.34375 C-42.8399297 374.10548392 -46.26777203 374.50438604 -50.5234375 373.34375 C-51.65084461 369.96152868 -51.68261441 367.32736297 -51.72875977 363.76098633 C-51.73865936 363.09730545 -51.74855896 362.43362457 -51.75875854 361.74983215 C-51.7903184 359.55851801 -51.81510905 357.36718219 -51.83984375 355.17578125 C-51.86041805 353.65548645 -51.88141465 352.13519731 -51.90281677 350.61491394 C-51.95798834 346.61516913 -52.00741925 342.61537311 -52.05566406 338.61553955 C-52.105915 334.53336026 -52.16158231 330.45125526 -52.21679688 326.36914062 C-52.32431832 318.3607399 -52.42577661 310.35227701 -52.5234375 302.34375 C-54.1734375 302.34375 -55.8234375 302.34375 -57.5234375 302.34375 Z " fill="#000000" transform="translate(300.5234375,12.65625)"></path>
</svg>