<?xml version="1.0" encoding="UTF-8"?>
<svg version="1.1" xmlns="http://www.w3.org/2000/svg" width="512" height="512">
<path d="M0 0 C0.99852409 -0.00384115 1.99704817 -0.00768229 3.02583057 -0.01163983 C4.12581054 -0.01077335 5.22579051 -0.00990687 6.3591032 -0.00901413 C7.52532906 -0.01198525 8.69155491 -0.01495637 9.89312094 -0.01801753 C13.1356178 -0.02520491 16.37808241 -0.0278774 19.62058604 -0.028615 C23.11557429 -0.03046461 26.61055104 -0.03801147 30.10553265 -0.04475021 C37.75014057 -0.05833774 45.39474325 -0.06435887 53.03936124 -0.06876087 C57.81160961 -0.07152251 62.58385595 -0.07575971 67.35610294 -0.08026505 C80.56602667 -0.09245812 93.77594876 -0.10275745 106.98587799 -0.10614014 C107.83150007 -0.1063597 108.67712216 -0.10657927 109.54836915 -0.10680549 C110.39602722 -0.10702377 111.24368529 -0.10724204 112.11702996 -0.10746694 C113.83473988 -0.1079104 115.5524498 -0.10835697 117.27015972 -0.10880661 C118.12220518 -0.10902804 118.97425064 -0.10924947 119.85211565 -0.10947761 C133.66039643 -0.11342619 147.46862444 -0.13088188 161.27688483 -0.15416613 C175.44962641 -0.17787233 189.62234152 -0.19034165 203.79510325 -0.19150805 C211.75420802 -0.19242521 219.71324405 -0.19818778 227.6723299 -0.21632767 C234.44929188 -0.23171877 241.22616388 -0.23685499 248.00314001 -0.22858956 C251.461102 -0.22467956 254.91888272 -0.22562955 258.37682247 -0.23964691 C262.12538648 -0.25229167 265.87348238 -0.24652984 269.62204266 -0.23606491 C270.71533046 -0.24412132 271.80861827 -0.25217772 272.935036 -0.26047826 C278.39794391 -0.22470561 282.53206748 -0.08945714 287.18104839 3.13142776 C289.63391136 6.81072221 289.41333718 8.60520683 289.37636089 12.98689651 C289.37211605 13.97935127 289.37211605 13.97935127 289.36778545 14.99185562 C289.35660758 17.10106514 289.3315082 19.20984701 289.30604839 21.31892776 C289.29601546 22.75056225 289.28689016 24.1822034 289.27870464 25.61384964 C289.25667635 29.11984753 289.22216325 32.6255959 289.18104839 36.13142776 C289.75170025 36.24027298 290.3223521 36.34911819 290.91029644 36.46126175 C311.28877199 40.62182297 328.9681569 55.4974154 340.49354839 72.38142776 C353.9657358 92.93182221 358.41040471 118.41655048 353.59559917 142.42854691 C352.14326455 148.94934968 349.87806174 155.03488561 347.18104839 161.13142776 C346.81237652 161.99123245 346.44370464 162.85103714 346.06386089 163.73689651 C336.02818183 185.50393834 316.87270351 200.72833681 295.00526714 209.38924026 C285.31515383 212.78266516 276.4882092 214.41292534 266.23744488 213.59456253 C257.36579011 212.75238426 257.36579011 212.75238426 249.12587261 215.38386917 C245.82148906 218.5172872 243.63827815 222.17513041 241.46533489 226.14053726 C240.0362593 228.35587863 238.42913032 230.0297933 236.54066753 231.86555862 C235.91124752 232.48144348 235.28182751 233.09732834 234.63333416 233.73187637 C233.91445271 234.42465431 233.91445271 234.42465431 233.18104839 235.13142776 C234.59259449 235.13023437 234.59259449 235.13023437 236.03265667 235.12901688 C244.90519139 235.12541306 253.77714703 235.15321959 262.64949608 235.21170616 C267.21085203 235.24076711 271.77169377 235.25879589 276.333148 235.25154495 C280.73611739 235.24495296 285.13807056 235.26742825 289.54082966 235.3099823 C291.21968563 235.32111602 292.89864463 235.32181117 294.57750797 235.3118515 C296.93174903 235.29967634 299.28288929 235.32475616 301.63685894 235.35847855 C302.32953869 235.34625763 303.02221844 235.33403671 303.73588848 235.32144547 C306.49356945 235.39253533 308.59363507 235.63822143 310.74273968 237.44266129 C312.61203773 239.6084307 314.04509832 241.45213824 314.6131773 244.29060745 C313.55107879 250.75732835 311.26323191 256.43214379 308.55604839 262.38142776 C308.10092876 263.39632278 307.64580914 264.4112178 307.176898 265.45686722 C305.86356775 268.35741841 304.52757467 271.24616477 303.18104839 274.13142776 C302.69644146 275.18692825 302.69644146 275.18692825 302.20204449 276.26375198 C297.94663964 285.40544311 292.23660673 292.05505657 285.18104839 299.13142776 C284.33413433 300.00025589 283.48722027 300.86908401 282.61464214 301.76424026 C276.64628781 307.56973421 269.86292795 311.51459943 262.30604839 314.88142776 C261.68302837 315.16292679 261.06000835 315.44442581 260.41810894 315.73445511 C258.36086521 316.61332347 256.29139334 317.38885645 254.18104839 318.13142776 C252.98947124 318.55403885 252.98947124 318.55403885 251.77382183 318.98518753 C242.37960998 321.81842932 232.84522656 321.62066039 223.12391949 321.57747269 C220.15920486 321.56886434 217.19635958 321.59796827 214.23182964 321.62947464 C212.33990313 321.63108458 210.44797322 321.6305131 208.55604839 321.62752151 C207.67376568 321.63875549 206.79148296 321.64998947 205.88246441 321.66156387 C199.82252167 321.59239373 199.82252167 321.59239373 196.65370464 319.31526566 C194.56227032 316.21382666 194.24630573 313.85109601 194.18104839 310.13142776 C195.68095679 306.91733835 197.35242901 303.81702422 200.82460308 302.51521683 C204.17403664 301.96970195 207.50052181 301.99565299 210.88417339 301.99080276 C212.43887513 301.97243998 213.99356295 301.9528666 215.54823589 301.93220901 C217.97001966 301.9035747 220.39092181 301.88143599 222.81288433 301.88093948 C242.32627625 301.85268261 258.34615322 297.18999323 272.86854839 283.52986526 C278.67756709 277.50497088 282.44095044 270.84478942 285.88807964 263.29549026 C286.20700176 262.60431107 286.52592388 261.91313187 286.85451031 261.20100784 C287.63306927 259.51254914 288.40748754 257.82218217 289.18104839 256.13142776 C288.01576013 256.12811762 286.85047186 256.12480747 285.64987183 256.12139702 C257.9935403 256.04239378 230.33725708 255.95317936 202.68099969 255.85137615 C199.2776145 255.83885716 195.87422901 255.8264244 192.47084332 255.81404495 C191.79328531 255.81157896 191.11572731 255.80911296 190.41763725 255.80657224 C179.44409985 255.76683941 168.47055215 255.7340944 157.49698476 255.70392795 C146.2386167 255.67282318 134.98029258 255.6340699 123.72197169 255.58863771 C117.39770751 255.56335958 111.07347437 255.54158212 104.74917316 255.5280838 C98.79929864 255.51527546 92.84953049 255.49323417 86.89971447 255.46404457 C84.71358609 255.45495922 82.52744057 255.44927634 80.34129429 255.44721413 C77.36078101 255.4438984 74.38057059 255.42843939 71.40011883 255.40990067 C70.53143777 255.4118354 69.66275672 255.41377013 68.76775199 255.4157635 C63.65535349 255.36809616 59.71195288 254.93921668 55.43104839 251.88142776 C53.60400361 249.32356507 53.36800565 247.24738211 53.18104839 244.13142776 C54.21494114 240.08984705 55.63277208 238.26824085 59.18104839 236.13142776 C61.88303471 235.78018665 61.88303471 235.78018665 65.03465557 235.81344986 C66.23156017 235.81825363 67.42846478 235.8230574 68.66163921 235.82800674 C69.97176983 235.84829437 71.28190044 235.868582 72.63173199 235.88948441 C74.02829759 235.90011643 75.42487524 235.90925445 76.82145977 235.91701126 C79.82917981 235.93578196 82.83667005 235.96291193 85.84426785 235.99582481 C90.61193316 236.04568371 95.37937034 236.06306777 100.14726543 236.07342911 C101.78228864 236.07737982 103.41731176 236.08136744 105.05233479 236.08539104 C106.28070934 236.08839901 106.28070934 236.08839901 107.53389955 236.09146774 C118.6300954 236.12142673 129.72558757 236.17879949 140.82118511 236.29915237 C148.30958514 236.38011719 155.79689893 236.41775101 163.28574526 236.40751165 C167.24326802 236.40391239 171.19794285 236.4219735 175.15487576 236.49368858 C194.94701016 237.61699882 194.94701016 237.61699882 211.9881773 229.27376175 C213.86805324 227.30115378 215.49887714 225.28744359 217.18104839 223.13142776 C218.43113566 221.92210752 219.69594337 220.72711376 220.99354839 219.56892776 C225.36851367 215.01896388 229.29818064 210.10175436 233.18104839 205.13142776 C234.33927105 203.67543167 234.33927105 203.67543167 235.52089214 202.19002151 C249.10349839 184.24865346 258.07539015 163.68204655 264.18104839 142.13142776 C264.37376324 141.45128616 264.56647808 140.77114456 264.76503277 140.07039261 C269.11930901 124.18933172 269.50235639 108.22607272 269.59511089 91.88533401 C269.61386183 89.77684174 269.63343802 87.66835667 269.6537962 85.5598793 C269.70470922 80.06098586 269.74455112 74.5620682 269.78193951 69.06306839 C269.82223787 63.43149909 269.87321117 57.80002696 269.92323589 52.16853714 C270.0195105 41.15623602 270.1040674 30.1438795 270.18104839 19.13142776 C269.30153695 19.13427567 269.30153695 19.13427567 268.4042576 19.1371811 C233.66610831 19.24902998 198.92799494 19.33483949 164.1897039 19.38675441 C160.02023314 19.39300807 155.85076275 19.39947967 151.68129253 19.40608597 C150.85121318 19.40739752 150.02113383 19.40870907 149.16590055 19.41006037 C135.71884668 19.43182708 122.27189949 19.47125555 108.82490895 19.51719175 C95.03083009 19.56392122 81.23680717 19.59171572 67.4426524 19.60187024 C58.92833621 19.60873671 50.41432156 19.63043678 41.90009817 19.6710101 C36.06448292 19.69740521 30.22902395 19.70543614 24.39335332 19.69893465 C21.02439104 19.69572652 17.65638235 19.70341972 14.2874403 19.72745514 C10.63662713 19.75223081 6.98711765 19.7463878 3.33627605 19.73270035 C1.73559693 19.75454666 1.73559693 19.75454666 0.10258085 19.77683431 C-7.068987 19.70385891 -7.068987 19.70385891 -10.97464943 16.72275448 C-13.2789521 13.48510659 -13.55473365 11.9072975 -13.31504536 8.06502151 C-12.46428878 4.74908053 -10.45837407 3.15703105 -7.81895161 1.13142776 C-4.89890797 0.15807988 -3.03903343 0.00438236 0 0 Z M289.18104839 56.13142776 C287.33198364 69.31313045 287.33198364 69.31313045 291.53651714 81.13924026 C293.62008687 82.52828675 295.75404654 83.84412446 297.92714214 85.08845901 C306.45360895 90.44181093 311.05259797 100.47892433 313.53261089 109.94392776 C316.57365721 124.89268556 314.61005568 138.75447324 306.43104839 151.75642776 C298.87141184 162.51510447 289.17884017 168.93284563 276.71010113 172.92195511 C273.68868776 174.36689012 273.00429972 175.46319664 271.50526714 178.41267776 C271.07020855 179.25443558 270.63514996 180.09619339 270.18690777 180.96345901 C269.53431988 182.28410355 269.53431988 182.28410355 268.86854839 183.63142776 C268.1869566 184.9520723 268.1869566 184.9520723 267.49159527 186.29939651 C265.0962631 190.51463758 265.0962631 190.51463758 264.18104839 195.13142776 C281.17915266 196.34557807 298.2692083 188.97571677 311.00917339 178.08845901 C311.72589214 177.4426387 312.44261089 176.79681839 313.18104839 176.13142776 C313.81526714 175.57841995 314.44948589 175.02541214 315.10292339 174.45564651 C328.15289675 162.3584367 334.84522575 144.47296812 336.46229839 127.11189651 C337.15410119 106.04073639 329.27685704 87.07309715 314.94667339 71.74080276 C308.01982813 65.08559849 298.7206579 58.26681481 289.18104839 56.13142776 Z M289.18104839 103.13142776 C289.08307964 104.40373245 288.98511089 105.67603714 288.88417339 106.98689651 C288.00141181 117.60956274 286.66538771 127.95004134 284.41444683 138.37630081 C284.24074566 139.20428177 284.06704449 140.03226273 283.88807964 140.88533401 C283.72799419 141.61051224 283.56790874 142.33569046 283.40297222 143.08284378 C283.15731563 145.35050545 283.50250104 146.96853904 284.18104839 149.13142776 C291.08350094 143.3031321 295.51321092 136.11762719 297.11854839 127.13142776 C297.72353226 118.1666669 294.98646275 110.55964461 290.18104839 103.13142776 C289.85104839 103.13142776 289.52104839 103.13142776 289.18104839 103.13142776 Z " fill="#000000" transform="translate(139.8189516067505,190.86857223510742)"></path>
<path d="M0 0 C1.0046933 -0.00637985 2.0093866 -0.0127597 3.04452515 -0.01933289 C4.67111557 -0.02100212 4.67111557 -0.02100212 6.33056641 -0.02270508 C7.44646149 -0.02603348 8.56235657 -0.02936188 9.71206665 -0.03279114 C12.07415352 -0.03785681 14.43624755 -0.04019957 16.79833984 -0.04003906 C20.41076471 -0.04222341 24.02288318 -0.06037731 27.63525391 -0.0793457 C29.92952369 -0.08228012 32.22379493 -0.08426459 34.51806641 -0.08520508 C35.59841156 -0.09239059 36.67875671 -0.09957611 37.7918396 -0.10697937 C38.80283722 -0.10390274 39.81383484 -0.10082611 40.85546875 -0.09765625 C41.7413266 -0.09908127 42.62718445 -0.10050629 43.53988647 -0.10197449 C47.07546822 0.24528278 49.91954033 1.33270041 52.80712891 3.39526367 C54.66746044 5.99972782 54.9321568 7.95847507 55.05712891 11.14526367 C53.5283902 15.11998431 52.62932394 16.76380032 49.05712891 19.14526367 C47.06391907 19.38577271 47.06391907 19.38577271 44.76928711 19.37231445 C43.4782885 19.37208786 43.4782885 19.37208786 42.16120911 19.37185669 C41.23612045 19.36153412 40.3110318 19.35121155 39.35791016 19.34057617 C38.40772507 19.33774628 37.45753998 19.33491638 36.4785614 19.33200073 C33.44212276 19.32080082 30.40597848 19.29569655 27.36962891 19.27026367 C25.31169046 19.26023363 23.25374739 19.25110782 21.19580078 19.24291992 C16.14946331 19.2208621 11.10334603 19.18633349 6.05712891 19.14526367 C6.11881766 31.03880327 6.19625748 42.93213205 6.29284382 54.82544231 C6.33723676 60.35024699 6.37655781 65.87498316 6.40356445 71.39990234 C6.42991193 76.74932485 6.47052604 82.09847912 6.52031517 87.44773293 C6.53677443 89.47062612 6.54841703 91.49356547 6.55474281 93.51651573 C6.61439452 110.8679494 7.69622875 128.34244048 12.86962891 145.02026367 C13.12824707 145.88482178 13.38686523 146.74937988 13.65332031 147.64013672 C21.78920571 174.22344003 35.2002829 196.98401289 53.74462891 217.58276367 C54.17694824 218.07212402 54.60926758 218.56148437 55.0546875 219.06567383 C56.6658652 220.82069657 58.35930814 222.47365283 60.05712891 224.14526367 C60.91709473 225.07886719 61.77706055 226.0124707 62.66308594 226.97436523 C68.75001177 233.17311104 73.65544644 236.07480962 82.46337891 236.26245117 C85.83394618 236.27198686 89.18990779 236.16163555 92.55712891 236.02026367 C95.12916306 235.94592184 97.69939498 235.8879749 100.27233887 235.85818481 C101.8589957 235.83658321 103.44559314 235.78813986 105.03039551 235.70846558 C109.11039123 235.61838998 110.80736207 235.9448527 114.03710938 238.53637695 C116.54606078 241.77672681 116.79921415 243.26835181 116.55322266 247.21166992 C115.70246608 250.5276109 113.69655137 252.11966039 111.05712891 254.14526367 C108.11192251 255.12699914 106.17416615 255.28120226 103.10273743 255.30348206 C101.56938248 255.31816528 101.56938248 255.31816528 100.00505066 255.33314514 C98.88439713 255.3389006 97.76374359 255.34465607 96.60913086 255.35058594 C95.42851074 255.36048553 94.24789062 255.37038513 93.03149414 255.38058472 C89.79418446 255.40677601 86.55687999 255.42863665 83.31952691 255.4485867 C79.93623213 255.4704552 76.55298215 255.49783966 73.16972351 255.52464294 C66.76309945 255.57455815 60.3564505 255.61950132 53.94977778 255.66266531 C46.65598433 255.7120477 39.36223583 255.76696211 32.06848586 255.8223449 C17.0647421 255.93614695 2.060956 256.04298986 -12.94287109 256.14526367 C-11.6983558 258.86600299 -10.44600989 261.58266293 -9.18896484 264.29760742 C-8.84039429 265.06182007 -8.49182373 265.82603271 -8.13269043 266.61340332 C-5.20951256 272.90102536 -1.75690792 278.11951968 3.05712891 283.14526367 C3.72099609 283.8490918 4.38486328 284.55291992 5.06884766 285.27807617 C11.08399176 291.12644179 18.26385851 295.12704463 26.05712891 298.14526367 C26.73107067 298.40708687 27.40501244 298.66891006 28.09937668 298.9386673 C37.85560444 302.12368105 47.88331781 301.56293466 58.02294922 301.5300293 C60.14126883 301.53413928 62.25958619 301.53960267 64.37789917 301.54631042 C68.92147643 301.55799496 73.46493236 301.56053435 78.00852203 301.55595398 C85.19444439 301.54912431 92.38020796 301.56504514 99.56610107 301.58435059 C116.11023225 301.62535341 132.65435871 301.63675496 149.1985321 301.64788055 C164.37731766 301.65839008 179.55602657 301.67515475 194.73476481 301.71597624 C201.87729602 301.73432882 209.01964461 301.73822649 216.16219378 301.73104095 C220.60279814 301.72951946 225.043311 301.74030008 229.48389053 301.75441933 C231.5418043 301.75842237 233.59973545 301.75729631 235.65764236 301.75064659 C238.46837607 301.74226191 241.27847673 301.75225891 244.08917236 301.76672363 C245.3079998 301.75638273 245.3079998 301.75638273 246.55145001 301.74583292 C251.77023957 301.79809484 255.44416209 302.64069926 260.05712891 305.14526367 C262.5246413 308.84653226 262.36434046 310.76749899 262.05712891 315.14526367 C260.86945035 318.52557956 260.15887665 319.07743184 257.05712891 321.14526367 C254.11732261 321.34377736 251.27190659 321.42342015 248.33135986 321.41268921 C246.97744192 321.41948588 246.97744192 321.41948588 245.59617209 321.42641985 C242.55869221 321.4391228 239.52139029 321.43743963 236.48388672 321.43579102 C234.31076323 321.441773 232.13764186 321.44857778 229.96452332 321.45614624 C224.04858191 321.47385726 218.13269833 321.47850405 212.21673298 321.47977781 C208.51781168 321.48119827 204.81890513 321.48546609 201.11998749 321.49077225 C187.53832738 321.51025479 173.95671286 321.51730064 160.37503979 321.51562138 C149.02405719 321.5147603 137.67325954 321.53747237 126.3223145 321.56735647 C115.99513256 321.59357163 105.66800926 321.60423408 95.34079432 321.60295832 C89.17715677 321.60244978 83.01367907 321.60807174 76.85007477 321.62931442 C71.0420787 321.64878233 65.23439337 321.64876287 59.42638588 321.63428116 C57.30410365 321.63220183 55.18180155 321.63684118 53.05955315 321.64900208 C37.96348596 321.7298412 24.35174599 320.61110357 10.74462891 313.39526367 C10.07931152 313.05092285 9.41399414 312.70658203 8.72851562 312.35180664 C2.93168413 309.25706703 -2.106665 305.60376946 -6.94287109 301.14526367 C-7.79494141 300.37311523 -8.64701172 299.6009668 -9.52490234 298.80541992 C-22.72520033 286.27800069 -35.59308627 263.43844658 -38.41162109 245.09448242 C-37.78494339 241.15163517 -35.97556939 238.63970965 -32.94287109 236.14526367 C-30.14395035 235.53555799 -28.19041135 235.3230601 -25.39868164 235.37231445 C-24.65668015 235.36168472 -23.91467865 235.35105499 -23.15019226 235.34010315 C-20.70929665 235.31210472 -18.2705718 235.32609531 -15.82958984 235.34057617 C-14.13277807 235.32932338 -12.43598187 235.31544156 -10.73921204 235.29904175 C-6.28222857 235.26301001 -1.82593114 235.2626293 2.63116455 235.26971436 C7.18278265 235.27062738 11.7341438 235.23776719 16.28564453 235.20776367 C25.20954451 235.15390753 34.13308436 235.13771885 43.05712891 235.14526367 C42.57850906 234.67008804 42.09988922 234.19491241 41.60676575 233.70533752 C40.9778392 233.07908981 40.34891266 232.4528421 39.70092773 231.80761719 C39.07793289 231.18806656 38.45493805 230.56851593 37.81306458 229.93019104 C5.77951301 197.36774363 -12.93818286 149.59993698 -13.13574219 104.19702148 C-13.14391968 103.14059952 -13.15209717 102.08417755 -13.16052246 100.9957428 C-13.18516506 97.52996365 -13.2018283 94.06422453 -13.21630859 90.59838867 C-13.22163227 89.41033379 -13.22695595 88.2222789 -13.23244095 86.99822235 C-13.25906674 80.72253568 -13.27848436 74.44686828 -13.29296875 68.17114258 C-13.30635901 62.97988467 -13.33432047 57.78901506 -13.375 52.59790039 C-13.42420152 46.31755756 -13.44907231 40.03756927 -13.45619583 33.75704193 C-13.46291862 31.36638253 -13.47816712 28.97573138 -13.50208664 26.58518219 C-13.53359964 23.24833912 -13.53379662 19.91287967 -13.52636719 16.57592773 C-13.54277252 15.58881302 -13.55917786 14.6016983 -13.57608032 13.58467102 C-13.53377471 8.95151459 -13.46997902 6.83852794 -10.59390259 3.05584717 C-6.95899318 0.43618839 -4.36276678 0.01880653 0 0 Z " fill="#000000" transform="translate(54.94287109375,190.854736328125)"></path>
<path d="M0 0 C3.52600717 0.28892032 4.59392273 0.81574591 7.625 2.9375 C11.60117009 8.67026578 8.88744824 17.0715535 7.9609375 23.4765625 C7.33458734 28.56155286 7.27755453 33.63174558 7.25 38.75 C7.229375 39.67683594 7.20875 40.60367188 7.1875 41.55859375 C7.10659039 56.46618928 11.3065703 70.16369379 16.0625 84.125 C23.63901398 106.53218945 26.91907286 127.70528207 19.5 150.75 C19.29681152 151.38744141 19.09362305 152.02488281 18.88427734 152.68164062 C15.1912655 163.93156848 15.1912655 163.93156848 10.5 166.75 C7.48630586 167.75456471 5.94382472 167.87680706 2.875 167 C0.4760576 165.73739874 -0.92844565 164.95017608 -2.5 162.75 C-4.29254785 156.88263977 -2.46828056 152.28697671 -0.625 146.6875 C-0.06318952 144.92639089 0.49676584 143.1646887 1.0546875 141.40234375 C1.30718262 140.62882568 1.55967773 139.85530762 1.81982422 139.05834961 C6.28604972 123.90107678 3.46697845 108.91399424 -1.59277344 94.36230469 C-10.82443948 67.78027384 -15.39502883 43.15543026 -11.3125 14.875 C-11.21179199 14.12758545 -11.11108398 13.3801709 -11.00732422 12.61010742 C-9.96573966 6.57438425 -7.06039621 -0.1491633 0 0 Z " fill="#000000" transform="translate(269.5,-0.75)"></path>
<path d="M0 0 C3.95174256 6.6389275 1.30278887 15.53868683 0.01953125 22.73046875 C-2.23316448 36.99754171 2.42637595 50.3033596 8.0625 63.25 C16.99079779 83.90112911 19.19715196 100.37315865 10.87890625 121.546875 C7.15153021 130.26251987 7.15153021 130.26251987 3.3125 132.625 C-1.14940403 133.81484108 -3.24143576 133.48095149 -7.4375 131.625 C-10.01322291 129.38162843 -10.37631541 127.99210755 -10.9375 124.625 C-10.75582908 119.92174173 -8.55115209 115.86019539 -6.68359375 111.6171875 C-1.76598659 99.80876404 -3.08417465 89.37926282 -7.57299805 77.66064453 C-8.83390161 74.63616479 -10.12531861 71.62757978 -11.4375 68.625 C-19.35235278 50.51395451 -22.05046996 34.32226167 -19.1875 14.6875 C-19.07825195 13.88272217 -18.96900391 13.07794434 -18.85644531 12.2487793 C-17.93579766 6.46211011 -16.38561887 1.96316324 -11.625 -1.8125 C-7.36451871 -2.90805233 -3.78529061 -2.13529214 0 0 Z " fill="#000000" transform="translate(205.4375,33.375)"></path>
</svg>