<?xml version="1.0" encoding="UTF-8"?>
<svg version="1.1" xmlns="http://www.w3.org/2000/svg" width="512" height="512">
<path d="M0 0 C4.329632 0.54071422 8.36279236 1.63012668 12.51025391 2.96191406 C13.38190186 3.23406738 14.2535498 3.5062207 15.15161133 3.78662109 C22.29866702 6.08018285 29.021797 8.89904598 35.69775391 12.33691406 C36.9083121 12.92753588 38.11926699 13.51734515 39.33056641 14.10644531 C48.72321082 18.77974633 56.71298672 24.56429825 64.69775391 31.33691406 C66.07447266 32.48353516 66.07447266 32.48353516 67.47900391 33.65332031 C73.65494922 38.98102623 78.76050766 44.85836625 83.69775391 51.33691406 C84.50083984 52.37460937 85.30392578 53.41230469 86.13134766 54.48144531 C106.79654162 81.82184101 115.68195735 114.93904919 120.69775391 148.33691406 C121.41576172 147.75425781 122.13376953 147.17160156 122.87353516 146.57128906 C169.23846306 109.58499998 230.05930235 89.64559157 289.13525391 88.96191406 C290.38757813 88.92453125 291.63990234 88.88714844 292.93017578 88.84863281 C294.1309375 88.83703125 295.33169922 88.82542969 296.56884766 88.81347656 C297.65093506 88.79365723 298.73302246 88.77383789 299.84790039 88.75341797 C302.69775391 89.33691406 302.69775391 89.33691406 305.05639648 91.1418457 C307.5596916 96.01476304 307.19064146 100.58350368 307.08837891 105.98144531 C307.08271912 107.10636887 307.07705933 108.23129242 307.07122803 109.39030457 C307.04886859 112.9771104 306.99867058 116.56291102 306.94775391 120.14941406 C306.92768846 122.58364441 306.90943777 125.01789044 306.89306641 127.45214844 C306.84900514 133.41407895 306.78209634 139.37542468 306.69775391 145.33691406 C307.8148877 145.6356543 307.8148877 145.6356543 308.95458984 145.94042969 C309.93717773 146.20533203 310.91976563 146.47023437 311.93212891 146.74316406 C312.90375977 147.00419922 313.87539063 147.26523438 314.87646484 147.53417969 C318.58058784 148.58810461 322.1324215 149.88967554 325.69775391 151.33691406 C326.33841797 151.58441406 326.97908203 151.83191406 327.63916016 152.08691406 C333.86014707 154.58050381 333.86014707 154.58050381 335.69775391 157.33691406 C336.38525391 160.52441406 336.38525391 160.52441406 336.69775391 163.33691406 C337.97650391 163.29050781 339.25525391 163.24410156 340.57275391 163.19628906 C342.2810637 163.15874379 343.98939899 163.12234661 345.69775391 163.08691406 C346.53693359 163.05339844 347.37611328 163.01988281 348.24072266 162.98535156 C354.24832059 162.89221051 358.69165837 163.92159631 363.69775391 167.33691406 C367.81852006 171.66900155 368.82131529 174.90458276 368.83197498 180.78056049 C368.83643283 181.9184204 368.84089067 183.05628031 368.8454836 184.22862083 C368.84520706 186.11204768 368.84520706 186.11204768 368.84492493 188.03352356 C368.8482238 189.37652257 368.85194942 190.71952059 368.85606641 192.06251734 C368.86609166 195.76107018 368.86980403 199.45960679 368.87245572 203.1581713 C368.87635714 207.14396266 368.88593549 211.12974114 368.89466858 215.11552429 C368.91443616 224.74434128 368.92449894 234.37315933 368.93339637 244.00199154 C368.93777823 248.53441135 368.94314525 253.06683 368.94838524 257.59924889 C368.96539676 272.66209705 368.97989199 287.72494449 368.98713398 302.78780079 C368.98904392 306.69715692 368.99096425 310.60651304 368.99291992 314.51586914 C368.99340366 315.48753919 368.9938874 316.45920924 368.9943858 317.46032383 C369.00269007 333.2085745 369.02803402 348.9567493 369.0605006 364.70496682 C369.09354826 380.86652966 369.11158061 397.0280539 369.11477822 413.18965071 C369.1169453 422.26660121 369.12572293 431.34344104 369.1512394 440.42035866 C369.17291499 448.14887508 369.18101229 455.87725396 369.17127261 463.60579733 C369.16671893 467.54986301 369.16867578 471.49364469 369.18803406 475.43767166 C369.20560266 479.04820359 369.20471993 482.65824302 369.18913677 486.26877972 C369.18562071 488.19386759 369.20183392 490.11896025 369.21874124 492.04397708 C369.17092687 498.42794181 369.09232989 502.53477295 364.69775391 507.33691406 C359.19871334 512.29946287 354.85646862 512.48790803 347.69036865 512.49754333 C346.75761085 512.50263115 345.82485304 512.50771897 344.86382985 512.51296097 C341.72481386 512.52871116 338.58582092 512.53721726 335.44677734 512.5456543 C333.20156202 512.55519058 330.95634818 512.56508164 328.71113586 512.57530212 C321.32648467 512.60670952 313.94182212 512.62695455 306.55712891 512.64550781 C305.3015194 512.64880513 304.0459099 512.65210246 302.75225163 512.6554997 C290.91496749 512.68627825 279.07768027 512.71315223 267.24036789 512.72991848 C264.49911236 512.73386792 261.75785691 512.73787092 259.01660156 512.74194336 C257.9946244 512.7434559 257.9946244 512.7434559 256.95200124 512.744999 C245.91521577 512.76200575 234.87865452 512.80311598 223.84197852 512.85396635 C212.50894692 512.90575238 201.17607329 512.93437947 189.8429091 512.94211537 C183.48044691 512.94707663 177.11838336 512.96220375 170.75603485 513.00185966 C164.77069753 513.03867417 158.78598741 513.0471523 152.80055809 513.03385353 C150.60394217 513.03390756 148.40729881 513.04423756 146.21078682 513.06560516 C143.21078964 513.09322875 140.21308906 513.08380338 137.21307373 513.06517029 C135.91018736 513.09036268 135.91018736 513.09036268 134.58098006 513.11606401 C129.00724023 513.0295931 126.20646851 511.81384907 122.28510594 507.8191238 C118.86584982 504.6263508 115.53573457 503.8413659 110.85791016 503.94628906 C106.39367901 504.75356413 102.29882324 507.50292268 99.33319408 510.89998877 C96.41132625 513.46719108 92.39594365 512.74615407 88.68363953 512.71786499 C87.28344447 512.72488495 87.28344447 512.72488495 85.85496265 512.73204672 C82.71346848 512.74405411 79.57240594 512.73451692 76.4309082 512.72509766 C74.18406926 512.72916088 71.93723231 512.73450136 69.69039917 512.74102783 C63.57668301 512.75473913 57.46311823 512.7493864 51.34939933 512.73989058 C44.95801104 512.73231092 38.56663597 512.73933513 32.17524719 512.74404907 C20.7488903 512.74986306 9.32261742 512.74051959 -2.10372528 512.72527106 C-12.46086738 512.71187703 -22.81790857 512.71418721 -33.17504883 512.72802734 C-45.20044622 512.74408922 -57.22576737 512.75005331 -69.2511794 512.74119055 C-75.61737598 512.73651103 -81.98350308 512.73589667 -88.34969521 512.74580002 C-94.33738372 512.75446312 -100.32488167 512.74845952 -106.31254959 512.73111725 C-108.51116939 512.7271484 -110.70980521 512.72829324 -112.90841866 512.73490524 C-115.90822295 512.74309518 -118.90741553 512.73282946 -121.90718079 512.71786499 C-123.21443641 512.72790324 -123.21443641 512.72790324 -124.54810125 512.73814428 C-130.23366328 512.68308131 -134.61991286 511.84084984 -138.94677734 507.80175781 C-142.04181351 503.75440283 -143.42313206 501.71084787 -143.46337891 496.65942383 C-143.47298645 495.68824112 -143.48259399 494.71705841 -143.49249268 493.71644592 C-143.49674255 492.66436447 -143.50099243 491.61228302 -143.50537109 490.52832031 C-143.51107117 489.45065903 -143.51677124 488.37299774 -143.52264404 487.26268005 C-143.53210133 484.98038721 -143.53863091 482.69808067 -143.54248047 480.41577148 C-143.55219659 476.91723966 -143.58321793 473.41929254 -143.61474609 469.92089844 C-143.62127488 467.70670923 -143.62652584 465.49251581 -143.63037109 463.27832031 C-143.6427179 462.22826309 -143.6550647 461.17820587 -143.66778564 460.09632874 C-143.66478455 459.12199387 -143.66178345 458.147659 -143.65869141 457.14379883 C-143.66233704 456.28601334 -143.66598267 455.42822784 -143.66973877 454.54444885 C-143.21591466 451.81831968 -142.50624196 450.96507418 -140.30224609 449.33691406 C-136.81848568 448.51347978 -134.35140951 447.97798974 -130.92724609 449.14941406 C-129.30224609 450.33691406 -129.30224609 450.33691406 -128.30224609 452.33691406 C-128.18477132 453.75574288 -128.12539181 455.17962821 -128.09692383 456.60302734 C-128.07697861 457.48378937 -128.05703339 458.36455139 -128.03648376 459.27200317 C-128.01977127 460.22412689 -128.00305878 461.17625061 -127.98583984 462.15722656 C-127.96505875 463.13102264 -127.94427765 464.10481873 -127.92286682 465.10812378 C-127.85736012 468.22598053 -127.79848112 471.3439231 -127.73974609 474.46191406 C-127.69656194 476.5726001 -127.65294769 478.68327739 -127.60888672 480.79394531 C-127.50167763 485.97484357 -127.39991332 491.15582763 -127.30224609 496.33691406 C-99.03391972 496.34647084 -70.76580149 496.32186239 -42.49754429 496.25663567 C-29.37193713 496.22714502 -16.24649188 496.20881379 -3.12084961 496.21679688 C8.32012874 496.22372698 19.76085649 496.20967467 31.20177323 496.17047799 C37.25913014 496.1504568 43.31609356 496.1409079 49.37347221 496.15649033 C55.07735422 496.17083175 60.78048477 496.15707414 66.4842701 496.12196159 C68.57518806 496.11400679 70.66617397 496.11623163 72.75706482 496.12952232 C86.36215958 496.69568814 86.36215958 496.69568814 98.08393955 490.75651741 C102.53775093 486.83869035 109.47660283 486.94831818 115.11572266 487.08691406 C121.12792779 487.66903377 126.07977318 489.01030215 130.78535557 492.86849499 C135.06388345 495.94350281 138.66746077 496.04254647 143.81565857 495.97615051 C144.70970398 495.98450424 145.60374939 495.99285797 146.52488708 496.00146484 C149.51837307 496.02339383 152.51062933 496.0097511 155.50415039 495.99633789 C157.68769528 496.00483178 159.87123258 496.01551263 162.05475712 496.0282011 C167.89711913 496.05612153 173.73911181 496.0541473 179.58152008 496.04595184 C185.06571311 496.04279636 190.54965972 496.06663921 196.03381348 496.08825684 C212.06756958 496.13574809 228.10143027 496.1399403 244.13525391 496.14941406 C279.96087891 496.21128906 315.78650391 496.27316406 352.69775391 496.33691406 C352.69775391 391.72691406 352.69775391 287.11691406 352.69775391 179.33691406 C347.41775391 179.33691406 342.13775391 179.33691406 336.69775391 179.33691406 C336.70144108 180.86296359 336.70512825 182.38901312 336.70892715 183.96130657 C336.79552202 220.17075576 336.86149765 256.38019058 336.90201522 292.58972169 C336.90701817 297.04459654 336.91219545 301.49947118 336.91748047 305.9543457 C336.91852971 306.84124674 336.91957895 307.72814777 336.92065999 308.6419246 C336.93807448 323.01043576 336.96961791 337.37888303 337.00636509 351.74735626 C337.04374547 366.48612815 337.06598361 381.22486655 337.07410789 395.9636839 C337.07960169 405.0614272 337.09696545 414.15898994 337.12941977 423.25667766 C337.15053185 429.49175032 337.15696147 435.72672935 337.15175942 441.96183517 C337.14919245 445.56147717 337.15318103 449.16080322 337.17457581 452.76038933 C337.19758792 456.66050164 337.18972404 460.5602 337.17877197 464.46037292 C337.19042334 465.60142036 337.2020747 466.7424678 337.21407914 467.91809243 C337.20611495 468.96261616 337.19815075 470.00713989 337.18994522 471.08331585 C337.1914641 471.98363275 337.19298298 472.88394966 337.19454789 473.81154889 C336.50119995 477.33606164 335.35156578 478.92108617 332.69775391 481.33691406 C330.03631474 481.84032551 328.00542019 482.01097518 325.34509277 481.96611977 C324.22564065 481.97702057 324.22564065 481.97702057 323.08357334 481.9881416 C320.56839278 482.00647299 318.05472166 481.98899974 315.53955078 481.97183228 C313.72402921 481.97759028 311.90851345 481.98552923 310.09300995 481.9954685 C305.09291971 482.0164092 300.09330445 482.00599391 295.09321213 481.99053741 C289.70525587 481.9792573 284.31738318 481.99666997 278.92944336 482.01043701 C268.37007758 482.03270971 257.81088917 482.02785027 247.25151634 482.01337381 C238.67230138 482.00209741 230.09313625 482.00054373 221.51391602 482.00599289 C220.29445392 482.00675905 219.07499183 482.00752522 217.81857634 482.0083146 C215.34152538 482.00991317 212.86447444 482.01153424 210.38742352 482.01317756 C187.14157385 482.02744688 163.89582265 482.01102377 140.64998913 481.98417573 C120.68929889 481.96183591 100.72875402 481.9657157 80.76806641 481.98876953 C57.60732884 482.01550664 34.44667766 482.02607347 11.28592682 482.01070821 C8.81781516 482.00911541 6.34970348 482.00754356 3.8815918 482.00599289 C2.66712608 482.00522151 1.45266036 482.00445013 0.20139265 482.00365538 C-8.37088622 481.99933211 -16.94311045 482.00663843 -25.51538086 482.01839066 C-35.95732429 482.03239098 -46.39907971 482.0286677 -56.84100151 482.00198694 C-62.17213162 481.98881555 -67.5029479 481.98375288 -72.83407593 482.0002327 C-77.7095937 482.01507655 -82.58450524 482.00703644 -87.45996761 481.98034494 C-89.22840745 481.97473625 -90.99689798 481.97765349 -92.76530552 481.98972388 C-95.16080394 482.00482665 -97.55419836 481.98944514 -99.94958496 481.96611977 C-100.64384551 481.9778256 -101.33810606 481.98953143 -102.05340481 482.00159198 C-105.59778116 481.93212385 -107.07720786 481.5417717 -109.73102546 479.12593859 C-111.42817625 476.11337939 -111.80021307 474.50684067 -111.79443741 471.08331585 C-111.8024016 470.03879212 -111.8103658 468.99426839 -111.81857133 467.91809243 C-111.80691996 466.77704499 -111.7952686 465.63599756 -111.78326416 464.46037292 C-111.78668186 463.24328575 -111.79009956 462.02619857 -111.79362082 460.77222997 C-111.79907082 457.39691274 -111.78656971 454.02252307 -111.76650858 450.64731801 C-111.74923589 447.00660866 -111.75508014 443.365928 -111.75811768 439.72518921 C-111.76021516 433.41841532 -111.74766442 427.11180695 -111.72516632 420.80507469 C-111.69265911 411.68662553 -111.68224062 402.56825641 -111.67721435 393.44975559 C-111.66845969 378.65566734 -111.64183947 363.8616673 -111.60400391 349.06762695 C-111.56728825 334.69653769 -111.53897431 320.32547239 -111.52197266 305.9543457 C-111.52092176 305.06852163 -111.51987087 304.18269756 -111.51878813 303.27003034 C-111.51356798 298.8261145 -111.50851315 294.38219849 -111.50354052 289.93828237 C-111.46207314 253.07109671 -111.39132271 216.20401368 -111.30224609 179.33691406 C-116.58224609 179.33691406 -121.86224609 179.33691406 -127.30224609 179.33691406 C-127.30371265 180.54435398 -127.30517921 181.7517939 -127.30669022 182.99582291 C-127.34237755 211.64577203 -127.39859746 240.29563199 -127.48016705 268.94548626 C-127.49018473 272.47033027 -127.50002882 275.99517474 -127.50976562 279.52001953 C-127.511707 280.22176476 -127.51364837 280.92350999 -127.51564857 281.64652023 C-127.54668578 293.01520001 -127.56365401 304.38385959 -127.57544032 315.75257376 C-127.58784299 327.41438047 -127.61562251 339.07607499 -127.65685916 350.73781562 C-127.67953709 357.28956404 -127.69515298 363.84116081 -127.69412994 370.39295197 C-127.69338707 376.55549034 -127.71118751 382.71769265 -127.74341393 388.88014412 C-127.75195582 391.14570395 -127.75363401 393.41130129 -127.74804878 395.67687035 C-127.74145194 398.76310661 -127.7592262 401.84826006 -127.78326416 404.93438721 C-127.77550374 405.83710869 -127.76774333 406.73983017 -127.75974774 407.66990685 C-127.84312072 413.68977255 -127.84312072 413.68977255 -130.11593246 416.89332199 C-133.33741354 419.02042054 -135.53227725 418.87548104 -139.30224609 418.33691406 C-141.48925018 416.89986897 -141.48925018 416.89986897 -143.30224609 414.33691406 C-143.90004458 411.17113611 -143.84157068 408.04329366 -143.81018066 404.82963562 C-143.81954061 403.36796399 -143.81954061 403.36796399 -143.82908964 401.87676364 C-143.84507982 398.60241277 -143.8323914 395.32880012 -143.81982422 392.05444336 C-143.82524275 389.71055669 -143.83236388 387.36667342 -143.84106445 385.02279663 C-143.85933559 378.64871526 -143.85221369 372.27489221 -143.83954811 365.90080619 C-143.83046096 359.91028167 -143.83739004 353.91978107 -143.84325689 347.92925725 C-143.85466708 335.33757632 -143.84154354 322.7460118 -143.82005543 310.15434996 C-143.80219643 299.3552016 -143.80527773 288.5562253 -143.82373047 277.75708008 C-143.84515093 265.21526739 -143.85355531 252.6735569 -143.84128141 240.13172847 C-143.83496111 233.49331494 -143.83421688 226.85499726 -143.84742737 220.21658897 C-143.85898384 213.97275249 -143.85096325 207.72924071 -143.82785034 201.4854393 C-143.82256157 199.19371263 -143.82407987 196.90195864 -143.832901 194.61024284 C-143.84383331 191.48150761 -143.83011961 188.35381242 -143.81018066 185.22514343 C-143.82356499 183.86491602 -143.82356499 183.86491602 -143.83721972 182.47720927 C-143.76458082 176.5997823 -142.73301811 173.15095394 -139.30224609 168.33691406 C-134.8760743 164.90437267 -131.43792268 163.20177529 -125.85302734 163.23925781 C-125.00546875 163.24248047 -124.15791016 163.24570313 -123.28466797 163.24902344 C-122.40359375 163.25740234 -121.52251953 163.26578125 -120.61474609 163.27441406 C-119.27573242 163.28118164 -119.27573242 163.28118164 -117.90966797 163.28808594 C-115.70712623 163.29986424 -113.5047201 163.31631242 -111.30224609 163.33691406 C-111.20943359 161.97566406 -111.20943359 161.97566406 -111.11474609 160.58691406 C-110.30224609 157.33691406 -110.30224609 157.33691406 -108.48193359 155.24316406 C-103.71806282 152.38718257 -98.66005594 150.65771081 -93.42724609 148.83691406 C-91.75335815 148.24535522 -91.75335815 148.24535522 -90.0456543 147.6418457 C-69.0983799 140.33691406 -69.0983799 140.33691406 -61.30224609 140.33691406 C-61.31112854 139.02004105 -61.32001099 137.70316803 -61.3291626 136.34638977 C-61.41021349 123.94228468 -61.47019488 111.53823324 -61.50949478 99.13392353 C-61.53037843 92.75656926 -61.55871093 86.37942859 -61.60400391 80.00219727 C-61.64743293 73.84897446 -61.67137734 67.69595723 -61.68175507 61.542593 C-61.68915165 59.19380646 -61.70359523 56.8450313 -61.72516632 54.49633217 C-61.75416028 51.20897643 -61.75820365 47.92247258 -61.75634766 44.63500977 C-61.77072876 43.66180786 -61.78510986 42.68860596 -61.79992676 41.68591309 C-61.77347985 37.3630786 -61.69846892 34.98490652 -59.40155029 31.22846985 C-57.30224609 29.33691406 -57.30224609 29.33691406 -55.25927734 28.77392578 C-49.72913191 29.07737866 -44.63262985 29.96184722 -39.30224609 31.46191406 C-38.49424561 31.68129639 -37.68624512 31.90067871 -36.85375977 32.12670898 C-28.52023856 34.44711815 -20.41315683 37.34484212 -12.30224609 40.33691406 C-12.28822754 38.78580933 -12.28822754 38.78580933 -12.27392578 37.20336914 C-12.23395189 33.3544663 -12.1681736 29.5063566 -12.09472656 25.65795898 C-12.0665596 23.99465144 -12.04532377 22.3312111 -12.03125 20.66772461 C-12.00976017 18.27160882 -11.96308321 15.87708222 -11.91162109 13.48144531 C-11.91039246 12.74166946 -11.90916382 12.00189362 -11.90789795 11.23970032 C-11.80755844 7.675931 -11.36989868 5.45220027 -9.55395508 2.35766602 C-6.26935943 -0.59002977 -4.23286671 -0.22176221 0 0 Z M4.69775391 18.33691406 C4.69775391 113.04691406 4.69775391 207.75691406 4.69775391 305.33691406 C12.61775391 307.97691406 20.53775391 310.61691406 28.69775391 313.33691406 C64.6765001 330.72664139 85.94974847 355.1005556 103.69775391 390.33691406 C104.02775391 390.33691406 104.35775391 390.33691406 104.69775391 390.33691406 C104.76640518 360.77380176 104.81939252 331.21069326 104.85094989 301.64751779 C104.85470137 298.14587111 104.8585844 294.64422458 104.86254883 291.14257812 C104.86333576 290.44555448 104.86412269 289.74853084 104.86493347 289.03038527 C104.87793613 277.79023365 104.90156115 266.55012874 104.92921229 255.3100047 C104.95741043 243.74987353 104.97373628 232.18976935 104.98001939 220.62960541 C104.98390964 214.14769619 104.99296838 207.66589241 105.01494408 201.18401718 C105.03551592 195.06584682 105.04154646 188.94782394 105.03707695 182.82962227 C105.03789299 180.60062543 105.04373393 178.37162294 105.05537033 176.14265633 C105.26901561 133.05473692 94.99500814 89.8468204 66.69775391 56.33691406 C66.03259766 55.52480469 65.36744141 54.71269531 64.68212891 53.87597656 C52.92187083 40.06856245 37.79231733 30.81826854 21.38525391 23.46191406 C20.75184082 23.17541992 20.11842773 22.88892578 19.46582031 22.59375 C14.47298799 20.44008083 10.20952907 19.56175299 4.69775391 18.33691406 Z M-45.30224609 47.33691406 C-45.30224609 142.04691406 -45.30224609 236.75691406 -45.30224609 334.33691406 C-37.38224609 336.64691406 -29.46224609 338.95691406 -21.30224609 341.33691406 C-17.09909959 342.86597751 -13.06583661 344.36928707 -8.98974609 346.14941406 C-8.0066748 346.5704541 -7.02360352 346.99149414 -6.01074219 347.42529297 C18.92690768 358.28582312 41.47973484 372.86255775 61.48291016 391.30957031 C63.44946768 393.10964678 65.46316193 394.81779476 67.51025391 396.52441406 C79.88654926 407.3536725 90.73258259 420.58893772 99.69775391 434.33691406 C101.23852947 429.71458736 99.5369426 425.9361919 98.26025391 421.33691406 C97.98947021 420.3566626 97.71868652 419.37641113 97.43969727 418.36645508 C90.41115551 393.83682457 78.32891431 371.8028832 60.69775391 353.33691406 C59.89337891 352.43779297 59.89337891 352.43779297 59.07275391 351.52050781 C44.08396912 335.37009221 22.51529417 326.06374705 1.69775391 320.33691406 C-0.32445747 319.7793885 -2.34562175 319.21801804 -4.36474609 318.64941406 C-5.09822266 318.45992188 -5.83169922 318.27042969 -6.58740234 318.07519531 C-8.30224609 317.33691406 -8.30224609 317.33691406 -10.30224609 314.33691406 C-10.55705512 312.32283908 -10.55705512 312.32283908 -10.56395912 309.9697237 C-10.57142461 309.07200129 -10.57889011 308.17427888 -10.58658183 307.24935275 C-10.58464709 306.26200851 -10.58271236 305.27466427 -10.58071899 304.25740051 C-10.5894076 302.68547149 -10.5894076 302.68547149 -10.59827173 301.08178633 C-10.61534254 297.55327278 -10.61815433 294.02488947 -10.62109375 290.49633789 C-10.63038703 287.97375668 -10.6405548 285.45117856 -10.65153503 282.92860413 C-10.67323726 277.48892413 -10.68882867 272.04928065 -10.69890213 266.60956764 C-10.71347721 258.74463387 -10.7390107 250.87976585 -10.76723342 243.01487061 C-10.81272274 230.2551297 -10.84932868 217.49537933 -10.88037109 204.7355957 C-10.91054788 192.33941996 -10.94489413 179.94326735 -10.98486328 167.54711914 C-10.98732483 166.78323644 -10.98978638 166.01935375 -10.99232252 165.23232309 C-11.00469695 161.40021253 -11.01715352 157.56810224 -11.02965093 153.73599207 C-11.13325077 121.93633063 -11.2222958 90.13664403 -11.30224609 58.33691406 C-13.7004419 57.370478 -16.0992883 56.40571495 -18.49853516 55.44189453 C-19.1732486 55.1697966 -19.84796204 54.89769867 -20.54312134 54.61735535 C-25.32364145 52.69899369 -30.11896126 50.9500537 -35.05224609 49.46191406 C-36.05771484 49.14480469 -36.05771484 49.14480469 -37.08349609 48.82128906 C-39.93879495 47.94185701 -42.2957351 47.33691406 -45.30224609 47.33691406 Z M263.94775391 106.46191406 C262.36293213 106.65986572 262.36293213 106.65986572 260.74609375 106.86181641 C232.36651367 110.65382556 204.4060433 118.65594559 178.69775391 131.33691406 C177.87114258 131.74135742 177.04453125 132.14580078 176.19287109 132.5625 C158.03987331 141.52769289 141.15982218 152.23451886 125.69775391 165.33691406 C124.38858112 166.30109898 124.38858112 166.30109898 123.0529604 167.28476238 C119.5127141 171.87262707 120.02053527 175.99827166 120.09648132 181.64399719 C120.0922092 182.79983108 120.08793707 183.95566497 120.08353549 185.14652413 C120.07672485 188.35084839 120.09234367 191.55416069 120.1174258 194.75836527 C120.13902237 198.21502358 120.13171096 201.67163488 120.12791443 205.12834167 C120.12529291 211.11594631 120.14097749 217.10327849 120.16910362 223.09081459 C120.20974256 231.7477335 120.22276122 240.40452069 120.22904358 249.06152465 C120.23998617 263.10692771 120.27325934 277.15218555 120.32055664 291.19750977 C120.36645319 304.84105706 120.40184462 318.48456492 120.4230957 332.12817383 C120.42440932 332.96919296 120.42572294 333.8102121 120.42707636 334.67671666 C120.43360156 338.89587134 120.4399201 343.11502629 120.44613588 347.33418143 C120.49796777 382.33519582 120.58603203 417.33604155 120.69775391 452.33691406 C122.14082164 451.37977442 123.58324307 450.4216603 125.02539062 449.46313477 C125.82870819 448.92968948 126.63202576 448.3962442 127.45968628 447.84663391 C129.97592424 446.14927037 132.40345113 444.35685627 134.82275391 442.52441406 C141.50701108 437.64119285 148.51770121 433.44005408 155.69775391 429.33691406 C156.32327148 428.97484863 156.94878906 428.6127832 157.59326172 428.23974609 C190.6753522 409.25891801 229.41096443 398.09374338 267.30439663 394.56083584 C271.76940315 394.14309119 276.23349471 393.71568309 280.69775391 393.29003906 C281.66326172 393.19803223 282.62876953 393.10602539 283.62353516 393.01123047 C285.98161325 392.78651263 288.33968605 392.56173934 290.69775391 392.33691406 C290.69922047 391.47477421 290.70068703 390.61263435 290.70219803 389.72436905 C290.7392278 368.75972243 290.79819152 347.79523796 290.88165665 326.83072281 C290.92148902 316.69248433 290.95386015 306.55432395 290.96875 296.41601562 C290.98174479 287.58085588 291.0086537 278.74586766 291.05236697 269.91080451 C291.07503081 265.23140205 291.09066165 260.55221154 291.08963776 255.87274933 C291.08889404 251.46989838 291.10672812 247.06751683 291.13892174 242.66478729 C291.14745301 241.04748168 291.14914886 239.43012362 291.14355659 237.81280518 C291.13694321 235.60660511 291.15477021 233.40191024 291.17877197 231.19586182 C291.18245914 229.96065922 291.18614632 228.72545662 291.18994522 227.45282364 C291.79413628 223.74551269 292.71500328 222.5549711 295.69775391 220.33691406 C298.69775391 219.83691406 298.69775391 219.83691406 301.69775391 220.33691406 C303.853508 221.91506195 303.853508 221.91506195 305.69775391 224.33691406 C306.20111847 227.61344147 306.20111847 227.61344147 306.20568848 231.58654785 C306.21192844 232.31809916 306.2181684 233.04965047 306.22459745 233.80337 C306.24055738 236.25563404 306.2279122 238.7069082 306.21533203 241.15917969 C306.22075184 242.9168099 306.22787371 244.67443557 306.23657227 246.43205261 C306.25482537 251.20683849 306.24772991 255.98127909 306.23505592 260.75607109 C306.22493855 265.74970312 306.23431809 270.74330531 306.24060059 275.73693848 C306.24788067 284.12334509 306.23827981 292.50961086 306.21923828 300.89599609 C306.19746886 310.59591855 306.20451997 320.29550472 306.2265439 329.99541903 C306.2446876 338.31908948 306.24726127 346.64265861 306.23678923 354.96634245 C306.23054863 359.93967928 306.22973421 364.91285798 306.24293518 369.88618469 C306.25447808 374.56154966 306.2464966 379.23648048 306.22335815 383.91179848 C306.2180627 385.62910045 306.21959912 387.34643888 306.22840881 389.06372643 C306.23931537 391.40540661 306.2256617 393.74568951 306.20568848 396.08728027 C306.20418037 397.39840538 306.20267227 398.70953049 306.20111847 400.06038666 C305.61446452 403.87906574 304.77244669 405.06992983 301.69775391 407.33691406 C298.84228516 407.91113281 298.84228516 407.91113281 295.51025391 408.02441406 C294.26832275 408.08081055 293.0263916 408.13720703 291.74682617 408.1953125 C291.08756134 408.21783081 290.42829651 408.24034912 289.74905396 408.2635498 C286.23839561 408.38910766 282.73213455 408.58914036 279.22509766 408.79003906 C278.50917953 408.83050354 277.79326141 408.87096802 277.0556488 408.91265869 C248.82816949 410.60347878 222.11622416 417.57907615 195.69775391 427.33691406 C195.69775391 427.66691406 195.69775391 427.99691406 195.69775391 428.33691406 C196.59494141 428.27632813 197.49212891 428.21574219 198.41650391 428.15332031 C201.063527 427.97557599 203.71063477 427.79985394 206.35791016 427.62597656 C209.13733852 427.44296381 211.91574788 427.24997018 214.69384766 427.04785156 C249.41626809 424.63896214 283.56004466 428.88096136 316.89550781 438.86547852 C318.70975587 439.42126985 318.70975587 439.42126985 320.69775391 439.33691406 C320.69775391 349.57691406 320.69775391 259.81691406 320.69775391 167.33691406 C313.88834453 163.88396094 313.88834453 163.88396094 306.69775391 162.33691406 C306.68373535 163.30516113 306.68373535 163.30516113 306.66943359 164.29296875 C306.61566289 167.2250535 306.5320305 170.15555415 306.44775391 173.08691406 C306.43357422 174.10269531 306.41939453 175.11847656 306.40478516 176.16503906 C306.15771535 183.67596106 306.15771535 183.67596106 303.83837891 187.00878906 C300.87713693 188.84605598 299.11897127 188.90711696 295.69775391 188.33691406 C293.54437256 186.78729248 293.54437256 186.78729248 291.69775391 184.33691406 C291.29476872 181.63459577 291.1330907 179.33281771 291.15185547 176.63085938 C291.14151779 175.85974319 291.13118011 175.08862701 291.12052917 174.29414368 C291.09108279 171.75089612 291.08960166 169.20844375 291.08837891 166.66503906 C291.07339844 164.89954102 291.05667157 163.134057 291.03826904 161.36859131 C290.99456809 156.72600667 290.97459041 152.08361107 290.95953369 147.44085693 C290.93997246 142.70166838 290.89800137 137.96268429 290.85791016 133.22363281 C290.78257837 123.92812292 290.7323049 114.63265872 290.69775391 105.33691406 C288.32241281 105.32480437 285.94713466 105.31601431 283.57177734 105.30908203 C282.57384659 105.30348518 282.57384659 105.30348518 281.55575562 105.29777527 C275.62170989 105.28482281 269.83061583 105.72618698 263.94775391 106.46191406 Z M-73.80224609 159.58691406 C-74.75873047 159.88726562 -75.71521484 160.18761719 -76.70068359 160.49707031 C-77.65201172 160.8 -78.60333984 161.10292969 -79.58349609 161.41503906 C-80.44007812 161.68735352 -81.29666016 161.95966797 -82.17919922 162.24023438 C-86.60681694 163.79502321 -90.94520987 165.59409957 -95.30224609 167.33691406 C-95.30224609 257.09691406 -95.30224609 346.85691406 -95.30224609 439.33691406 C-87.38224609 437.35691406 -87.38224609 437.35691406 -79.30224609 435.33691406 C-58.86272641 430.46510417 -38.33048394 427.05736761 -17.30224609 426.33691406 C-15.62001953 426.27503906 -15.62001953 426.27503906 -13.90380859 426.21191406 C18.55434341 425.62839672 51.74186574 431.01555327 81.49682617 444.24072266 C83.2083446 444.99201856 84.9509504 445.67176869 86.69775391 446.33691406 C87.35775391 446.00691406 88.01775391 445.67691406 88.69775391 445.33691406 C76.93879105 429.22277978 64.09268169 413.11919899 48.69775391 400.33691406 C47.82634766 399.55445313 46.95494141 398.77199219 46.05712891 397.96582031 C20.14466035 374.88351397 -11.96587824 358.89616712 -45.36083984 349.96191406 C-46.18769287 349.74043701 -47.0145459 349.51895996 -47.86645508 349.29077148 C-49.45523995 348.87243553 -51.04715736 348.46577032 -52.64233398 348.07250977 C-58.08574537 346.66166515 -58.08574537 346.66166515 -60.30224609 343.33691406 C-60.50295763 340.81407812 -60.58751084 338.40048286 -60.58071899 335.87690735 C-60.5865114 335.11071978 -60.5923038 334.34453222 -60.59827173 333.55512685 C-60.6153172 330.98014971 -60.61815211 328.40535132 -60.62109375 325.83032227 C-60.6303888 323.98753416 -60.64055683 322.14475028 -60.65153503 320.30197144 C-60.67889689 315.29198727 -60.69400274 310.28203131 -60.70696306 305.27199197 C-60.72256659 300.03889485 -60.74936562 294.80585558 -60.7749939 289.57279968 C-60.82183098 279.65999205 -60.85855121 269.74717359 -60.89166677 259.83431166 C-60.92985337 248.55026147 -60.97927256 237.2662693 -61.02965093 225.98226798 C-61.13304409 202.76719298 -61.22228044 179.55208073 -61.30224609 156.33691406 C-65.55456734 156.33691406 -69.78386967 158.30166312 -73.80224609 159.58691406 Z M-95.30224609 456.33691406 C-95.30224609 459.30691406 -95.30224609 462.27691406 -95.30224609 465.33691406 C-34.58224609 465.33691406 26.13775391 465.33691406 88.69775391 465.33691406 C68.77373166 450.39389738 37.89682396 444.70991295 13.69775391 442.33691406 C12.01746094 442.170625 12.01746094 442.170625 10.30322266 442.00097656 C-24.69612226 439.04103196 -62.533456 443.42102838 -95.30224609 456.33691406 Z M136.69775391 465.33691406 C197.41775391 465.33691406 258.13775391 465.33691406 320.69775391 465.33691406 C320.69775391 462.36691406 320.69775391 459.39691406 320.69775391 456.33691406 C267.82068842 437.50947408 185.1294179 429.01316607 136.69775391 465.33691406 Z " fill="#000000" transform="translate(143.30224609375,-0.3369140625)"></path>
</svg>