<?xml version="1.0" encoding="UTF-8"?>
<svg version="1.1" xmlns="http://www.w3.org/2000/svg" width="512" height="512">
<path d="M0 0 C25.10476527 -0.88559755 48.02329573 8.58599204 66.59375 25.16796875 C82.59478283 40.20015003 93.26551915 62.01062801 94.10546875 83.9921875 C94.12881803 86.31889363 94.12967472 88.64592152 94.109375 90.97265625 C94.09801514 92.81077881 94.09801514 92.81077881 94.08642578 94.68603516 C93.91555681 104.10877277 92.89678134 112.28665621 89.671875 121.16015625 C89.23617188 122.36414063 88.80046875 123.568125 88.3515625 124.80859375 C78.96331257 148.45877528 60.73916792 165.88016702 37.671875 176.16015625 C23.72671944 181.52490217 9.85809009 182.45746004 -4.91014099 182.42758179 C-6.67410112 182.43132383 -8.43805958 182.43592755 -10.20201546 182.44131243 C-15.02233987 182.45348784 -19.84259459 182.45328848 -24.66293085 182.45092368 C-29.87146396 182.45051417 -35.07997514 182.46156697 -40.28849792 182.47103882 C-50.47941321 182.4876162 -60.67030535 182.49314675 -70.86123299 182.49426357 C-79.14132341 182.49521492 -87.42140621 182.4993295 -95.70149422 182.50566483 C-119.17905908 182.52326277 -142.65660569 182.53250513 -166.1341772 182.53100388 C-167.39853886 182.53092397 -168.66290052 182.53084405 -169.96557617 182.53076172 C-171.23148049 182.53067996 -172.49738482 182.5305982 -173.80164988 182.53051396 C-194.34816165 182.52969987 -214.89460032 182.54887212 -235.44109093 182.57703845 C-256.53996174 182.6057341 -277.63879683 182.61958081 -298.73768765 182.6178509 C-310.58275479 182.6171862 -322.42774514 182.62271461 -334.27279472 182.644207 C-344.3495998 182.66237437 -354.42629322 182.66680225 -364.50310754 182.65318815 C-369.6460403 182.64663803 -374.78875852 182.64661514 -379.93167114 182.66389465 C-384.63597782 182.67953866 -389.3398983 182.67685123 -394.04419506 182.65932639 C-395.74916473 182.65623745 -397.45416262 182.65995953 -399.15909903 182.67104654 C-401.47100703 182.68508947 -403.78154546 182.67464475 -406.09340572 182.65793419 C-407.37908914 182.65836892 -408.66477255 182.65880366 -409.98941606 182.65925157 C-413.89999751 182.07466845 -415.56286249 180.93436479 -418.328125 178.16015625 C-418.95703125 176.16015625 -418.95703125 176.16015625 -418.890625 174.16015625 C-418.89191406 173.50015625 -418.89320313 172.84015625 -418.89453125 172.16015625 C-418.05719154 169.20348085 -416.73145624 168.06209816 -414.328125 166.16015625 C-411.11591589 165.66040224 -411.11591589 165.66040224 -407.22204018 165.6607275 C-406.14253785 165.65262006 -406.14253785 165.65262006 -405.0412274 165.64434883 C-402.61670841 165.63103686 -400.19320437 165.64633793 -397.76870728 165.66136169 C-396.01806331 165.65763657 -394.26742235 165.65214882 -392.51678884 165.64504486 C-387.69567337 165.63055394 -382.8748797 165.64098869 -378.05377555 165.65532792 C-372.85787463 165.66641726 -367.66202269 165.65445741 -362.46612549 165.6451416 C-353.45727187 165.63203233 -344.44851098 165.6332287 -335.4396553 165.64373589 C-322.39904702 165.65866199 -309.35854771 165.64877012 -296.31794564 165.6322167 C-275.14148558 165.60573404 -253.96504993 165.59489744 -232.78857422 165.59594727 C-230.88647291 165.59603475 -230.88647291 165.59603475 -228.94594531 165.596124 C-223.80861791 165.59638982 -218.67129051 165.5967071 -213.53396312 165.59708726 C-199.41310399 165.59805238 -185.2922456 165.59672747 -171.17138672 165.59399414 C-169.90789314 165.59375425 -168.64439956 165.59351436 -167.3426183 165.59326719 C-146.25864071 165.58885716 -125.17468574 165.57260777 -104.09072149 165.54877335 C-91.08808119 165.53471361 -78.08552701 165.53181305 -65.08288376 165.54339624 C-56.16549351 165.55073162 -47.24814654 165.54764153 -38.33076043 165.5364378 C-33.18882861 165.53037755 -28.04701802 165.52924133 -22.90509415 165.54131508 C-18.19080283 165.55231772 -13.4767258 165.54939433 -8.76244323 165.53577162 C-7.06380501 165.53329091 -5.36514991 165.53580875 -3.66652985 165.5440455 C19.99324894 165.65128979 39.55089423 159.27991758 56.97265625 143.01171875 C72.45812821 126.8346626 77.36046475 106.73854566 76.9765625 85.0546875 C76.27035814 66.57956424 66.62115033 48.63748006 53.40625 35.9921875 C40.72630867 25.13866156 24.42034791 17.92872862 7.671875 17.16015625 C7.02863281 17.10859375 6.38539063 17.05703125 5.72265625 17.00390625 C-15.1381696 16.0502685 -33.21540026 24.80783173 -48.59765625 38.125 C-53.93995551 43.11999873 -57.69137686 48.84932859 -61.328125 55.16015625 C-62.02421875 56.31257813 -62.02421875 56.31257813 -62.734375 57.48828125 C-68.00333546 66.93385672 -70.27553664 78.18119481 -70.765625 88.91015625 C-71.00755327 92.82401801 -71.22840101 94.00763721 -73.453125 97.41015625 C-77.10537416 99.63326444 -79.12177289 99.84846841 -83.328125 99.16015625 C-86.2777052 96.97039636 -87.22085017 95.77383137 -87.859375 92.12109375 C-87.63040327 65.84658777 -77.79675355 42.77778192 -59.06274414 24.35766602 C-42.92461698 9.25857245 -21.81117786 1.50043338 0 0 Z " fill="#000000" transform="translate(418.328125,81.83984375)"></path>
<path d="M0 0 C0.8311043 -0.00322445 1.6622086 -0.00644889 2.51849788 -0.00977105 C3.88801691 -0.00744815 3.88801691 -0.00744815 5.28520298 -0.00507832 C6.25526848 -0.00734387 7.22533398 -0.00960943 8.2247954 -0.01194364 C11.49035031 -0.0182969 14.75586387 -0.0174534 18.02142429 -0.01662922 C20.35704699 -0.01962002 22.6926692 -0.02302236 25.02829075 -0.02680683 C31.38615672 -0.03566243 37.74400925 -0.03798569 44.10188079 -0.03862262 C48.74092101 -0.03945167 53.37995823 -0.04235002 58.01899739 -0.0454591 C70.50005457 -0.05376943 82.98110461 -0.05750093 95.46216445 -0.05678936 C96.17120751 -0.0567494 96.88025056 -0.05670945 97.61077976 -0.05666828 C98.32069246 -0.0566274 99.03060516 -0.05658652 99.76203037 -0.0565444 C111.24799777 -0.0561386 122.73393228 -0.06569013 134.21989017 -0.07980665 C146.02189494 -0.09419661 157.82388371 -0.10107528 169.62589747 -0.10021287 C176.24825548 -0.09988163 182.87058325 -0.10279217 189.49293423 -0.11339092 C195.72846865 -0.12309709 201.96393063 -0.12313377 208.19946766 -0.11587429 C210.48264961 -0.11483135 212.76583613 -0.11717402 215.04901028 -0.12323475 C237.3763505 -0.17864105 255.14038922 1.52051383 272.37323093 17.3747282 C283.49549344 28.83573982 288.74222342 43.25900854 288.93182468 59.12863445 C287.88104203 76.19412304 281.54758573 89.97956953 269.30682468 101.87863445 C256.43531444 112.95967187 240.38253273 116.99229466 223.64666843 115.91769695 C208.38407903 113.78616273 194.82702951 105.88319742 184.93182468 94.12863445 C177.06659566 83.30697183 170.94001631 68.73178027 172.93182468 55.12863445 C175.35794119 51.56081606 176.71447989 50.38224795 180.93182468 49.50363445 C185.00707326 50.35264457 186.30942663 51.92632398 188.93182468 55.12863445 C189.61928985 57.75480892 190.05987675 60.02981862 190.36932468 62.69113445 C192.12875225 74.08502564 196.49002446 84.04333043 205.93182468 91.12863445 C217.19981365 98.01548173 226.87846114 100.24708009 239.93182468 98.12863445 C251.69140618 95.27406586 260.55301055 88.35787266 266.93182468 78.12863445 C272.30587176 68.41401089 272.42331241 56.55077162 270.27166843 45.8434782 C266.98495559 35.72723217 259.96420236 27.63095313 250.93182468 22.12863445 C242.30295181 18.22904767 234.5782996 16.97951343 225.20817661 16.99733257 C224.22259063 16.99521686 223.23700465 16.99310115 222.22155243 16.99092132 C218.91589962 16.98492522 215.61028502 16.98592118 212.30462742 16.98678875 C209.93602528 16.9837571 207.56742372 16.98023562 205.19882298 16.97626019 C200.096954 16.96837293 194.99509202 16.96322699 189.89321804 16.95996952 C181.83071257 16.95446792 173.76824928 16.93756652 165.70576572 16.91862774 C162.94667442 16.91227153 160.187583 16.90596306 157.42849159 16.89965057 C156.39430277 16.89727493 156.39430277 16.89727493 155.33922125 16.89485129 C147.49549898 16.87692372 139.65177376 16.86069162 131.80804539 16.84567547 C131.09118398 16.8442996 130.37432257 16.84292373 129.63573808 16.84150616 C118.00871244 16.81955746 106.3816977 16.80881474 94.754655 16.80130472 C82.81697745 16.79323857 70.87939337 16.7699673 58.94176918 16.73335105 C52.23918616 16.71328991 45.53675104 16.70065373 38.83413601 16.70618534 C32.53447798 16.71081389 26.23513155 16.69712467 19.93553638 16.66917324 C17.61997786 16.662232 15.30438732 16.66216615 12.98882961 16.66937351 C9.8350074 16.67820096 6.68222639 16.66266698 3.52848911 16.64088726 C2.60583254 16.6493298 1.68317596 16.65777233 0.7325601 16.66647071 C-5.41706445 16.58758918 -5.41706445 16.58758918 -8.64062309 14.31536865 C-10.72787229 11.11810614 -10.53490152 8.86244405 -10.06817532 5.12863445 C-7.62374629 0.70538193 -4.84456609 0.00475045 0 0 Z " fill="#000000" transform="translate(108.06817531585693,313.8713655471802)"></path>
<path d="M0 0 C10.64428864 11.03852155 16.2111497 25.5075052 16.3515625 40.8125 C15.57423383 58.38012804 8.92227647 72.2740513 -3.6796875 84.40625 C-19.5138483 97.77038572 -37.03540268 98.70901673 -56.75927734 98.6809082 C-58.78232002 98.68526104 -60.80536105 98.69044609 -62.82839966 98.69639587 C-68.29487054 98.70972846 -73.76127206 98.71037148 -79.22775602 98.70783257 C-83.79587565 98.70676 -88.36398139 98.711653 -92.93209803 98.716438 C-103.70392887 98.72751104 -114.47572482 98.72798152 -125.24755859 98.72192383 C-136.36025024 98.7158708 -147.47281569 98.72823378 -158.58548582 98.7494939 C-168.13560874 98.76709273 -177.68569141 98.77311439 -187.23582995 98.76985615 C-192.93621994 98.76804207 -198.63651969 98.77069297 -204.33689499 98.78457069 C-209.69022328 98.79711813 -215.04335377 98.79523422 -220.39667892 98.78215981 C-222.36190863 98.7797886 -224.32715214 98.78254811 -226.29236603 98.79078293 C-228.97243488 98.80120498 -231.65183421 98.79318673 -234.33187866 98.7804718 C-235.11134649 98.78784609 -235.89081431 98.79522037 -236.69390237 98.80281812 C-241.18979772 98.7578652 -244.11167123 98.20646617 -247.6796875 95.40625 C-249.10630969 92.55300563 -248.99002618 90.57170451 -248.6796875 87.40625 C-247.17633057 84.74572182 -247.17633057 84.74572182 -244.6796875 82.40625 C-241.73464853 81.90964049 -239.36534468 81.73952688 -236.42089844 81.78720093 C-235.58065219 81.78096195 -234.74040594 81.77472297 -233.87469769 81.76829493 C-231.05400924 81.75335187 -228.23470045 81.77403869 -225.4140625 81.79443359 C-223.39355477 81.79089323 -221.3730499 81.78511661 -219.35255432 81.77726746 C-214.99756674 81.76507298 -210.6429706 81.76857446 -206.28799438 81.78409958 C-199.39525289 81.80839205 -192.50285487 81.79692928 -185.61010742 81.78042603 C-173.45574185 81.75590585 -161.30153179 81.76173623 -149.14715576 81.77423096 C-130.87671627 81.79278615 -112.60630751 81.78789569 -94.33588982 81.75419676 C-87.49160259 81.74271198 -80.64756542 81.74708358 -73.80329227 81.76421714 C-69.53180535 81.77214726 -65.26039026 81.76784271 -60.98890495 81.76050758 C-59.01694187 81.75970119 -57.04496861 81.76399862 -55.07303047 81.77395058 C-38.92983272 81.85143596 -25.14004044 80.93723321 -12.61328125 69.5234375 C-4.51246178 60.88023055 -1.20109351 51.16395562 -0.6796875 39.40625 C-1.29094769 26.84485311 -6.58317948 16.94479377 -15.6796875 8.40625 C-24.41017979 1.48742113 -34.67686756 -0.78700796 -45.6796875 -0.59375 C-56.28713938 0.76179286 -65.74206291 5.46713962 -73.08203125 13.29296875 C-79.10847126 21.26437229 -82.3490106 30.2674052 -82.9921875 40.15625 C-83.33104151 43.53894775 -83.55007162 44.25441426 -85.8671875 46.96875 C-89.2401109 48.69268863 -90.94703032 49.10612322 -94.6796875 48.40625 C-97.5546875 46.46875 -97.5546875 46.46875 -99.6796875 43.40625 C-101.96473086 31.4392188 -96.13302412 17.60962561 -89.9296875 7.71875 C-81.15249482 -4.56045391 -68.64228961 -13.58580421 -53.6796875 -16.59375 C-52.64714844 -16.80451172 -52.64714844 -16.80451172 -51.59375 -17.01953125 C-31.89146409 -20.05910324 -14.24189169 -13.39362855 0 0 Z " fill="#000000" transform="translate(264.6796875,99.59375)"></path>
<path d="M0 0 C1.26863388 -0.01210762 1.26863388 -0.01210762 2.56289673 -0.02445984 C4.3498532 -0.03826807 6.13683568 -0.04900476 7.92382812 -0.05688477 C9.74714917 -0.0684186 11.57043608 -0.0888926 13.39355469 -0.1184082 C16.03343561 -0.16113322 18.67231605 -0.1772587 21.3125 -0.1875 C22.52684219 -0.21376213 22.52684219 -0.21376213 23.76571655 -0.24055481 C29.08927897 -0.22026093 32.05011594 0.7376052 36.2890625 4.23828125 C40.83167363 9.27198548 41.44656077 13.06617478 41.45703125 19.65234375 C41.46202385 20.74595718 41.46202385 20.74595718 41.46711731 21.86166382 C41.47217902 23.40663015 41.47452587 24.95160741 41.47436523 26.49658203 C41.47653517 28.83384871 41.49465232 31.17063034 41.51367188 33.5078125 C41.56990829 47.78679228 39.71428125 59.66974506 29.6015625 70.55078125 C20.20520911 79.28365167 9.85970309 82.49797344 -2.75390625 82.16015625 C-21.16144799 80.81912208 -21.16144799 80.81912208 -37.06176758 88.26269531 C-39.54111264 91.12432137 -41.64950535 94.06073651 -43.7109375 97.23828125 C-46.92960739 98.84761619 -50.2299177 98.83561601 -53.7109375 98.23828125 C-56.2734375 96.17578125 -56.2734375 96.17578125 -57.7109375 93.23828125 C-57.98245901 88.4414012 -56.67163373 85.83708877 -53.6484375 82.30078125 C-51.76034576 80.27941245 -49.99401213 78.43236494 -47.70654297 76.86401367 C-44.61880597 74.4669818 -42.17599017 72.28561235 -41.27975464 68.34005737 C-40.6395298 62.72218292 -40.82734579 57.06816077 -40.9609375 51.42578125 C-41.1853339 36.89126627 -41.12535107 24.55527733 -30.7109375 13.23828125 C-21.62434801 3.89452413 -12.93015279 0.11739553 0 0 Z M-19.1484375 24.61328125 C-19.78652344 25.34289063 -20.42460938 26.0725 -21.08203125 26.82421875 C-24.93883636 32.54005942 -24.97372057 37.96789778 -24.8359375 44.61328125 C-24.82691406 45.44472656 -24.81789062 46.27617188 -24.80859375 47.1328125 C-24.7851997 49.16809462 -24.74933475 51.20322689 -24.7109375 53.23828125 C-19.18112409 48.69154578 -14.16486868 43.74146229 -9.1640625 38.62890625 C-6.07255577 35.61616402 -4.57784224 34.30020302 -0.2109375 33.98828125 C3.2890625 34.23828125 3.2890625 34.23828125 6.2890625 36.23828125 C7.4276859 40.18550903 7.80530793 42.29160428 5.80859375 45.953125 C2.73218672 50.27756597 -1.16634123 53.86680484 -4.9609375 57.55078125 C-6.42659775 58.98220895 -7.89026039 60.41568598 -9.3515625 61.8515625 C-9.99641602 62.47844971 -10.64126953 63.10533691 -11.30566406 63.7512207 C-12.82541037 65.01841538 -12.82541037 65.01841538 -12.7109375 66.23828125 C3.92227783 66.99065425 3.92227783 66.99065425 18.1640625 59.11328125 C25.68203046 50.47559061 25.82328088 41.13220933 25.5390625 30.11328125 C25.51894843 28.76174549 25.5007064 27.41018051 25.484375 26.05859375 C25.43760072 22.78439434 25.3720639 19.51172877 25.2890625 16.23828125 C21.03904284 16.13847047 16.78966655 16.06637613 12.53881836 16.01855469 C11.09663998 15.99859374 9.6545409 15.97141462 8.21264648 15.93652344 C-2.43077591 15.68565594 -11.77194684 15.87190978 -19.1484375 24.61328125 Z " fill="#000000" transform="translate(73.7109375,32.76171875)"></path>
<path d="M0 0 C1.29768311 -0.0099852 1.29768311 -0.0099852 2.62158203 -0.02017212 C4.44366338 -0.03025964 6.26578138 -0.03499035 8.08789062 -0.03466797 C10.86650523 -0.03904911 13.64354009 -0.07543062 16.421875 -0.11328125 C18.19791127 -0.11914877 19.97395503 -0.1231186 21.75 -0.125 C22.9877417 -0.14655655 22.9877417 -0.14655655 24.25048828 -0.16854858 C29.59326625 -0.12645506 32.71108612 0.69023666 36.875 4.3359375 C41.12837564 9.22297388 41.46815066 13.09674536 41.40625 19.28515625 C41.41199036 20.5650518 41.41199036 20.5650518 41.41784668 21.87080383 C41.42055993 23.67193789 41.4132399 25.47311175 41.39648438 27.27416992 C41.37519758 29.99815381 41.39623598 32.71946047 41.421875 35.44335938 C41.44484016 49.20840868 39.74813226 60.0140265 29.875 70.3359375 C21.79458918 77.92070974 12.40053535 82.37046289 1.203125 82.3190918 C-0.15631882 82.26790966 -1.51569254 82.21484029 -2.875 82.16015625 C-21.44534163 80.8555256 -21.44534163 80.8555256 -37.48242188 88.36254883 C-39.95594474 91.22530446 -42.06513201 94.1608038 -44.125 97.3359375 C-47.21673752 98.88180626 -49.71929552 98.62953271 -53.125 98.3359375 C-55.5625 96.7734375 -55.5625 96.7734375 -57.125 94.3359375 C-57.8125 91.0859375 -57.8125 91.0859375 -57.125 87.3359375 C-54.70581467 83.68888771 -51.6860474 80.44779678 -48.1184082 77.90673828 C-44.22077834 74.80200116 -42.3574833 72.5935356 -41.43505859 67.60375977 C-41.12407171 63.09780374 -41.20992724 58.59820205 -41.3125 54.0859375 C-41.3475298 51.01809809 -41.3602004 47.95084193 -41.35546875 44.8828125 C-41.35459763 44.14330856 -41.3537265 43.40380463 -41.35282898 42.64189148 C-41.19706394 30.42733759 -37.54741638 20.24645752 -29.171875 11.234375 C-24.9542445 7.33223654 -20.45483366 4.47395062 -15.125 2.3359375 C-14.2808252 1.9958667 -13.43665039 1.6557959 -12.56689453 1.30541992 C-8.29569334 0.10234573 -4.41468312 0.0119074 0 0 Z M-19.5625 25.1484375 C-25.84094432 34.7884285 -25.46638109 43.20944281 -25.125 54.3359375 C-19.57391961 49.81761625 -14.57146991 44.85179575 -9.56958008 39.7434082 C-4.33031304 34.42359663 -4.33031304 34.42359663 0.3125 34.0859375 C3.875 34.3359375 3.875 34.3359375 5.8125 35.3984375 C7.61084842 38.67777874 7.48023685 40.64399273 6.875 44.3359375 C4.95664902 47.398568 2.43630941 49.8035461 -0.125 52.3359375 C-1.24527273 53.45655054 -2.36502453 54.57768449 -3.484375 55.69921875 C-5.26756143 57.48460333 -7.05421484 59.26531585 -8.85620117 61.03173828 C-10.29667817 62.44885619 -11.71323934 63.89020966 -13.125 65.3359375 C-13.125 65.6659375 -13.125 65.9959375 -13.125 66.3359375 C3.52036214 66.86727515 3.52036214 66.86727515 18.046875 59.203125 C26.50150252 50.56784305 26.02445136 39.16867169 25.9375 27.8984375 C25.93298828 26.78533203 25.92847656 25.67222656 25.92382812 24.52539062 C25.91211193 21.79551649 25.89570699 19.06575576 25.875 16.3359375 C21.50090696 16.21104027 17.1277961 16.12099969 12.75244141 16.0612793 C11.26853321 16.03634912 9.78474505 16.00239125 8.30126953 15.95874023 C-2.62819313 15.64552232 -12.11439907 16.13392698 -19.5625 25.1484375 Z " fill="#000000" transform="translate(471.125,380.6640625)"></path>
<path d="M0 0 C1.04754456 -0.00700928 2.09508911 -0.01401855 3.17437744 -0.02124023 C6.63995811 -0.03885743 10.1047234 -0.02718366 13.5703125 -0.01367188 C15.97640134 -0.0163657 18.38248911 -0.02024721 20.78857422 -0.02526855 C25.83246215 -0.03116868 30.87606684 -0.02258372 35.91992188 -0.00390625 C42.39007106 0.01888313 48.85955657 0.00576287 55.3296814 -0.01819611 C60.29847223 -0.03263992 65.26710533 -0.0280545 70.23590088 -0.01768494 C72.62176593 -0.01501375 75.00764524 -0.0183011 77.39349365 -0.02760315 C80.72625747 -0.03774497 84.05794173 -0.02229948 87.390625 0 C88.87444672 -0.01214539 88.87444672 -0.01214539 90.38824463 -0.02453613 C97.03215815 0.05795487 97.03215815 0.05795487 100.31201172 2.33117676 C102.33904868 5.53504712 102.1590856 7.8073933 101.6953125 11.51757812 C100.44746304 13.70458221 100.44746304 13.70458221 98.6953125 15.51757812 C96.63504887 16.02094269 96.63504887 16.02094269 94.22340393 16.0255127 C93.30791779 16.03679199 92.39243164 16.04807129 91.44920349 16.05969238 C90.447043 16.05159546 89.44488251 16.04349854 88.41235352 16.03515625 C87.35520142 16.04216553 86.29804932 16.0491748 85.2088623 16.05639648 C81.70538258 16.07403834 78.20270707 16.06233038 74.69921875 16.04882812 C72.26928044 16.05152144 69.83934318 16.05540252 67.40940857 16.0604248 C62.312467 16.06632844 57.21580553 16.05772946 52.11889648 16.0390625 C45.58033962 16.01628503 39.04243989 16.02938363 32.5039072 16.05335236 C27.48450253 16.06779704 22.46525399 16.06321014 17.44584465 16.05284119 C15.03485982 16.05016962 12.6238609 16.0534587 10.21289253 16.0627594 C6.84410112 16.0729013 3.47637774 16.05745499 0.10766602 16.03515625 C-0.89247025 16.04325317 -1.89260651 16.0513501 -2.92304993 16.05969238 C-9.64084932 15.97717952 -9.64084932 15.97717952 -12.92420959 13.70397949 C-14.96536466 10.47119743 -14.83866956 8.25545255 -14.3046875 4.51757812 C-10.8664331 -0.90151503 -5.77403523 -0.04726167 0 0 Z " fill="#000000" transform="translate(145.3046875,380.482421875)"></path>
<path d="M0 0 C1.04484306 -0.00569504 1.04484306 -0.00569504 2.11079407 -0.01150513 C4.40237139 -0.01888612 6.69266718 0.00243329 8.98413086 0.02490234 C10.58165844 0.02728813 12.17918886 0.0281918 13.77671814 0.02767944 C17.11987957 0.0308031 20.46261083 0.04733582 23.80566406 0.07421875 C28.08859588 0.10822563 32.37105606 0.11584627 36.65410709 0.11432838 C39.95096835 0.11487245 43.24772674 0.12584497 46.54455376 0.14033127 C48.12378601 0.1466899 49.70302989 0.15063598 51.28227425 0.15211868 C53.48916573 0.15646017 55.69555946 0.17397793 57.90234375 0.1953125 C59.78500694 0.20674789 59.78500694 0.20674789 61.70570374 0.21841431 C64.71778485 0.47165713 66.39330819 0.83843252 68.88647461 2.48583984 C70.96806481 5.1621701 70.88235052 6.60337652 70.76147461 10.04833984 C69.88647461 13.48583984 69.88647461 13.48583984 68.28076172 15.1754303 C64.98822498 16.97745795 62.44963711 16.87424415 58.70288086 16.88989258 C57.9869577 16.89675583 57.27103455 16.90361908 56.53341675 16.91069031 C54.17173315 16.92896142 51.81071357 16.92512104 49.44897461 16.91943359 C47.80517358 16.9239949 46.16137447 16.92930032 44.51757812 16.93531799 C41.07438402 16.9442494 37.63142186 16.9418253 34.18823242 16.93188477 C29.77617248 16.92038814 25.36491205 16.94061643 20.95295715 16.9698019 C17.5591524 16.98814782 14.16553989 16.98787482 10.771698 16.98216438 C9.14499794 16.98201101 7.51828498 16.98806891 5.89163208 17.00045586 C3.61726693 17.01533649 1.34438705 17.00471283 -0.92993164 16.98754883 C-2.87041382 16.98729958 -2.87041382 16.98729958 -4.85009766 16.98704529 C-8.64965686 16.40349942 -9.82263529 15.50918106 -12.11352539 12.48583984 C-12.67993164 10.48583984 -12.67993164 10.48583984 -12.67602539 8.48583984 C-12.69793945 7.82583984 -12.71985352 7.16583984 -12.74243164 6.48583984 C-10.8762686 0.55120955 -5.42217169 -0.01230459 0 0 Z " fill="#000000" transform="translate(12.113525390625,313.51416015625)"></path>
<path d="M0 0 C1.75213051 -0.0238678 1.75213051 -0.0238678 3.53965759 -0.04821777 C4.8021785 -0.04841919 6.0646994 -0.04862061 7.36547852 -0.04882812 C8.66131363 -0.05644165 9.95714874 -0.06405518 11.29225159 -0.07189941 C14.03525445 -0.08534545 16.7779695 -0.08691274 19.52099609 -0.08105469 C23.03316792 -0.07515905 26.5439571 -0.10574025 30.05586147 -0.14617157 C33.40911159 -0.17826651 36.76207519 -0.17393229 40.11547852 -0.17382812 C41.37597519 -0.19022339 42.63647186 -0.20661865 43.93516541 -0.22351074 C45.10640457 -0.21420532 46.27764374 -0.2048999 47.484375 -0.1953125 C48.5145726 -0.19736694 49.5447702 -0.19942139 50.60618591 -0.20153809 C53.30688477 0.41992188 53.30688477 0.41992188 55.67469788 2.73181152 C57.30688477 5.41992188 57.30688477 5.41992188 57.24438477 9.04492188 C56.02641192 13.42962412 56.02641192 13.42962412 53.30688477 15.41992188 C50.73316956 15.81433105 50.73316956 15.81433105 47.61376953 15.83984375 C46.44568253 15.85575562 45.27759552 15.87166748 44.07411194 15.88806152 C42.81159103 15.88826294 41.54907013 15.88846436 40.24829102 15.88867188 C38.9524559 15.8962854 37.65662079 15.90389893 36.32151794 15.91174316 C33.57851508 15.9251892 30.83580003 15.92675649 28.09277344 15.92089844 C24.58060161 15.9150028 21.06981243 15.945584 17.55790806 15.98601532 C14.20465794 16.01811026 10.85169434 16.01377604 7.49829102 16.01367188 C6.23779434 16.03006714 4.97729767 16.0464624 3.67860413 16.06335449 C2.50736496 16.05404907 1.33612579 16.04474365 0.12939453 16.03515625 C-0.90080307 16.03721069 -1.93100067 16.03926514 -2.99241638 16.04138184 C-5.69311523 15.41992188 -5.69311523 15.41992188 -8.06092834 13.10803223 C-9.69311523 10.41992188 -9.69311523 10.41992188 -9.63061523 6.79492188 C-8.01078551 0.96353487 -5.9077188 0.04831757 0 0 Z " fill="#000000" transform="translate(58.693115234375,380.580078125)"></path>
</svg>