<?xml version="1.0" encoding="UTF-8"?>
<svg id="_圖層_2" data-name="圖層 2" xmlns="http://www.w3.org/2000/svg" viewBox="0 0 871.8 225.59">
  <g id="_圖層_1-2" data-name="圖層 1">
    <g>
      <path d="M259.75,17.32c-26.2-4.79-54.72-.14-69.06,23.54-5.47,10.23-8.33,21.22-8.43,32.93l-.18,22.73,40.81-.45c2.77-.03,5.41-.98,8.32-.13-16.07,3.13-32.27,3.84-49.07,4.28l-.08,36.72c-1.09,19.07-6.28,37-17.43,52.47-15.14,21.46-40.14,35.07-66.88,33.71,21.48-3.91,40.8-14.88,53.13-33.16,8.94-13.24,12.74-28.2,13.54-44.19l.14-45.59-13.25-.3-.1-3.41,13.34-.09c-.11-14.68,1.05-28.45,5.78-41.93C183.72,16.28,222.66-.61,261.55,6.74c18.31,3.45,34.83,10.8,50.62,20.66l31.79,21.78,34.12-22.03c15.32-8.91,30.83-16.27,47.72-21.51,30.53-9.42,75.2-9.25,94.52,17.99,12.12,17.08,6.82,39.87-10.26,52.7-20.99,15.76-52.19,16.32-77.36,11.31,14.31.2,27.66.85,41.55-1.62,15.58-2.78,31.07-9.66,39.17-23.23,7.78-13.03,5.14-28.41-6.3-38.16-6.36-5.42-13.62-9.03-21.91-11.29-46.92-12.8-97.94,14.27-137.73,38.47l7.51,5.95c-.73.39-3.17,1.21-4.02.8l-7.85-3.75c-14.12,8.36-28.11,15.95-43.17,22.65-14.74,6.02-29.23,11.59-45.2,13.85,29.8-8.39,57.75-20.76,84.07-38.92l-37.27-20.52c-13.17-7.25-27.03-11.67-41.82-14.53Z"></path>
      <path d="M649.94,169.65l-60-.04c2.98-2.76,6.33-2.55,8.45-5.04,2.58-3.03,3.76-7.15,3.75-11.37l-.08-91.52c0-7.58-4.75-11.67-12.08-14.14l12.78-.82,42.58.19c27.04.12,53.71,13.87,61.81,40.72,4.66,15.46,4.25,31.75-1.62,46.79-8.94,22.87-30.81,35.25-55.59,35.24ZM682.89,79.95c-7.44-17.12-23.07-27.92-41.74-28.99l-18.7-.21v114.76s19.46.4,19.46.4c16.32-.68,30.1-8.87,38.16-23,10.37-18.17,11.11-43.88,2.82-62.95Z"></path>
      <path d="M82.21,112.69l-.14,45.97c-.02,5.92,3.36,8.19,9.26,10.79l-36.3.06c5.62-2.92,9.68-4.58,9.69-10.86l.04-45.42c0-5.43-3.43-7.8-9.09-9.15l26.28-6.89.32,12.2c8.9-9.97,20.73-14.44,33.57-11.99,9.98,1.9,17.39,10.05,17.48,20.64l.36,41.44c.05,5.58,4.07,7.19,9.32,9.99l-36.22-.03c5.98-2.63,9.37-4.99,9.34-10.96l-.14-39.33c-.03-9.32-6.83-15.88-16.08-15.53-6.83.26-13.2,3.63-17.69,9.07Z"></path>
      <path d="M280.93,112.8l-.04,46.51c0,5.69,3.82,7.34,9.38,10.12l-36.21.06c5.6-2.88,9.45-4.86,9.46-11.1l.02-45.63c0-5.14-3.61-7.46-8.87-8.73l25.89-6.8.42,12.06c9.01-9.87,21.13-14.39,33.84-11.8,9.82,2,17.01,10.06,17.08,20.37l.27,40.78c.04,6.08,3.8,8.32,9.75,10.79l-36.7.09c6.28-2.72,9.64-5.15,9.62-11.51l-.15-38.59c-.04-10.07-7.94-16.92-17.77-15.75-6.22.74-11.99,4.1-16.01,9.14Z"></path>
      <path d="M45.57,169.39c-15.48.52-29.87.58-45.57-.02,7.91-3.12,12.66-6.71,12.65-14.87l-.08-93.46c0-7.77-5.63-10.92-12.42-13.86l44.59-.46c.07.23.25,1.39,0,1.46l-1.29.35c-6.04,1.64-10.41,6.67-10.41,13.57l-.03,91.87c.37,8.08,4.34,11.92,12.56,15.42Z"></path>
      <path d="M861.2,107.88l-21.66,48.5c-11.17,25.01-22.84,47.63-47.97,60.69-25.4,13.2-61.76,11.26-83.96-7.14l9.58,3.54c42.18,15.59,87.43-2.34,107.93-42.21l-28.09-62.63c-2.28-5.09-5.25-7.17-10.91-10.11l37.17-.2c.03.53.1,1.22-.15,1.27l-1.5.35c-1.85.43-4.22,1.62-4.99,2.92-.97,1.63-1.08,4.83-.3,6.61l20.36,46.23,16.31-39.5,2.26-8.52c.26-8.24-8.22-7.67-7.8-8.47l.46-.86,23.86.1c-4.79,3.03-8.4,4.51-10.6,9.43Z"></path>
      <path d="M504.6,157.73l-11.38,23.93c-3.3,6.95-7.5,12.98-12.25,18.98-14.73,18.59-37.54,27.74-61.09,24.09-11.27-1.75-21.76-6.15-29.8-14.6,19.02,11.16,41.08,12.59,61.07,3.46,18.46-8.43,30.42-23.97,39.83-42.06l-28.92-63.57c-2.17-4.78-5.45-6.83-10.64-9.38l38.25-.1c-2.74,2.04-5.53,2.19-6.95,3.82-1.69,1.94-1.65,5.33-.57,7.78l20.13,45.75,11.65-27.47,6.6-18.62c.78-2.21.45-5.59-1.13-7.26s-4.06-2.05-6.99-3.98h24.99c-4.92,2.94-8.58,4.96-10.83,10l-21.99,49.24Z"></path>
      <path d="M733.35,170.46c-7.6-1.72-12.68-7.45-13.53-14.42-.89-7.24,2.97-14,9.71-17.4,6.29-3.18,13.22-4.84,20.21-6.21l14.27-2.8-.47-16.96c-.2-7.15-6.56-12.34-13.66-12.68-11.73-.57-19.46,6.56-24.86,16.92l-1.38-11.9c12.72-7.86,28.14-10.66,42.44-6.39,9,2.69,14.86,10.51,14.93,19.76l.3,40.27c.02,2.19,2.05,4.78,3.57,5.29,1.85.62,4.91-.16,6.4-1.31l1.39-1.08c.26-.2.82.83.92,1.11-4.33,6.1-11.49,9.23-18.89,8.32-5.69-.93-9.44-5.2-10.24-11.11l-9.28,7.2c-6.58,3.93-14.16,5.12-21.82,3.38ZM764.07,156.62l.04-24.64-16.87,4.64c-5.26,1.45-8.63,5.53-9.9,9.9-1.54,5.27-.83,10.75,2.9,14.63,6.04,6.28,18.09,3.11,23.83-4.54Z"></path>
      <path d="M424.72,153.64c0,3.48,2.11,6.95,3.91,8.42,2.64,2.16,6.23,2.61,9.49,1.81l9.67-4.66c-4.25,8.66-13.23,12.09-22.4,12.03-9.54-.06-17.8-6.44-17.85-16.59l-.22-53.88-7.98-.16c7.01-4.12,13.32-8.78,17.68-15.11-13.19-3.2-24.93-6.91-37.05-11.71-1.04,4.83-4.92,8.12-9.28,8.33-4.88.23-9.27-2.67-10.59-7.24-1.34-4.64.46-9.3,4.86-12.03,2.99-1.86,6.52-2.01,9.88-.23,2.54,1.34,4.6,4.08,5.28,7.76,12.39,5.42,25.57,9.94,38.87,12.9l5.55-6.66.14,21.19h21.07s-.35,4.16-.35,4.16l-20.77-.53.06,52.19Z"></path>
      <path d="M352.47,169.41c5.18-2.63,9.31-4.53,9.32-10.77l.06-46.06c-.56-5.08-3.61-7.1-9.04-8.62l26.34-6.68v60.74c0,2.3.52,6.16,2.27,7.2l7.25,4.29-36.21-.1Z"></path>
      <path d="M205.92,169.47c5.54-2.91,9.45-4.93,9.46-10.99l.09-45.79c-.51-4.29-3.28-6.2-7.85-7.31l25.1-6.26.07,59.79c0,5.86,3.85,7.77,9.47,10.53l-36.33.03Z"></path>
      <circle cx="223.66" cy="71.86" r="10.34"></circle>
    </g>
  </g>
</svg>