<?xml version="1.0" encoding="UTF-8"?>
<svg id="_圖層_2" data-name="圖層 2" xmlns="http://www.w3.org/2000/svg" viewBox="0 0 636.74 153.91">
  <g id="_圖層_1-2" data-name="圖層 1">
    <g>
      <path d="M87.44,108.6l-2.89-68.91-33.86,80.47L15.78,41.07l-2.05,56.96.89,12.14c.36,4.91,4.48,5.74,9.17,8.4H0c5.84-2.97,9.43-5.78,9.63-12.05l2.21-69.31c.22-6.83-5.57-10.01-11.11-11.95l24.7-.12,31.18,71.38,30-71.26,22.72-.03c-5.6,1.97-10,5.18-9.71,11.93l3.15,71.74c.24,5.49,3.91,6.92,8.89,9.72l-33.18-.04c4.99-2.44,9.22-3.8,8.96-9.97Z"/>
      <path d="M473.45,70.02c3.19-3.86,6.34-9.24,11.59-10.61,3.39-.89,5.24-1.5,7.23-3.88,10.67-12.78,8.84-30.37-4.91-40.14-17.78-12.63-46.12-8.64-66.62.54-14.36,6.43-27.21,14.68-39.56,24.35l-23.75,18.6c11.88-.18,21.61,4.65,27,14.84,6.6,12.47,4.32,28.72-6.04,38.83-10.78,10.52-28.71,9.96-39-.95-7.85-8.33-9.75-19.77-6.82-30.94,2.62-9.57,9.88-17.77,20.31-21.61,33.73-29.69,82.11-72.49,127.87-54.97,10.22,3.91,18.36,11.2,21.41,21.58,3.66,12.46-1.84,24.91-11.23,32.95,1.82,1.56,3.82,3.59,3.94,5.13.38,4.72-3.88,8.48-4.55,8.05l-2.6-1.68c-2.53-1.64-5.87-3.14-8.56-2.39-2.87.79-5.93,4.2-5.92,7.37l.11,37.53c0,2.51,3.38,4.06,6.2,5.99l-25.34-.02c4.24-2.45,6.24-3.73,6.23-7.81l-.04-40.08c0-2.8-3.13-4.53-6.22-5.78l18.85-5.74.42,10.84ZM369.52,68.63c-2.57-5.47-8.58-9.24-14.27-7.01-15.16,5.93-12.98,57.25,6.04,56.24,14.36-.76,16.89-30.79,8.22-49.23Z"/>
      <path d="M276.1,118.62l-18.85.14-22.68-29.73-.47,21.9c-.08,3.87,2.5,5.31,6.47,7.66l-26.34.04c4.01-2.48,6.78-3.45,6.78-7.6l.03-80.91c-.61-3.64-2.93-5.02-6.86-6.25l19.9-5.79.16,69.64,19.38-19c.94-.92,1.28-4.45.19-5.08l-5.22-2.97,22.76-.12c-5.75,2.49-10.06,4.1-13.96,7.92l-12.73,12.49,24.19,32.15,7.24,5.51Z"/>
      <path d="M285.5,153.06c-10.84,2.41-21.77-.32-28.78-8,16.98,9.77,37,.32,45.12-16.19,3.44-7,5.59-15.13,5.61-23.3l.11-75.88c-.71-4.65-3.12-6.62-7.87-8.49l30.47-.09c-4.76,2.1-8.22,3.98-8.24,9.09l-.23,71.8c-.07,22.27-13.25,45.95-36.2,51.05Z"/>
      <path d="M538.07,76.45c-.01-4.69-2.34-8.63-6.33-10.5-4.32-2.03-14.86.17-15.44,6.13-1.18,12.09-1.16,42.21.58,43.38l4.67,3.13-24.43.04c3.81-2.5,6.11-3.8,6.1-7.5l-.02-40.2c0-3.12-2.58-4.75-6.1-6.24l18.4-5.63.38,9.56c4.93-4.91,9.39-8.66,16.07-9.55,9.39-1.25,18.2,4.91,18.31,14.84l.39,36.14c.05,4.48,1.58,5.74,6.13,8.55l-24.49.02c2.98-2.12,5.89-3.73,5.88-6.46l-.1-35.71Z"/>
      <path d="M445.02,109.06c0,3.2,2.54,4.62,6.23,5.94l-18.29,4.78-.33-9.89c-8.06,9.01-17.74,13.58-27.4,7.51-3.57-2.24-7.48-7.81-7.5-13.36l-.16-32.98c-.02-3.58-1.61-5.15-5.57-7.29l18.18-4.14.22,42.73c.02,3.24,1.99,6.88,4.12,8.97,6.66,3.6,14.14,1.65,17.96-4.56l.03-35.54c0-3.85-2.02-5.48-6.1-7.25l18.58-4.16.02,49.26Z"/>
      <path d="M122.37,118.12c-5.57-2.89-7.39-8.69-6.48-14.4.65-4.11,4.19-9.7,9.37-11.37l21.38-6.87c.95-11.77.19-22.71-10.24-23.41-10.06-.67-8.76,13.19-15.39,14.01-3.63-3.11-1.13-8.44,2.07-10.88,5.98-4.57,13.16-6.61,20.89-6.12,8.12.52,15.27,6.77,15.33,15.5l.27,35.39c0,1.14,1.17,4.02,2.19,3.96l5.66-.34c-2.19,3.09-6.39,5.84-10.45,6.19-5.75.5-9.56-3.14-10.29-9.03-5.78,7.66-15.31,12.04-24.3,7.37ZM146.94,108l-.13-20.34-11.88,4.49c-3.27,1.24-5.77,5.26-6.37,8.26-.65,3.24.19,7.89,2.71,10.12,4.89,4.33,12.44,2.37,15.67-2.53Z"/>
      <path d="M611.99,118.68c3.67-2.53,6.18-4.09,6.18-7.61V31.04c.01-3.82-2.68-6.03-6.46-7.22l19.43-5.92.02,91.99c0,4.19,1.59,5.73,5.58,8.71l-24.75.06Z"/>
      <path d="M566.43,118.04c-5.63-3.1-7.28-9.19-6.13-14.98.9-4.52,4.84-9.71,10.3-11.4l19.38-6c1.24-11.95-.44-23.74-10.54-23.52s-7.57,13.01-14.68,14.34c-3.47-3.69-1.04-9.34,2.68-11.88,6.35-4.34,13.6-6.49,21.27-5.25,7.98,1.29,13.9,7.65,13.94,15.99l.16,34.61c0,1.11,1.11,3.88,2.1,3.85l5.47-.17c-4.16,5.83-13.01,8-16.8,4.27-1.46-1.43-2.56-4.61-3.27-7.07-5.76,7.66-15.15,12-23.86,7.21ZM590.26,107.86l-.12-20.3-11.86,4.86c-6.17,3.61-8.2,12.24-3.46,17.67,4.3,4.93,12.49,3.52,15.44-2.23Z"/>
      <path d="M189.79,76.93l.24,35.02c.02,3.41,3.63,4.82,7,6.36l-26.91.34c4.62-2.77,6.72-4.09,6.71-8.58l-.07-37.97c0-3.86-2.05-5.9-6.2-7.44l19.06-5.78.38,11.49c6.23-10.5,17.99-14.87,22.12-9.05,1.31,1.84.92,6.54-.58,7.99l-2.54,2.44c-1.87,1.8-6.9-6.69-13.54-3.74-3.54,1.57-5.71,4.93-5.68,8.92Z"/>
    </g>
  </g>
</svg>