<?xml version="1.0" encoding="UTF-8"?>
<svg xmlns="http://www.w3.org/2000/svg" viewBox="40 168 514 44">
  <defs>
    
  </defs>
  <g>
    <g>
      <polygon class="st0" points="47.34 174.32 71.38 174.32 71.38 180.37 63.25 180.37 63.25 205.46 55.46 205.46 55.46 180.37 47.34 180.37 47.34 174.32"></polygon>
      <path class="st0" d="M79.13,196.14c2.71,2.47,5.28,3.89,9.02,3.89,2.05,0,5.81-.88,5.81-3.6,0-1.56-1.18-2.35-3.5-2.73l-6.48-1.07c-5.78-.9-8.91-3.98-8.91-8.57,0-7.52,6.07-10.62,12.71-10.62,5.18,0,10.25,2.1,13.74,6l-5.9,4.24c-2.05-2.48-5.07-3.95-8.36-3.95-1.8,0-4.41,1.14-4.41,3.15,0,1.67,1.33,2.51,4.32,3l2.97.47c6.21,1,11.33,2.93,11.33,8.88,0,9.35-8.44,11.11-14.26,11.11-5.28,0-9.79-1.7-14.04-6.35l5.95-3.85Z"></path>
      <path class="st0" d="M133.62,194.6c0,8.57-7.21,11.75-13.21,11.75s-13.15-3.18-13.15-11.75v-20.28h7.78v19.64c0,3.5,1.36,6.07,5.37,6.07s5.42-2.58,5.42-6.07v-19.64h7.79v20.28Z"></path>
      <polygon class="st0" points="138.34 174.32 162.39 174.32 162.39 180.37 154.28 180.37 154.28 205.46 146.48 205.46 146.48 180.37 138.34 180.37 138.34 174.32"></polygon>
      <path class="st0" d="M172.96,174.32h8.06l11.76,31.14h-8.35l-1.56-4.91h-11.52l-1.58,4.91h-8.31l11.51-31.14ZM180.96,194.8l-3.84-12.87h-.1l-3.85,12.87h7.78Z"></path>
      <polygon class="st0" points="200.67 190.93 188.86 174.32 197.97 174.32 204.57 185.08 211.17 174.32 220.27 174.32 208.46 190.93 208.46 205.46 200.67 205.46 200.67 190.93"></polygon>
      <path class="st0" d="M228.31,174.32h8.06l11.75,31.14h-8.33l-1.6-4.91h-11.51l-1.55,4.91h-8.31l11.49-31.14ZM236.31,194.8l-3.83-12.87h-.08l-3.87,12.87h7.78Z"></path>
    </g>
    <g>
      <path class="st0" d="M265.52,174.32h15.22c6.3,0,10.54,2.19,10.54,8,0,3.98-2.27,6.08-6.52,7.04v.09c4.24.31,7.65,2.54,7.65,7.13,0,6.43-4.81,8.88-12.73,8.88h-14.17v-31.14ZM272.95,186.57h6.47c2.49,0,4.07-.96,4.07-3.24,0-2.62-1.49-3.24-4.07-3.24h-6.47v6.47ZM273.04,199.69h6.34c4.11,0,5.25-1.62,5.25-3.63,0-2.58-.96-3.72-3.85-3.72h-7.74v7.35Z"></path>
      <path class="st0" d="M311.31,206.34c-9.93,0-15.74-7.7-15.74-16.44s5.82-16.45,15.74-16.45,15.75,7.7,15.75,16.45-5.82,16.44-15.75,16.44M311.31,180.01c-4.55,0-7.96,2.89-7.96,9.89,0,4.55,1.84,9.88,7.96,9.88,5.77,0,7.96-5.07,7.96-9.88s-2.19-9.89-7.96-9.89"></path>
      <path class="st0" d="M346.16,206.34c-9.93,0-15.75-7.7-15.75-16.44s5.82-16.45,15.75-16.45,15.74,7.7,15.74,16.45-5.82,16.44-15.74,16.44M346.16,180.01c-4.55,0-7.96,2.89-7.96,9.89,0,4.55,1.84,9.88,7.96,9.88,5.77,0,7.96-5.07,7.96-9.88s-2.19-9.89-7.96-9.89"></path>
      <polygon class="st0" points="366.22 174.32 374 174.32 374 186.74 385.15 174.32 395.47 174.32 384.15 186.13 395.82 205.46 387.16 205.46 378.68 191.64 374 196.41 374 205.46 366.22 205.46 366.22 174.32"></polygon>
      <path class="st0" d="M404.46,196.15c2.71,2.45,5.29,3.89,9.01,3.89,2.05,0,5.82-.87,5.82-3.59,0-1.57-1.18-2.36-3.5-2.76l-6.47-1.05c-5.77-.92-8.92-3.98-8.92-8.57,0-7.52,6.08-10.63,12.73-10.63,5.16,0,10.24,2.1,13.73,5.99l-5.9,4.24c-2.05-2.49-5.07-3.94-8.35-3.94-1.79,0-4.42,1.14-4.42,3.15,0,1.66,1.36,2.49,4.33,2.97l2.97.48c6.21,1.01,11.33,2.93,11.33,8.88,0,9.36-8.44,11.11-14.26,11.11-5.29,0-9.8-1.71-14.04-6.34l5.95-3.85Z"></path>
      <polygon class="st0" points="430.48 174.32 454.53 174.32 454.53 180.36 446.4 180.36 446.4 205.46 438.61 205.46 438.61 180.36 430.48 180.36 430.48 174.32"></polygon>
      <path class="st0" d="M472.29,206.34c-9.93,0-15.75-7.7-15.75-16.44s5.82-16.45,15.75-16.45,15.75,7.7,15.75,16.45-5.82,16.44-15.75,16.44M472.29,180.01c-4.55,0-7.96,2.89-7.96,9.89,0,4.55,1.84,9.88,7.96,9.88,5.77,0,7.96-5.07,7.96-9.88s-2.19-9.89-7.96-9.89"></path>
      <path class="st0" d="M492.15,174.32h15.57c7,0,11.28,3.24,11.28,10.23,0,4.02-2.54,7.26-6.43,8.4l7.13,12.51h-8.7l-6.12-11.2h-4.94v11.2h-7.79v-31.14ZM499.94,188.49h7.13c2.49-.04,4.15-1.31,4.15-4.2s-1.66-4.15-4.15-4.2h-7.13v8.4Z"></path>
      <polygon class="st0" points="523.29 205.46 523.29 174.32 546.2 174.32 546.2 180.36 531.07 180.36 531.07 186.04 545.2 186.04 545.2 192.08 531.07 192.08 531.07 199.43 547.52 199.43 547.52 205.46 523.29 205.46"></polygon>
    </g>
  </g>
</svg>