<?xml version="1.0" encoding="UTF-8"?>
<svg xmlns="http://www.w3.org/2000/svg" viewBox="104 558 392 58">
  <defs>
    
  </defs>
  <g>
    <g>
      <polygon class="st0" points="166.85 569.96 172.97 569.96 177.69 590.81 183.53 569.96 188.7 569.96 194.62 590.81 199.29 569.96 205.41 569.96 198.05 602.64 192.09 602.64 186.07 581.51 180.16 602.64 174.25 602.64 166.85 569.96"></polygon>
      <polygon class="st0" points="219.25 569.96 218.08 569.96 215.13 569.96 213.96 569.96 213.77 569.96 213.57 569.96 213.57 570.15 213.57 570.34 213.57 571.51 213.57 601.09 213.57 602.25 213.57 602.44 213.57 602.64 213.77 602.64 213.96 602.64 215.13 602.64 218.08 602.64 219.25 602.64 219.44 602.64 219.64 602.64 219.64 602.44 219.64 602.25 219.64 601.09 219.64 571.51 219.64 570.34 219.64 570.15 219.64 569.96 219.44 569.96 219.25 569.96"></polygon>
      <path class="st0" d="M241.47,588.71c1.64-.17,2.77-.47,3.74-.9,1.69-.75,3.01-1.88,3.94-3.37.9-1.47,1.36-3.17,1.36-5.08,0-2.3-.67-4.27-2.01-5.86-1.31-1.59-3.04-2.64-5.13-3.11-1.29-.3-3.58-.44-7.01-.44h-7.45v32.68h6.06v-12.91l9.22,12.91h7.19l-9.91-13.92ZM243.8,577.52c.37.56.55,1.16.55,1.85,0,.73-.18,1.36-.55,1.92-.36.55-.85.95-1.48,1.2-.53.2-1.62.46-3.8.46l-3.56-.03v-6.97h3.67c2.27,0,3.3.23,3.78.41.57.23,1.03.6,1.39,1.15"></path>
      <polygon class="st0" points="278.88 569.96 277.71 569.96 260.77 569.96 259.6 569.96 259.4 569.96 259.21 569.96 259.21 570.14 259.21 570.34 259.21 571.5 259.21 601.08 259.21 602.25 259.21 602.44 259.21 602.64 259.4 602.64 259.6 602.64 260.77 602.64 277.59 602.64 278.76 602.64 278.95 602.64 279.14 602.64 279.14 602.44 279.14 602.25 279.14 601.08 279.14 598.19 279.14 597.02 279.14 596.82 279.14 596.63 278.95 596.63 278.76 596.63 277.59 596.63 265.27 596.63 265.27 588.12 277.59 588.12 278.76 588.12 278.95 588.12 279.14 588.12 279.14 587.93 279.14 587.73 279.14 586.56 279.14 583.67 279.14 582.51 279.14 582.31 279.14 582.12 278.95 582.12 278.76 582.12 277.59 582.12 265.27 582.12 265.27 575.96 277.71 575.96 278.88 575.96 279.08 575.96 279.27 575.96 279.27 575.76 279.27 575.56 279.27 574.4 279.27 571.5 279.27 570.34 279.27 570.14 279.27 569.96 279.08 569.96 278.88 569.96"></polygon>
      <path class="st0" d="M306.38,571.11c-2.19-.78-5.51-1.16-10.15-1.16h-7.68v32.69h10.96c3.98,0,7.04-.59,9.32-1.79,2.3-1.2,4.19-3.08,5.62-5.59,1.41-2.48,2.12-5.36,2.12-8.58,0-3.72-.9-6.98-2.68-9.72-1.81-2.76-4.33-4.73-7.51-5.85M294.49,596.74v-20.78h.54c4.08,0,7,.26,8.7.78,2.13.65,3.75,1.81,4.94,3.55,1.19,1.75,1.8,3.92,1.8,6.44s-.55,4.42-1.64,6.03c-1.09,1.6-2.54,2.69-4.43,3.3-1.43.46-4.13.69-8.04.69h-1.87Z"></path>
      <polygon class="st0" points="338.53 575.96 331.56 575.96 331.56 569.96 351.61 569.96 351.61 575.96 344.58 575.96 344.58 602.64 338.53 602.64 338.53 575.96"></polygon>
      <path class="st0" d="M385.05,574.09c-3.24-3.23-7.42-4.88-12.26-4.88s-9.01,1.65-12.26,4.88c-3.25,3.24-4.91,7.29-4.91,12.04,0,4.48,1.37,8.36,4.05,11.55,3.19,3.79,7.62,5.71,13.11,5.71s9.92-1.93,13.11-5.71c2.69-3.18,4.05-7.07,4.05-11.55,0-4.75-1.66-8.8-4.91-12.04ZM380.71,594.3c-2.13,2.14-4.64,3.17-7.93,3.17s-5.79-1.04-7.92-3.17c-2.12-2.12-3.16-4.72-3.16-7.91,0-2.1.47-4.01,1.41-5.66.94-1.67,2.29-3.01,3.99-3.99,1.72-.99,3.65-1.5,5.68-1.5s3.97.5,5.68,1.5c1.7.97,3.05,2.32,3.99,3.99.94,1.66,1.41,3.56,1.41,5.66,0,3.19-1.04,5.79-3.16,7.91Z"></path>
      <polygon class="st0" points="396.69 570.07 402.74 570.07 402.74 583.61 402.83 583.61 413.24 570.07 420.49 570.07 407.8 586.63 420.69 602.76 413.33 602.76 402.83 589.71 402.74 589.71 402.74 602.76 396.69 602.76 396.69 570.07"></polygon>
      <path class="st0" d="M484.79,574.09c-3.25-3.23-7.43-4.88-12.26-4.88s-9.01,1.65-12.26,4.88c-3.25,3.24-4.91,7.29-4.91,12.04,0,4.48,1.37,8.36,4.05,11.55,3.19,3.79,7.62,5.71,13.11,5.71s9.92-1.93,13.11-5.71c2.69-3.18,4.05-7.07,4.05-11.55,0-4.75-1.66-8.8-4.91-12.04ZM480.46,594.3c-2.13,2.14-4.64,3.17-7.93,3.17s-5.79-1.04-7.93-3.17c-2.12-2.12-3.16-4.72-3.16-7.91,0-2.1.47-4.01,1.41-5.66.94-1.67,2.29-3.01,3.99-3.99,1.72-.99,3.65-1.5,5.68-1.5s3.97.5,5.68,1.5c1.7.97,3.05,2.32,3.99,3.99.94,1.66,1.41,3.56,1.41,5.66,0,3.19-1.04,5.79-3.16,7.91Z"></path>
      <path class="st0" d="M436.55,590.58l-10.73-20.62h6.62l7.11,15.01,7.15-15.01h6.67l-10.77,20.62v12.05h-6.05v-12.05Z"></path>
    </g>
    <path class="st1" d="M130.02,562.12c-13.32.04-24.1,10.85-24.1,24.17s10.78,24.13,24.1,24.17c13.32-.04,24.1-10.85,24.1-24.17s-10.78-24.13-24.1-24.17ZM108.61,586.29c0-4.23,1.22-8.16,3.33-11.49,0,0,3.78,18.75,7.14,29.94-6.19-3.92-10.47-10.61-10.47-18.45ZM120.99,590.57s-.72.17-1.21-.87c-2.81-5.96-6.14-17.21-6.14-17.21,3.7-4.39,9.12-7.3,15.22-7.64-4.65,16.32-6.71,24.46-6.71,24.46-.44,1.34-1.16,1.27-1.16,1.27ZM138.56,605.98c-2.62,1.15-5.5,1.79-8.54,1.8-3.04,0-5.92-.65-8.54-1.8-.16-.07,3.86-16.42,7.29-24.23.47-1.08,1.13-1.09,1.24-1.08.11,0,.77,0,1.24,1.08,3.44,7.81,7.46,24.16,7.3,24.23ZM139.06,590.57s-.72.07-1.16-1.27c0,0-2.07-8.13-6.71-24.46,6.1.34,11.52,3.25,15.22,7.64,0,0-3.34,11.25-6.14,17.21-.49,1.05-1.21.87-1.21.87ZM140.95,604.75c3.37-11.18,7.14-29.94,7.14-29.94,2.11,3.32,3.33,7.26,3.33,11.49,0,7.84-4.28,14.53-10.47,18.45Z"></path>
  </g>
</svg>